<?xml version="1.0" standalone="no"?>
<!DOCTYPE svg PUBLIC "-//W3C//DTD SVG 1.1//EN" "http://www.w3.org/Graphics/SVG/1.1/DTD/svg11.dtd" >
<svg xmlns="http://www.w3.org/2000/svg" xmlns:xlink="http://www.w3.org/1999/xlink" version="1.1">
<metadata>
Created by FontForge 20181214 at Wed Jul 27 05:49:10 2005
 By convertio
Copyright (c) Gophmann Alexandra Leopoldovna, 2005. All rights reserved.
</metadata>
<defs>
<font id="AlexandraZeferinoThree" horiz-adv-x="230" >
  <font-face 
    font-family="Alexandra Zeferino Three"
    font-weight="400"
    font-stretch="normal"
    units-per-em="1000"
    panose-1="3 3 4 2 4 7 7 7 12 3"
    ascent="800"
    descent="-200"
    x-height="219"
    cap-height="568"
    bbox="-605 -546.5 1454.09 838"
    underline-thickness="50"
    underline-position="-100"
    unicode-range="U+000D-FB02"
  />
<missing-glyph horiz-adv-x="250" 
 />
    <glyph glyph-name="napostrophe" unicode="&#x22;n" horiz-adv-x="272" 
d="M335 28q2 2 0.5 6t-5.5 -1q-9 -10 -22 -20t-27 -18.5t-29 -13.5t-28 -5q-23 0 -31 11t-8 32q0 28 12 58t26.5 56t26.5 45t12 25q0 5 -6 11t-9 6q-10 0 -27.5 -12t-38.5 -31t-42.5 -42t-39.5 -45q16 35 27.5 58l18.5 37l10.5 21t3.5 10q0 4 -3 4t-9 -3q-15 -8 -22.5 -13
t-10.5 -13q-3 -9 -9.5 -23.5t-14.5 -31t-16 -32.5t-15 -29q-12 -23 -23.5 -44.5t-16.5 -31.5q0 -5 5 -5q7 0 17.5 6t15.5 14q15 25 32.5 50.5t37 48t39.5 41.5t38 31q7 5 10.5 2.5t-0.5 -13.5q-12 -25 -24 -49.5t-22 -46.5t-16 -39.5t-6 -29.5q0 -28 13.5 -36.5t40.5 -8.5
q16 0 34.5 5t37 13.5t35 20t28.5 25.5zM180 387q0 -20 -8 -38.5t-21 -36t-29 -33.5t-32 -31q-4 -3 -7.5 -0.5t0.5 6.5l24 22t21.5 23.5t16 27.5t6.5 33q0 15 -2.5 22.5t-6 11t-6 5.5t-2.5 5q0 5 20 23q3 3 6 3q5 0 12.5 -13t7.5 -30z" />
    <glyph glyph-name="IJ" unicode="IJ" horiz-adv-x="631" 
d="M488 463q-20 -31 -48.5 -84t-62.5 -117q-28 -52 -57 -101.5t-63 -87.5t-74.5 -61.5t-91.5 -23.5q-29 0 -52 12.5t-30 39.5q2 4 3.5 5t4.5 -4q5 -20 21.5 -31t47.5 -11q36 0 69.5 26t65 66.5t62 91t60.5 98.5q22 34 45 70.5t48.5 71.5t54.5 66.5t62 55.5q-20 1 -44 1.5
t-48 0.5q-52 0 -92.5 -7t-68 -23t-42 -43t-14.5 -66q0 -34 14.5 -55.5t33.5 -29.5q11 -5 9 -6t-6 -1q-14 0 -39 -5q-45 23 -45 77q0 55 28 89t69 52.5t89 24.5t87 6q12 0 26.5 -0.5t28 -0.5t23.5 1t15 4q5 -11 -4 -14q-17 -8 -36 -27.5t-38 -44.5q21 25 48.5 41t59 25
t65.5 12.5t69 3.5q26 0 50 -1.5t33 5.5q5 -11 -4 -14q-20 -9 -42 -42.5t-51 -89t-67.5 -132.5t-90.5 -172q-31 -54 -74 -114.5t-95 -112t-111 -85.5t-121 -34q-39 0 -54 6.5t-22 9.5q-3 -2 -8.5 -6t-10.5 -10q-7 2 -14 15t-13 32t-9.5 41.5t-3.5 44.5q0 8 2.5 20t6.5 22
q5 6 10.5 12.5t9.5 11.5q1 2 2 1.5t1 -2.5q-1 -7 -1.5 -18t-0.5 -21q0 -29 8 -55.5t23 -46.5t37 -32t51 -12q34 0 73.5 15.5t83 54.5t91 104.5t98.5 164.5q35 68 71.5 139.5t69.5 132.5t59.5 103t41.5 51q-13 1 -25 1h-27q-52 0 -92.5 -7t-68 -23t-42 -43t-14.5 -66
q0 -34 14.5 -55.5t33.5 -29.5q11 -5 9 -6t-6 -1q-14 0 -39 -5q-22 11 -32.5 33t-10.5 48q0 18 5 36t13 35z" />
    <glyph glyph-name="fi" unicode="fi" horiz-adv-x="348" 
d="M422 336q0 -11 -9.5 -22t-21.5 -11q-13 0 -13 11q0 12 9 23t21 11q5 0 9.5 -3.5t4.5 -8.5zM475 466q0 -3 -2.5 -10t-4.5 -13h-2q-14 13 -54 13q-23 0 -41.5 -5t-37 -19.5t-38 -39.5t-43.5 -64q-18 -30 -35 -60.5t-34 -60.5q64 0 97.5 1t51.5 5q3 1 16 1q7 0 3 -7
q-14 -20 -30.5 -45.5t-30.5 -50.5t-23.5 -46t-9.5 -32q0 -21 18 -21q11 0 31 9t44 26t50.5 40.5t50.5 53.5q4 1 4 -5q-26 -32 -55 -58.5t-58 -45t-55.5 -29t-46.5 -10.5q-23 0 -23 22q0 16 20 54t68 113q4 6 5 11t-4 5q-26 2 -58.5 2t-66.5 -1q-32 -60 -64.5 -117.5
t-65.5 -115.5q-29 -50 -58.5 -96t-62 -81.5t-68.5 -57t-78 -21.5q-15 0 -33.5 4.5t-35 15.5t-27.5 28.5t-11 43.5q0 5 6 16t13 20t12 10q-9 -14 -9 -34q0 -42 23 -69.5t71 -27.5q36 0 65.5 19t55.5 52.5t51 78t52 95.5q32 63 64 122.5t61 113.5h-63q-4 0 -9.5 1.5t-9.5 3.5
t-5 3.5t5 1.5l87 -1q14 23 27 44.5t26 41.5q34 52 67.5 88t63.5 58t55.5 32t45.5 10q17 0 30 -4t13 -11z" />
    <glyph glyph-name="fl" unicode="fl" horiz-adv-x="412" 
d="M665 544q0 -7 -5 -20q-5 -6 -6 -3q-5 10 -15 17t-27 7q-18 0 -33 -9.5t-37 -41t-56.5 -91.5t-90.5 -160l-22 -40t-20.5 -38.5t-18 -34t-13.5 -24.5q-22 -43 -22 -70q0 -32 29 -32q25 0 67 24q22 13 50.5 37t49.5 48q6 7 6.5 2.5t-1.5 -6.5q-9 -11 -22 -24t-26.5 -25
t-27.5 -22.5t-26 -17.5q-56 -32 -102 -32q-18 0 -28.5 9t-10.5 30q0 15 7 33t17 37.5t22 38.5t22 36q-2 14 -13.5 18.5t-24.5 4.5q-8 0 -42 -1t-77 -3q-10 -18 -19 -34.5t-17 -30.5q-14 -25 -31 -55t-34.5 -61t-35 -61t-32.5 -55q-42 -69 -81.5 -123.5t-74.5 -93.5
q-39 -44 -79 -74.5t-78 -49t-72.5 -27t-62.5 -8.5q-27 0 -55 7t-50.5 24t-36.5 45.5t-14 70.5q0 31 11 70q2 7 4.5 5t0.5 -7q-6 -21 -6 -44q0 -25 8 -50t27 -44.5t51 -32t80 -12.5q83 0 147.5 35.5t130.5 115.5q20 24 38.5 53.5t35.5 60t32.5 60t29.5 54.5q14 27 32 61.5
t37.5 70.5t39 70t35.5 59q-15 -1 -32 -1.5t-25 -0.5q-18 0 -25.5 2t-9.5 7q0 4 2 8t4 5q3 -13 35 -13h30t27 1q29 48 50.5 81.5t38.5 54.5q22 27 43.5 51t46 42.5t52.5 29.5t62 11q12 0 24 -4t18 -4q13 0 27 12.5t27 25.5q40 38 67.5 50.5t41.5 12.5q32 0 32 -17zM503 467
q7 12 -4 1q-17 -16 -30.5 -26t-18.5 -10q-8 0 -18 7.5t-37 7.5q-26 0 -46.5 -8t-38.5 -24.5t-35 -41t-35 -56.5q-11 -20 -27 -46.5t-41 -71.5q42 1 77 2t57 1q30 0 31 -9q3 4 10 15.5t14.5 24.5t14.5 24.5t9 14.5q13 23 30 52t34 57.5t31.5 51.5t22.5 34z" />
    <glyph glyph-name="ij" unicode="ij" horiz-adv-x="257" 
d="M222 352q0 -11 -9.5 -22t-20.5 -11t-11 11q0 12 8.5 23t21.5 11q11 0 11 -12zM347 358q0 -12 -10.5 -24t-23.5 -12q-12 0 -12 12q0 13 9.5 25t23.5 12q13 0 13 -13zM270 197q-5 -13 -18 -42t-29 -63t-31.5 -66.5t-25.5 -52.5q-52 -94 -98 -160.5t-87.5 -109t-79.5 -62
t-74 -19.5q-34 0 -53 15.5t-19 31.5q0 7 0.5 17.5t0.5 21.5t0.5 20t0.5 12q2 5 4.5 3.5t2.5 -6.5q0 -35 17 -55.5t62 -20.5q48 0 92 25t85.5 75t82 126.5t82.5 179.5q-29 -33 -60.5 -54t-55.5 -20q-26 0 -26 24q0 13 7 33t16.5 41.5t19 41.5t14.5 34q2 5 5.5 14.5t3.5 12.5
q0 10 -7 10q-8 0 -29 -6q-4 0 -4 3.5t5 5.5q23 8 42.5 13t27.5 5q10 0 10 -11q0 -7 -4 -14q-13 -26 -25.5 -51.5t-22 -47.5t-15.5 -39.5t-6 -27.5q0 -20 18 -20q16 -2 42 19t48 49q3 7 9.5 23.5t13 34t11.5 32.5t5 21q0 9 -8 9q-2 0 -10.5 -3t-11.5 -4q-4 0 -4 3.5t5 5.5
q21 6 38 12t27 6t10 -11q0 -7 -4 -14z" />
    <glyph glyph-name=".notdef" horiz-adv-x="250" 
 />
    <glyph glyph-name=".null" horiz-adv-x="500" 
 />
    <glyph glyph-name=".null" horiz-adv-x="500" 
 />
    <glyph glyph-name="nonmarkingreturn" unicode="&#xd;" horiz-adv-x="0" 
 />
    <glyph glyph-name="space" unicode=" " horiz-adv-x="200" 
 />
    <glyph glyph-name="exclam" unicode="!" horiz-adv-x="220" 
d="M340 401q4 -2 3 -5t-4 -3q-12 0 -23 -8q-23 -18 -44.5 -49t-42.5 -69.5t-41 -82t-39 -86.5q-2 -4 -5 -3t-3 5q60 172 114 276q15 31 48 31q8 0 19.5 -2t17.5 -4zM152 29q0 -14 -10 -24.5t-23 -10.5q-19 0 -19 19q0 14 7 27t23 13q11 0 16.5 -7t5.5 -17z" />
    <glyph glyph-name="quotedbl" unicode="&#x22;" horiz-adv-x="327" 
d="M426 460q0 -4 -3 -7q-39 -59 -83.5 -113t-87.5 -120q-4 -5 -9 -2.5t0 7.5q20 33 37 62t34 57.5t36 57.5t42 61q5 8 17 8q5 0 11 -3t6 -8zM353 465q0 -4 -3 -7q-20 -30 -40.5 -57t-42.5 -55t-44.5 -58t-46.5 -65q-2 -4 -8 -2.5t-1 10.5q25 36 45 67.5t37 61t34 56.5t36 54
q7 9 16 9q6 0 12 -3.5t6 -10.5z" />
    <glyph glyph-name="numbersign" unicode="#" horiz-adv-x="329" 
d="M409 413q-1 -2 -7.5 -11t-16.5 -22.5t-22 -31t-24 -35.5q14 1 26.5 1.5t21.5 1.5q4 0 4 -3q-5 -5 -13.5 -12t-13.5 -12q-7 -7 -13 -7h-15t-16 -1q-17 -26 -32.5 -52t-31.5 -52q24 0 39 -2t15 -13q0 -5 -6.5 -13.5t-11.5 -16.5q-5 5 -17 6.5t-41 1.5q-18 -32 -34.5 -62.5
t-28.5 -54.5q-5 -8 -8 -8t-5.5 4t-2.5 7q0 6 4 10q16 25 31.5 50.5t32.5 53.5q-14 0 -29.5 -1t-32.5 -3q-21 -36 -37 -65.5t-29 -55.5q-5 -12 -12 -12q-4 0 -5 4.5t-1 8.5t3 9l32 52t36 57q-20 -3 -27.5 -4.5t-11.5 -1.5t-4 3q6 3 13 10.5t9 12.5q4 12 11 13q6 1 16 2t17 2
q16 26 32.5 52t32.5 52l-22 -2t-21 -3q-4 0 -4 3q0 2 7 13.5t11 16.5q4 6 14 6q8 0 17 0.5t19 0.5q14 22 26 42.5t23 37.5q6 9 10.5 11.5t7.5 1.5t3.5 -4t-2.5 -6q-14 -20 -28.5 -40.5t-28.5 -42.5q15 1 30.5 1.5t31.5 1.5q23 35 42 65t25 40q6 11 13.5 9t-1.5 -14zM309 281
q-16 -1 -33 -2t-28 -2q-16 -24 -32.5 -50.5t-32.5 -53.5q15 2 30.5 2.5t31.5 1.5q17 26 32 52t32 52z" />
    <glyph glyph-name="dollar" unicode="$" horiz-adv-x="372" 
d="M433 498q-15 -23 -29 -46t-27 -44q5 -8 7 -18t2 -21q0 -8 -2.5 -11.5t-7.5 -11.5q-3 -5 -5 -9t-5 -4q-5 0 -5 6q0 17 -6 32q-20 -32 -37.5 -61.5t-34.5 -57.5q20 -6 37 -13t29 -16.5t19 -23.5t7 -34q0 -33 -21 -68t-56.5 -64t-81 -48t-93.5 -19q-20 -40 -35.5 -79.5
t-29.5 -79.5q-2 -8 -6 -4t-4 11q0 20 19 62.5t43 91.5q-29 4 -50.5 17t-24.5 39q0 7 -0.5 21t-1.5 20q0 6 3 6t4 -4q1 -15 9 -27t20 -21.5t26.5 -15.5t29.5 -8q24 45 57.5 103t71.5 124q-14 5 -32 10.5t-33 10.5q-28 7 -28 32q0 12 12 40t33.5 56t50.5 49.5t62 21.5t51 -23
q14 24 23 39t15 24t9.5 13.5t6.5 6.5q9 7 9 -4zM348 383q-10 16 -24 25t-33 9q-18 0 -34.5 -9.5t-29.5 -23.5t-20.5 -32t-7.5 -34q0 -26 22 -39.5t52 -23.5q18 31 36.5 63t38.5 65zM329 143q0 33 -18.5 49.5t-47.5 26.5q-17 -28 -34.5 -59t-34 -61t-31.5 -57.5t-26 -48.5
q5 -1 15 -1.5t18 -0.5q33 0 62 10.5t50.5 30t34 48t12.5 63.5z" />
    <glyph glyph-name="percent" unicode="%" horiz-adv-x="619" 
d="M618 184q-15 -2 -33.5 -3t-32.5 -3q-10 -1 -7 -7q3 -5 3 -18q0 -25 -11.5 -52t-29.5 -49.5t-41.5 -37.5t-47.5 -15q-37 0 -37 39q0 35 20 65.5t42 51.5q-36 -20 -80 -48t-90.5 -61t-92 -68.5t-83.5 -69.5q-2 0 -2 2q0 9 -2.5 13t-4.5 6q0 3 2 5t4 5q119 110 195.5 189
t121 132.5t62 84.5t17.5 46q0 18 -11.5 23.5t-31.5 5.5q-15 0 -33 -2t-35.5 -5t-33.5 -6t-27 -4q-10 0 -15 5q-9 -5 -22.5 -18t-25.5 -31.5t-21 -42t-9 -48.5q0 -28 20 -28q15 0 31.5 10.5t30 29t22 43t8.5 53.5q0 15 -6 20q0 5 4 5q2 -2 8.5 -3.5t10.5 -2.5q2 -1 7 -7
t5 -20q0 -17 -11 -40.5t-30 -45.5t-43 -37.5t-49 -15.5q-14 0 -27 7t-13 30q0 15 6 36t19 42t33.5 39t49.5 28q-1 5 -1 14v17q0 3 3 3t4 -3q4 -5 6.5 -6.5t11.5 -1.5q6 0 20.5 2t32.5 4t36.5 4t31.5 2q28 0 44 -8t16 -32q0 -10 -4.5 -24t-17.5 -35t-36 -52t-61 -75t-92 -103
t-129 -137q46 33 91 64t85.5 57.5t76.5 48t64 35.5q2 0 3 -2.5t-1 -3.5q-17 -7 -30 -23.5t-22.5 -36.5t-14.5 -40t-5 -35t6 -24t17 -9t25 9t27 26t21.5 41.5t8.5 56.5q0 14 -3.5 24.5t-17.5 15.5q-4 1 -4 5t4 5q5 2 11 5t8 5q0 1 3 1q4 0 7 -3t8 -5t14.5 -4t26 -3t43.5 -1
q3 0 0 -5z" />
    <glyph glyph-name="ampersand" unicode="&#x26;" horiz-adv-x="602" 
d="M587 206q0 -12 -10 -25.5t-24.5 -25t-31.5 -19t-32 -7.5q-7 0 -15.5 1.5t-14.5 4.5q-21 -27 -45 -53t-52 -46t-60.5 -32t-70.5 -12q-67 0 -109.5 35.5t-42.5 104.5q0 28 12.5 54.5t35.5 49t54.5 39.5t69.5 26q-2 6 -2 13v15q0 23 12.5 46.5t32.5 42t45 30t49 11.5
q15 0 33 -9.5t19 -30.5q1 -11 -6 -20.5t-16 -19.5q-6 -5 -6 2q0 26 -14 41t-43 15q-17 0 -31.5 -7t-25.5 -19.5t-17.5 -29.5t-7.5 -36q-2 -17 3 -40q12 2 21.5 2h18.5q55 0 55 -20q-1 -10 -21.5 -17t-43.5 -7q-18 0 -32 6.5t-20 25.5q-63 -17 -97 -56t-34 -93
q0 -64 38 -99.5t99 -35.5q31 0 59 11.5t52 30t43.5 41t34.5 44.5q-20 8 -37.5 20t-33 23t-29 18.5t-25.5 7.5q-21 0 -31.5 -11t-10.5 -27q0 -9 2 -17.5t10 -16.5q2 -1 1.5 -2t-2.5 -1q-20 3 -26.5 9.5t-6.5 19.5q0 9 6.5 19.5t18.5 19.5t28 15.5t35 6.5q14 0 28 -5.5
t28.5 -14.5t30 -19.5t32.5 -20.5q26 34 47 52.5t42 18.5q31 0 31 -27zM568 199q0 8 -5 15t-18 7q-14 0 -31 -15.5t-40 -46.5q13 -8 23 -9.5t17 -1.5q24 0 39 14t15 37zM350 287q0 4 -5.5 7t-13.5 4.5t-16.5 2t-14.5 0.5q-4 0 -9.5 -0.5t-12.5 -0.5q5 -12 18.5 -21.5
t27.5 -9.5q6 0 16 5t10 13z" />
    <glyph glyph-name="quotesingle" unicode="'" horiz-adv-x="218" 
d="M328 462q0 -3 -8 -15.5t-18.5 -28t-22 -31.5t-18.5 -25q-6 -9 -15 -22t-19 -27.5t-19 -29t-16 -26.5q-4 -6 -9.5 -3.5t-1.5 9.5q15 28 28.5 53.5t27.5 50.5t27.5 49t30.5 49q7 9 16 9q4 0 10.5 -3.5t6.5 -8.5z" />
    <glyph glyph-name="parenleft" unicode="(" horiz-adv-x="406" 
d="M638 600q-41 -17 -86 -53.5t-88.5 -85.5t-83 -105.5t-69.5 -114t-47.5 -111.5t-17.5 -97q0 -25 8.5 -49t27.5 -40q5 -2 2 -6.5t-6 -0.5q-32 20 -49.5 51.5t-17.5 71.5q0 25 12 66t35.5 90t59 103.5t82.5 107t105.5 99.5t128.5 82q5 0 6.5 -3t-2.5 -5z" />
    <glyph glyph-name="parenright" unicode=")" horiz-adv-x="406" 
d="M29 -60q44 20 90 58t89.5 86.5t82 104.5t67.5 112.5t46 109.5t17 96q0 25 -8.5 49t-27.5 40q-5 2 -2 6.5t6 0.5q32 -20 49.5 -51.5t17.5 -71.5q0 -25 -12 -66t-35.5 -90t-59 -103.5t-82.5 -107t-105.5 -99.5t-128.5 -82q-5 0 -6.5 3t2.5 5z" />
    <glyph glyph-name="asterisk" unicode="*" horiz-adv-x="254" 
d="M348 330q0 -4 -3 -8.5t-11 -3.5q-13 1 -29.5 1h-30.5q-8 0 -2 -6q9 -11 22.5 -26.5t15.5 -23.5q4 -11 -5 -13.5t-12 5.5q-1 2 -4.5 8.5t-7.5 14.5t-9 17t-9 15q-3 4 -7 -3q-6 -11 -14 -28.5t-12 -27.5q-5 -12 -10 -12t-9.5 1.5t-4.5 5.5t6 13q1 2 6.5 9.5t12 16t11.5 16
t6 9.5q6 7 -3 6q-2 0 -10 -2t-18.5 -4.5l-21 -5t-16.5 -3.5q-5 0 -7 3.5t-2 6.5q0 2 3.5 6t5.5 5q4 0 12.5 0.5t18.5 0.5t19.5 0.5t15.5 0.5q7 0 4 5q-5 7 -17.5 22t-20.5 25q-3 4 1 9t9 5q6 0 11 -8q3 -5 6.5 -11.5t7 -13.5l6.5 -13t4 -9q2 -5 3 -4t3 4t5.5 10t7.5 15.5
t8 17.5t7 16q4 8 7 10t8 2t8 -5.5t-2 -10.5q-10 -12 -22.5 -30.5t-18.5 -26.5q-5 -9 6 -6q11 2 29 5t26 5q17 3 17 -7z" />
    <glyph glyph-name="plus" unicode="+" horiz-adv-x="400" 
d="M351 112q-23 5 -49 7t-55 2q-16 -28 -29.5 -56.5t-22.5 -52.5l-23 17q9 16 24 43t29 50q-10 0 -23 -0.5t-26 -0.5t-24 -0.5t-18 -0.5l-8 25q3 0 12.5 -0.5t24.5 -1t33.5 -1t38.5 -0.5q13 23 26.5 46.5t24.5 43.5l29 -6q-14 -17 -29.5 -39t-27.5 -45q29 0 53.5 -2t38.5 -7
z" />
    <glyph glyph-name="comma" unicode="," horiz-adv-x="210" 
d="M174 69q0 -10 -8 -18l-48.5 -48.5t-41 -42t-38.5 -41t-41 -45.5q-2 -2 -7.5 -3.5t-5.5 5.5q0 5 3 8q45 51 85.5 103t80.5 106q4 7 11 7q3 0 6.5 -5.5t3.5 -25.5z" />
    <glyph glyph-name="hyphen" unicode="-" horiz-adv-x="316" 
d="M316 136q0 -8 -13 -8h-30t-39 -0.5t-43 -0.5h-41q-10 0 -10 6q0 3 3 6t9 3q11 0 27 -0.5t33 -0.5q29 0 54 1t39 1q11 0 11 -7z" />
    <glyph glyph-name="period" unicode="." 
d="M155 44q0 -5 -4 -13.5t-10.5 -16.5t-14.5 -13.5t-16 -5.5q-7 0 -12.5 4t-5.5 12q0 20 13.5 35t30.5 15q5 0 12 -3.5t7 -13.5z" />
    <glyph glyph-name="slash" unicode="/" horiz-adv-x="368" 
d="M440 548q0 -1 -14 -31.5t-37 -80t-52 -112.5t-59 -129q-71 -155 -162 -351q-3 -7 -11.5 -8t-8.5 7q0 2 10 25t26.5 59.5t38.5 84.5t46.5 101t50 107.5t49.5 105.5q29 63 52 111t37 78q13 30 15 33q1 4 10 6.5t9 -6.5z" />
    <glyph glyph-name="zero" unicode="0" horiz-adv-x="439" 
d="M486 370q25 10 57.5 26.5t56.5 34.5q4 4 6 1t-2 -6q-15 -12 -45.5 -29.5t-72.5 -35.5q0 -34 -11.5 -75t-31.5 -82.5t-47.5 -80t-60 -69t-69 -48.5t-74.5 -18q-14 0 -31 3t-31.5 12t-24.5 26t-10 45q0 27 9.5 58t26 63.5t39.5 65.5t50 63q13 14 36 33t48 29q5 2 9.5 4
t9.5 4q-1 2 -1 10q2 1 12 1.5t18 0.5q25 11 47.5 21t34.5 16q6 -1 14 -5t15.5 -12.5t13.5 -22t9 -33.5zM358 401q6 -23 26.5 -35.5t57.5 -7.5q-3 22 -14 37t-32 15q-6 0 -15.5 -2t-22.5 -7zM326 386q-16 -10 -32.5 -23t-33.5 -31q-35 -38 -57 -74.5t-34.5 -69t-17 -59
t-4.5 -44.5q0 -38 18 -59.5t48 -21.5q40 0 81.5 26.5t74.5 71.5t54 104t21 124v10t-1 9q-8 -1 -14.5 -1.5t-13.5 -0.5q-42 0 -64 12t-25 27z" />
    <glyph glyph-name="one" unicode="1" horiz-adv-x="270" 
d="M385 439q-69 -94 -126 -189t-102 -180q-9 -17 -12 -31t-3 -26q0 -19 11 -33q5 -3 2 -7.5t-6 -0.5q-17 22 -29 36.5t-12 31.5q0 20 11 44q14 29 37 69t51 83.5t57 86t55 77.5l1 2v1q0 1 -1 2q-2 0 -4 -2q-19 -11 -43 -25.5t-51 -31t-54.5 -34t-52.5 -33.5q-4 5 -4 17
q23 12 53 29t61.5 35.5t62 37.5t53.5 35q10 2 21.5 4t21.5 5z" />
    <glyph glyph-name="two" unicode="2" horiz-adv-x="417" 
d="M161 53q-6 1 -19 1.5t-24 0.5q-48 0 -73.5 -5t-25.5 -22q0 -7 8 -12t25 -5q42 0 68.5 15t40.5 27zM380 -1q-10 9 -29.5 17t-46.5 15t-60 12.5t-69 8.5q-13 -10 -29 -20.5t-33.5 -19t-34.5 -14t-32 -5.5q-17 0 -30 3.5t-13 17.5q0 13 11 25.5t29.5 22.5t43 16t52.5 6h34
t27 -1q32 26 69.5 59t69 67.5t52.5 69t21 63.5q0 67 -62 67q-24 0 -43 -6.5t-35 -17.5t-28.5 -24.5t-24.5 -28.5q-3 -4 -6 -1.5t-1 6.5q15 18 33.5 37.5t40.5 35t47 25.5t53 10q10 0 22.5 -2.5t23.5 -9.5t18 -20t7 -35q0 -29 -25 -68t-62.5 -80t-80 -80t-77.5 -67
q51 -4 97.5 -9t71.5 -13q12 -3 12 -16q-2 -10 -5 -23.5t-6 -21.5z" />
    <glyph glyph-name="three" unicode="3" horiz-adv-x="318" 
d="M375 377q0 -13 -8 -32q-7 -16 -40 -44q-35 -29 -88 -54q0 -1 2 -1q32 -2 51 -22q18 -20 18 -53q0 -28 -17 -65q-50 -104 -155 -153q-70 -32 -104 -32q-43 0 -63 41q-1 1 -1 4q0 2 2 2q3 0 5 -3q18 -28 63 -28t92 24q92 47 120 148q7 22 7 46q0 65 -55 65q-19 0 -41 -9h-2
q-5 0 -5 4q0 2 2 4l39 19.5t54 27.5q54 28 74 61q8 14 8 29q0 38 -42 38q-7 0 -10 -1q-20 -2 -35 -14q-17 -12 -18 -12q-3 0 -3 2q0 3 2 5q11 10 22 17.5t23 14.5q26 14 58 14q22 0 33 -11q12 -11 12 -32z" />
    <glyph glyph-name="four" unicode="4" horiz-adv-x="450" 
d="M512 162q0 -19 -20 -45q-1 -1 -4 -1q-4 0 -4 3q0 1 3 6q3 4 3 8q0 7 -9 10q-48 16 -143 18q-19 -36 -34 -67.5t-26 -57.5q-8 -22 -8 -35q0 -7 1 -10v-2q0 -3 -3 -4q-5 0 -6 4q-2 4 -6 10.5t-11 15.5q-7 7 -7 20q0 5 5 18q25 49 60 108q-42 -1 -88.5 -3.5t-98.5 -7.5
q-10 -1 -31 -7q-11 -2 -18.5 -3.5t-12.5 -1.5t-5 5v1q2 20 3.5 24.5t12.5 6.5q10 1 19 1t19 1q20 2 38 12q63 35 112.5 69t87.5 67q28 25 28 58q0 9 -4 16q-3 10 -3 14t3 7q15 12 30 16q1 1 4 1q12 0 12 -28q0 -14 -4 -22q-13 -33 -55 -67q-79 -66 -193 -135q-3 -2 -3 -3
q0 -3 4 -3h1q130 3 145 3h10q8 14 19.5 32.5t25.5 41.5q38 60 78 95q25 22 63 45q1 1 3 1t4 -5q0 -3 -2 -5q-49 -30 -87 -86q-18 -28 -36 -57.5t-35 -61.5q26 -1 50.5 -1.5t49.5 -1.5q9 -1 18 -1h19q26 -3 26 -16z" />
    <glyph glyph-name="five" unicode="5" horiz-adv-x="297" 
d="M-18 -5q2 -18 16 -24t37 -6q30 0 66 16t67.5 43.5t53 64.5t21.5 79q0 14 -5.5 28.5t-22.5 28.5q-26 19 -41 29t-15 28q8 35 33 72.5t57 77.5q4 6 9 6q2 0 16.5 -4t46.5 -4q70 0 103 25t33 57q0 8 -5 20q2 1 8 -1q3 -9 3 -20q0 -23 -11.5 -45t-33 -39.5t-51 -28
t-65.5 -10.5q-14 0 -32 1.5t-34 5.5q-26 -25 -36.5 -47.5t-10.5 -30.5q0 -14 12 -26t43 -30q17 -10 32 -25.5t15 -41.5q0 -25 -13.5 -53.5t-35.5 -56.5t-50.5 -53.5t-58 -45.5t-58 -31.5t-50.5 -11.5q-23 0 -35.5 8t-12.5 31q0 11 5 14z" />
    <glyph glyph-name="six" unicode="6" horiz-adv-x="344" 
d="M265 212q-16 0 -39 -10.5t-44 -30.5t-36 -50t-15 -70q0 -23 11 -36t30 -13q17 0 40 14.5t44 38t35.5 53t14.5 59.5q0 45 -41 45zM533 417q1 4 1 11q0 11 -12 21t-48 10q-50 0 -100.5 -31t-95 -77t-77.5 -99t-47 -97q7 8 20 20t29.5 23.5t35.5 19.5t39 8q24 0 39.5 -11
t15.5 -39q0 -27 -16 -59.5t-41.5 -60.5t-57.5 -47t-65 -19q-39 0 -53 18t-14 50q0 30 16.5 75.5t65.5 111.5q51 66 99 111t90 72.5t75 39.5t54 12q22 0 38 -9t16 -36q0 -8 -3 -17z" />
    <glyph glyph-name="seven" unicode="7" horiz-adv-x="343" 
d="M176 -7q-12 -2 -25 -7t-19 -9q-5 0 -12 12t-7 28q0 13 3.5 27t18 35.5t44.5 54t83 83.5q45 45 91.5 92t84.5 89q-12 -4 -31 -6.5t-34 -2.5q-12 0 -28.5 1.5t-34 4t-35 4t-31.5 1.5q-42 0 -65 -32q-11 -15 -22.5 -38.5t-19.5 -55.5l-8 7q10 34 25.5 65.5t39.5 59.5
q14 17 34 27t42 10q9 0 32 -4.5t49.5 -10.5t51 -10.5t36.5 -4.5t24 14.5t19 31.5q12 0 21 -5t9 -7q0 -3 -3 -6q-23 -23 -51 -36q-63 -66 -112.5 -117.5t-88.5 -91.5q-12 -12 -29.5 -32t-33 -43t-27 -45.5t-11.5 -40.5q0 -30 22 -37z" />
    <glyph glyph-name="eight" unicode="8" horiz-adv-x="336" 
d="M301 138q0 15 -3.5 27t-10 23.5t-15.5 24.5t-20 30q-29 -17 -56 -34.5t-48 -36.5t-33.5 -40.5t-12.5 -46.5q0 -31 21 -49.5t49 -18.5q27 0 59 21t54 51q16 22 16 49zM391 397q0 30 -30 30q-15 0 -32.5 -9t-32.5 -22.5t-24.5 -30.5t-9.5 -33q0 -14 6 -26.5t20 -31.5
q57 36 80 66t23 57zM426 407q0 -9 -2 -21t-14.5 -28.5t-39.5 -38.5t-77 -52q8 -14 16 -23.5t14 -18.5t10 -20t4 -29q0 -21 -11 -45q-14 -28 -36 -53t-47 -44t-51 -30t-48 -11q-31 0 -55 18t-24 52q0 30 17.5 57t44 50t58.5 43t62 37q-16 29 -16 52q0 20 13 44.5t34 46.5
t48 36.5t56 14.5q44 0 44 -37z" />
    <glyph glyph-name="nine" unicode="9" horiz-adv-x="344" 
d="M-21 28q12 -16 31.5 -22t37.5 -6q51 0 96.5 26.5t83.5 67.5t67.5 89t47.5 92q-23 -25 -56 -46t-72 -21q-25 0 -44 13t-19 41q0 25 18.5 56.5t47.5 59t65.5 46t71.5 18.5q19 0 31.5 -5.5t19.5 -14.5t9.5 -19.5t2.5 -20.5q0 -26 -13 -65t-39.5 -84t-66.5 -91.5t-93 -87.5
q-42 -32 -86.5 -51t-80.5 -19q-20 0 -37.5 9.5t-25.5 30.5zM376 390q0 16 -8 27.5t-25 11.5q-29 0 -59 -18.5t-54 -45.5t-39.5 -56.5t-15.5 -51.5q0 -18 12 -27.5t32 -9.5q28 0 56.5 16t50.5 40.5t36 54.5t14 59z" />
    <glyph glyph-name="colon" unicode=":" horiz-adv-x="239" 
d="M239 209q0 -5 -4 -13.5t-10.5 -16.5t-14.5 -13.5t-16 -5.5q-7 0 -12.5 4t-5.5 12q0 20 13.5 35t30.5 15q5 0 12 -3.5t7 -13.5zM151 44q0 -5 -4 -13.5t-10.5 -16.5t-14.5 -13.5t-16 -5.5q-7 0 -12.5 4t-5.5 12q0 20 13.5 35t30.5 15q5 0 12 -3.5t7 -13.5z" />
    <glyph glyph-name="semicolon" unicode=";" horiz-adv-x="231" 
d="M237 210q0 -5 -4 -13.5t-10.5 -16.5t-14.5 -13.5t-16 -5.5q-7 0 -12.5 4t-5.5 12q0 20 13.5 35t30.5 15q5 0 12 -3.5t7 -13.5zM167 69q0 -10 -8 -18l-48.5 -48.5t-41 -42t-38.5 -41t-41 -45.5q-2 -2 -7.5 -3.5t-5.5 5.5q0 5 3 8q45 51 85.5 103t80.5 106q4 7 11 7
q3 0 6.5 -5.5t3.5 -25.5z" />
    <glyph glyph-name="less" unicode="&#x3c;" horiz-adv-x="400" 
d="M406 222q-17 -5 -48.5 -14.5t-67 -20t-70 -21t-58.5 -17.5q19 -6 43.5 -15.5t49.5 -20t46 -20.5t33 -17l-13 -24q-16 10 -42 23.5t-55 26.5t-57 24.5t-47 17.5l3 13q9 1 43.5 11.5t77.5 25t87 30t72 26.5z" />
    <glyph glyph-name="equal" unicode="=" horiz-adv-x="400" 
d="M372 170q-10 1 -36.5 2t-58 1.5t-61.5 0.5t-47 -1l9 24q12 0 40.5 -1t61 -2t61 -1.5t40.5 0.5zM346 103q-11 1 -39.5 2t-61.5 1.5t-64.5 0.5t-48.5 -1l14 24q12 -1 41 -2.5t61.5 -2t62.5 -0.5t44 1z" />
    <glyph glyph-name="greater" unicode="&#x3e;" horiz-adv-x="400" 
d="M398 144q-9 -2 -43.5 -12.5t-78 -25t-88 -30t-73.5 -26.5l-4 28q19 6 51.5 16t68.5 20.5t70.5 20.5t58.5 17q-18 4 -44 12t-52 17t-48.5 17.5t-32.5 12.5l18 18q16 -7 41 -17t53.5 -20t56.5 -19.5t50 -15.5z" />
    <glyph glyph-name="question" unicode="?" horiz-adv-x="260" 
d="M383 349q0 -28 -19.5 -52.5t-47.5 -45.5t-59.5 -38t-55.5 -31q-15 -9 -30.5 -18.5t-28.5 -21.5t-21.5 -28.5t-9.5 -38.5q-2 -2 -3 -3.5t-3 4.5q-2 33 1 54.5t12 36t25 24.5t40 21q34 15 66.5 33t67.5 41q26 17 41.5 35.5t15.5 41.5q0 19 -7.5 31.5t-20 20t-28.5 11
t-32 3.5q-42 0 -76.5 -18t-54.5 -54q-2 -4 -4 -2.5t0 5.5q2 5 5.5 10t6.5 10q14 21 42.5 42t72.5 21q21 0 40 -5t33.5 -15.5t23 -28t8.5 -41.5v-4zM139 15q0 -4 -5 -8t-11.5 -7.5t-14 -5.5t-11.5 -2t-9.5 7.5t-4.5 15.5q1 11 8.5 16t18.5 17q6 4 9 -3q7 -12 14 -18t6 -12z
" />
    <glyph glyph-name="at" unicode="@" horiz-adv-x="582" 
d="M658 335q0 -36 -17.5 -76.5t-47.5 -75t-70 -57t-85 -22.5q-29 0 -41.5 11.5t-12.5 32.5q0 18 9 43.5t22 52.5q-55 -66 -90 -99t-59 -33q-17 0 -17 22q0 15 9.5 37.5t25 47.5t35.5 48t42 39q23 17 46.5 25.5t50.5 8.5q19 0 37 -5q8 -3 -1 -9q-8 -5 -19 -24
q-23 -45 -40 -83t-17 -63q0 -21 12 -30t33 -9q28 0 57.5 17.5t53 47t38.5 68.5t15 83q0 57 -38 88t-101 31q-65 0 -129.5 -29t-116 -77t-83.5 -110t-32 -127q0 -69 41 -108.5t110 -39.5q46 0 86.5 14.5t72 35.5t51.5 43.5t24 39.5q2 4 4 3.5t2 -5.5q-5 -22 -29.5 -48
t-60.5 -48t-79.5 -37t-85.5 -15q-35 0 -66.5 9.5t-56 29t-39 48t-14.5 66.5q0 39 17 81.5t46 83t68.5 76.5t85 63.5t95 43.5t98.5 16q33 0 62.5 -7.5t51 -22.5t34.5 -39t13 -57zM460 330q-3 1 -7.5 1h-7.5q-26 0 -51 -22q-20 -17 -39.5 -41t-35 -48t-25 -45t-9.5 -32
q0 -9 7 -9q12 0 37.5 25.5t52.5 59t49.5 65.5t28.5 46z" />
    <glyph glyph-name="A" unicode="A" horiz-adv-x="726" 
d="M792 542q0 -4 -0.5 -8.5t-1.5 -9.5q-9 10 -19 10q-30 0 -42 -16.5t-24 -52.5q-20 -57 -36 -115.5t-27 -111t-17 -95.5t-6 -70q0 -49 22 -49q6 0 15.5 3.5t20 8.5t20 11t15.5 11q2 1 3 -2t-1 -5q-9 -8 -24 -17.5t-32.5 -18t-34.5 -14.5t-29 -6q-16 0 -22.5 12t-6.5 33
t6.5 55.5t14.5 76.5q2 8 -4 16.5t-17 8.5q-6 0 -19 -0.5t-30 -1t-36.5 -1t-39.5 -0.5q-56 -48 -103.5 -86.5t-91 -64.5t-84 -40t-80.5 -14q-66 0 -95.5 35.5t-29.5 92.5q0 19 5.5 40.5t15.5 41.5t24 38t31 31q5 3 4 2t2 -2q-24 -25 -38.5 -53t-14.5 -66q0 -63 35.5 -90.5
t98.5 -27.5q20 0 48 4t65.5 20.5t85.5 49t108 89.5q-21 0 -29 2t-8 6q1 4 7.5 9.5t9.5 6.5q7 -4 14.5 -6t20.5 -3q75 69 144 147t130 156q-17 -11 -39 -17.5t-44 -6.5q-27 0 -55.5 4.5t-57.5 9.5t-56 9.5t-51 4.5q-54 0 -88.5 -30.5t-44.5 -109.5q-1 -4 -3.5 -3.5t-2.5 2.5
q0 36 11 69t32.5 58.5t53.5 40.5t74 15q32 0 62.5 -7.5t59.5 -15.5q29 -9 57.5 -16.5t56.5 -7.5q11 0 25 3t22 12q17 20 28 27t22 7q15 0 15 -18zM669 435q1 3 -0.5 4.5t-5.5 -2.5q-23 -29 -50 -60t-54.5 -61t-54.5 -58.5t-51 -50.5q10 -1 21.5 -1.5t16.5 -0.5h46t56 2
q11 48 30.5 108t45.5 120z" />
    <glyph glyph-name="B" unicode="B" horiz-adv-x="764" 
d="M765 227q0 -39 -24.5 -75t-60.5 -66t-77 -52t-74 -33q-28 -9 -53.5 -13t-51.5 -4q-25 0 -47.5 5t-40 12.5t-27.5 16t-10 14.5q0 27 -7 42q4 5 7 1q19 -29 64.5 -47t97.5 -18q34 0 67 6.5t58 17.5q36 16 60 38.5t39 46.5t21 47.5t6 41.5q0 31 -15.5 56t-45.5 36
q-15 5 -33.5 9t-37.5 4q-13 0 -26.5 -2.5t-24.5 -8.5q-4 -1 -4 4q0 3 10.5 13t16.5 14q30 4 55.5 17.5t44.5 31.5t29.5 39t10.5 40q0 83 -134 86q-14 -17 -42.5 -59t-64 -97.5t-75 -117.5t-75.5 -119t-65.5 -103t-44.5 -68q-6 0 -6 4q4 23 0 29q-14 27 -27.5 56.5t-24 60
t-17 60.5t-6.5 58q0 60 36 115.5t97.5 98.5t143 69.5t173.5 28.5q78 105 135 105q14 0 25 -9t11 -25q0 -4 -2.5 -3t-2.5 3q-5 17 -27 17t-54 -18.5t-75 -69.5q31 -1 61.5 -4t54.5 -11.5t38.5 -24t14.5 -42.5q0 -17 -6 -35t-21 -36t-40 -35.5t-63 -33.5q-7 -4 1 -4
q33 0 61.5 -6.5t49.5 -20t32.5 -34.5t11.5 -49zM540 547q-80 0 -152.5 -21.5t-127.5 -58t-88 -84.5t-33 -102q0 -25 6.5 -54.5t17.5 -59t24.5 -56t27.5 -45.5q3 -3 6 -3q5 0 10 6q8 9 27 37.5t44.5 69.5t57 90t64 99t64.5 97.5t60 84.5h-8z" />
    <glyph glyph-name="C" unicode="C" horiz-adv-x="671" 
d="M674 492q0 -2 -4 -6.5t-9.5 -13.5t-11 -22.5t-9.5 -34.5q0 -4 -3 -5.5t-3 4.5q0 5 1 9.5t1 9.5q0 18 -10 32.5t-28 25.5t-42.5 17t-53.5 6q-45 0 -99.5 -18.5t-105.5 -54.5q-33 -23 -61.5 -53.5t-50 -67.5t-34 -80t-12.5 -92q0 -103 54 -159.5t157 -56.5q60 0 113.5 24.5
t93.5 61t63.5 78t23.5 76.5q0 3 -1 7t-1 6q0 4 3 4t10.5 -13t7.5 -28q0 -22 -25.5 -61.5t-72 -78t-112.5 -67t-148 -28.5q-53 0 -94 15.5t-69 43t-42 65t-14 81.5q0 46 17.5 93.5t48 92t71.5 84.5t88 72q60 40 123.5 63.5t126.5 23.5q28 0 49 -7t35.5 -16t21.5 -18.5
t7 -13.5z" />
    <glyph glyph-name="D" unicode="D" horiz-adv-x="728" 
d="M828 655q0 -13 -5.5 -21t-12.5 -8t-10 3t-8 6q-4 4 -11 7.5t-22 3.5q-78 0 -145 -94q29 -7 59.5 -20t56 -35.5t41.5 -57.5t16 -87t-20.5 -99.5t-54.5 -88t-78.5 -73t-93 -55.5t-97 -35.5t-90.5 -12.5q-20 0 -45 1.5t-48 3.5t-41.5 4t-25.5 3q-45 -4 -81.5 -5t-59.5 -1
q-5 0 -6 2t-1 5q8 5 26.5 14t32.5 14q14 0 29.5 -1t30 -2t27 -2.5t21.5 -2.5q35 11 63 31.5t52 49t45 62.5t41 72q17 31 40 72.5t48 83.5t48.5 79t41.5 60q-14 4 -34.5 8.5t-45 8.5t-51.5 6.5t-54 2.5q-47 0 -97 -4.5t-99 -15t-92.5 -28t-76.5 -43t-52.5 -60t-19.5 -79.5
q0 -20 4 -33.5t12 -28.5q3 -5 -3 -6q-18 6 -39 6q-6 7 -9 21t-3 32q0 50 35.5 96t100 81t153.5 55.5t197 20.5q57 0 106 -4.5t83 -12.5q48 66 98.5 92t86.5 26q23 0 30 -6t7 -11zM732 342q0 42 -11 73t-29.5 52.5t-42.5 35.5t-49 23q-17 -22 -40 -63t-48.5 -90.5t-51.5 -101
t-49 -94.5q-24 -45 -70.5 -87.5t-109.5 -71.5q30 -6 71.5 -11t78.5 -5q47 0 108 21.5t115 64t91 106t37 148.5z" />
    <glyph glyph-name="F" unicode="F" horiz-adv-x="589" 
d="M364 189q3 2 7 5.5t9 7.5q26 2 51.5 3.5t45.5 2.5q34 69 63 135t58 139q-35 20 -74.5 33.5t-78.5 13.5q-33 0 -61.5 -8t-49.5 -26.5t-33 -48t-12 -71.5q0 -33 11.5 -47t22.5 -21q0 -6 -10 -6q-7 0 -19 -4t-20 -4q-9 0 -20 14t-11 44q0 16 16.5 51.5t46.5 72.5t72.5 65
t93.5 28q47 0 91.5 -20t85.5 -44t78.5 -44t71.5 -20q26 0 43 13.5t17 37.5q0 15 -5.5 23.5t-12.5 14.5t-12.5 10.5t-5.5 10.5q0 5 10 9t21 4q14 0 20 -12t6 -25q0 -29 -12.5 -51.5t-30 -38t-36.5 -23.5t-32 -8q-29 0 -71 21t-90 49q-29 -67 -59.5 -135t-62.5 -131q17 1 37 2
t39 2t34.5 1.5t23.5 0.5q17 0 20.5 -3.5t3.5 -12.5q0 -5 -2 -12.5t-5 -14.5t-7 -12t-8 -5q4 9 4 17q0 14 -15.5 17t-60.5 3h-32.5t-38.5 -1q-30 -57 -61.5 -103.5t-69 -78.5t-83 -49.5t-103.5 -17.5q-70 0 -110 35t-40 98q0 36 9 63.5t26 57.5q2 2 5 0.5t2 -6.5
q-11 -19 -18 -41.5t-7 -45.5q0 -25 13.5 -47t37 -38.5t54 -26t63.5 -9.5q48 0 89 17t75 46t60.5 66.5t46.5 78.5l-103 -5z" />
    <glyph glyph-name="G" unicode="G" horiz-adv-x="642" 
d="M595 272q-18 -34 -43 -80t-48 -86q66 20 136.5 36.5t140.5 31.5q10 0 8.5 -4t-8.5 -6q-69 -13 -141.5 -31.5t-142.5 -38.5q-26 -45 -58.5 -97.5t-70.5 -103t-80.5 -94t-87.5 -70.5q-29 -17 -61.5 -27t-65.5 -10q-20 0 -40.5 4.5t-37.5 14t-28 25.5t-11 40q0 28 14 54
t36.5 49t51 43t58.5 36t58 29t49 22q51 21 108.5 41.5t114.5 37.5l40 68t41 67q-88 -58 -157.5 -85t-121.5 -27q-15 0 -34 3.5t-35.5 13t-28 25.5t-11.5 40q0 29 17.5 67.5t49 79t77 80.5t101 71t120.5 50t137 19q94 0 94 -46q0 -4 -5 -4q-15 22 -38 30.5t-62 8.5
q-51 0 -104 -18t-102.5 -48.5t-93.5 -69.5t-77 -81t-52 -84t-19 -77q0 -6 1.5 -14.5t8.5 -17t22 -14t42 -5.5q39 0 111 26.5t172 96.5q17 26 33.5 50.5t33.5 48.5q22 31 47.5 62.5t49.5 57.5t44.5 42.5t32.5 16.5q15 0 15 -18q0 -17 -15.5 -43t-42.5 -57t-63.5 -64.5
t-78.5 -66.5zM786 504q0 7 -7 7q-9 0 -25.5 -15t-37 -40t-44 -58.5t-45.5 -70.5q-6 -10 -12 -19.5t-11 -19.5q34 28 67 62.5t58.5 65.5t41 55t15.5 33zM440 77q-55 -17 -110.5 -36.5t-103.5 -39.5q-33 -14 -73 -34t-74 -47t-57 -61.5t-23 -76.5q0 -40 26 -59t62 -19
q51 0 107 36q37 24 72 65t66 88t58 95.5t50 88.5z" />
    <glyph glyph-name="L" unicode="L" horiz-adv-x="926" 
d="M935 204q0 -51 -13.5 -95t-43 -76.5t-75 -50.5t-109.5 -18q-33 0 -69 4.5t-81.5 16t-103.5 31.5t-136 51q-33 -32 -73 -53t-88 -21q-32 0 -58 6t-45 21t-29.5 40.5t-10.5 63.5q0 20 6 41.5t13 33.5l7 3q57 -29 129 -61.5t148 -61.5q17 17 39 50t43 68t38 64.5t25 40.5
q34 56 72 103t77 81t78 53t76 19q26 0 42 -11.5t16 -26.5q-5 -5 -13.5 -15.5t-13.5 -21.5q-4 -7 -7 0q-7 17 -24 34t-43 17q-19 0 -41 -8.5t-53 -38.5t-74 -87.5t-104 -154.5q-24 -38 -56 -85t-68 -85q58 -23 105.5 -36.5t87.5 -21t75.5 -9.5t69.5 -2q60 0 110 14t86 41.5
t56 67.5t20 91q0 57 -29 98q-3 5 -1 6t5 -2q17 -17 27.5 -50.5t10.5 -67.5zM296 71q-8 3 -26 10t-40.5 16.5t-47.5 20.5t-49 22q-28 12 -46 18.5t-27 6.5q-6 0 -12 -16.5t-6 -34.5q0 -54 25.5 -82t86.5 -28q33 0 72 17.5t70 49.5z" />
    <glyph glyph-name="M" unicode="M" horiz-adv-x="921" 
d="M559 554q-2 -7 -9.5 -17t-12.5 -11q-22 -1 -54.5 -3t-68.5 -5t-72.5 -8t-66.5 -12q-32 -8 -48.5 -28.5t-16.5 -45.5q0 -16 3 -25t7 -14.5t7 -8.5t3 -7q-12 -5 -24 -16q-12 7 -18 17.5t-6 28.5q0 10 4 25.5t15.5 32t33.5 32.5t58 28q22 7 55 14.5t69 13.5t69.5 10t57.5 4
q15 0 15 -5zM1009 587q0 -6 -6 -12q-14 -13 -40 -35.5t-61 -48.5q-11 -13 -37.5 -51t-54 -92t-48.5 -120t-21 -135q0 -25 13 -46.5t47 -21.5q30 0 58.5 20t50 51.5t35 70t13.5 75.5q0 6 3 5.5t3 -10.5q-2 -54 -22 -98.5t-49.5 -76.5t-64.5 -49.5t-68 -17.5q-32 0 -49 20
t-17 56q0 58 45 162t139 241q1 1 0.5 2.5t-2.5 -0.5q-18 -11 -53 -33.5t-82.5 -57.5t-106 -84.5t-124.5 -115.5q-6 -35 -17 -69.5t-25 -61.5t-31 -43.5t-35 -16.5t-18 22q0 6 2 18t12 31t29.5 45t54.5 60q1 8 1 15v16q0 94 -0.5 151t-3.5 95q-12 -26 -35 -69.5t-54.5 -94.5
t-69.5 -103.5t-80.5 -94.5t-88.5 -69t-92 -27q-39 0 -61.5 11t-34 28.5t-14 39t-2.5 42.5q0 5 0.5 13t2.5 14q2 8 8 0q-1 -3 -1.5 -7.5t-0.5 -13.5q0 -12 5.5 -26.5t18.5 -28t33 -22.5t50 -9q24 0 51 5t57.5 20.5t64.5 45t72.5 78t80.5 119t89 169.5q2 5 3 11t3 11
q4 4 15.5 11t16.5 7q3 0 3 -7v-89q0 -20 -0.5 -49.5t-1 -60.5t-2 -59t-3.5 -44q55 55 133 124t192 154q15 11 47 38t75 67q3 1 10 2t14.5 2t14.5 1.5t11 0.5zM483 161q-36 -38 -57.5 -75.5t-21.5 -62.5q0 -5 2 -10.5t9 -5.5q16 0 37 36.5t31 117.5z" />
    <glyph glyph-name="N" unicode="N" horiz-adv-x="669" 
d="M883 517q0 -34 -17 -73q-3 -5 -5.5 -4t-3.5 4q5 10 9 23.5t4 24.5q0 22 -17.5 27.5t-38.5 5.5q-9 0 -23.5 -1t-30.5 -2.5t-32.5 -3t-29.5 -3.5q28 -35 33.5 -58t5.5 -45q0 -34 -15.5 -80t-41 -95.5t-58.5 -97.5t-69 -86t-72.5 -61.5t-67.5 -23.5q-21 0 -32.5 12.5t-17 32
t-6.5 42t-1 43.5q0 36 -0.5 83.5t-1 92t-1.5 78.5t-2 45q-2 23 -9.5 36.5t-18.5 13.5q-47 0 -179 -205q-45 -71 -78 -129t-54 -106t-31.5 -88t-10.5 -75q-2 -8 -7 -1q-5 28 -8.5 47t-3.5 24q0 21 41.5 105t143.5 230q37 52 70 97.5t61.5 79.5t52 53.5t40.5 19.5
q11 0 17.5 -8t10 -18.5t4.5 -22.5t1 -19q0 -36 -1 -80.5t-1 -86.5q0 -79 3 -130t10.5 -81t20 -42t32.5 -12q21 0 48 21t55 56t55 80.5t48 94.5t34 98.5t13 91.5q0 20 -4 39.5t-17 33.5q-18 -2 -41 -4t-34 -2t-28 2t-33 6.5t-27.5 12.5t-11.5 19q0 12 18 18t46 6
q25 0 51 -7.5t54 -31.5q10 2 29.5 6t41.5 8.5t43.5 7.5t36.5 3q31 0 40 -8t9 -33zM674 531q-14 16 -39.5 23t-47.5 7q-51 0 -51 -22q0 -11 15.5 -15t32.5 -4q20 0 44.5 3t45.5 8z" />
    <glyph glyph-name="O" unicode="O" horiz-adv-x="621" 
d="M470 522q13 -2 27.5 -8t15.5 -11q-8 2 -20 3t-17 1q-43 0 -83.5 -18t-77 -47.5t-67 -68t-52 -79.5t-34 -81.5t-12.5 -74.5q0 -58 31 -92t103 -34q48 0 97 18.5t95.5 50.5t87 74.5t70.5 91.5t47.5 101t17.5 102q0 27 -8 50t-24 40.5t-40.5 27.5t-56.5 10q-35 0 -66 -7.5
t-56 -17.5q-5 1 0 9q25 10 65 20t82 10q75 0 114 -32t39 -101q0 -43 -20.5 -94t-56.5 -103t-84.5 -101t-104.5 -86.5t-116.5 -60.5t-120.5 -23q-75 0 -112.5 35t-37.5 96q0 63 32.5 128t85 121t120 96.5t137.5 54.5z" />
    <glyph glyph-name="P" unicode="P" horiz-adv-x="495" 
d="M683 450q0 -53 -29.5 -99.5t-73 -81t-94 -54.5t-93.5 -20q-18 0 -35.5 3.5t-32.5 9.5t-26 14t-15 17q-12 -24 -26 -49t-27.5 -47t-24.5 -39t-18 -25q-10 -12 -24 -23t-28 -21q61 0 99.5 0.5t64 3.5t42.5 8.5t37 15.5q5 2 6.5 0t-3.5 -6q-21 -14 -46 -25.5t-48 -16.5
q-7 -2 -28 -4.5t-50 -5.5t-61 -5.5t-59.5 -4.5t-47.5 -2.5t-24 0.5q0 3 2.5 8t6.5 10.5t7.5 10t6.5 7.5q5 3 16 3.5t25 0.5q29 0 53 11t44 46q27 46 62 106.5t71.5 122.5t70.5 120t60 101q-26 -5 -60 -12.5t-69 -14.5t-68.5 -12t-59.5 -5q-48 0 -76.5 11t-28.5 37
q0 17 7 32.5t24 42.5q5 9 8.5 7.5t0.5 -6.5q-5 -9 -6.5 -19t-1.5 -17q0 -15 11 -25t28.5 -17t39.5 -10t45 -3q45 0 98 5.5t113 15.5q26 45 40 66.5t26 24.5q6 -1 16 -4t12 -8q-29 -5 -45.5 -24.5t-36.5 -53.5q11 2 29 3.5t29 1.5q85 0 125 -26t40 -80zM629 421
q0 60 -37 91.5t-101 31.5h-16.5t-21.5 -2q-37 -63 -77 -135t-89 -163q13 11 25 18t20 9q5 0 8.5 -8.5t12.5 -18t26.5 -18t52.5 -8.5q45 0 81 17t62 45t40 65t14 76z" />
    <glyph glyph-name="Q" unicode="Q" horiz-adv-x="687" 
d="M238 -30q35 -5 109 -21.5t197 -47.5q61 -16 100 -25t67 -13.5t49.5 -6t47.5 -1.5q45 0 81.5 16.5t53.5 58.5q7 10 7 -3q-5 -14 -19.5 -33.5t-37.5 -37t-55 -30t-72 -12.5q-23 0 -45.5 2.5t-49.5 8t-62 14.5t-82 23q-53 15 -110.5 32t-114.5 31t-111.5 23.5t-100.5 9.5
q-40 0 -66.5 -13.5t-51.5 -37.5q-5 0 -5 6q32 35 69 54.5t72 19.5q24 0 48 -2t48 -2q91 0 173 30.5t144 83.5t98 126t36 158q0 72 -44.5 113t-120.5 41q-59 0 -120 -23.5t-111 -67.5t-82 -108t-32 -145q0 -67 23.5 -113t71.5 -62q-1 -3 -1.5 -3h-5.5q-63 10 -99 51.5
t-36 104.5q0 43 15.5 88.5t43.5 89t68 81.5t89 67t105.5 46t118.5 17q36 0 66.5 -10t53 -29.5t35 -49t12.5 -68.5q0 -77 -37.5 -150.5t-101.5 -133t-149 -97.5t-179 -43q-8 -1 -7.5 -3.5t7.5 -3.5z" />
    <glyph glyph-name="S" unicode="S" horiz-adv-x="582" 
d="M81 44q-14 19 -19.5 36.5t-4.5 26.5q0 4 7 20t15.5 34t17 35t11.5 25q2 2 4.5 1t2.5 -5q-15 -33 -17.5 -69t13.5 -75q52 48 103.5 92.5t96 82t79 66t51.5 43.5q-3 37 11 73t40 64.5t62 46t77 17.5q13 0 22.5 -5.5t9.5 -19.5q0 -12 -12 -24q-28 -24 -71 -57t-101 -76
q10 -45 18.5 -93.5t8.5 -93.5q0 -58 -20 -101.5t-53 -72.5t-75 -43.5t-85 -14.5q-125 0 -186 78q-32 -30 -63 -67.5t-55.5 -79.5t-39.5 -85.5t-15 -85.5q0 -23 12.5 -40t32.5 -15q4 1 5 -4.5t-4 -6.5q-15 -2 -27.5 8t-21.5 26t-14 35t-5 35q0 34 10.5 65.5t33 65.5
t58.5 72.5t87 85.5zM443 346q-51 -41 -138 -114.5t-190 -167.5q29 -55 74.5 -75.5t100.5 -19.5q28 0 59.5 9t57.5 29t43 52.5t17 80.5q0 22 -4 54t-8.5 63.5l-8 56t-3.5 32.5zM623 513q0 8 -5 12.5t-24 4.5q-26 0 -49.5 -7t-41 -24t-25 -44.5t-0.5 -67.5q19 14 43 31.5
t45.5 34.5t37.5 33t19 27z" />
    <glyph glyph-name="T" unicode="T" horiz-adv-x="778" 
d="M1000 580q0 -11 -11 -19q-11 -7 -19.5 -15.5l-17 -17t-18 -15t-22.5 -9.5q-36 -9 -81 -9q-35 0 -76 4.5t-79 10.5q-69 -41 -129.5 -95t-106 -111.5t-72 -114.5t-26.5 -105q0 -18 6 -35.5t20.5 -31t39 -21.5t62.5 -8q49 0 94 12.5t83.5 32t70 44t54 49t34.5 46.5t12 36
q0 5 -0.5 10t-2.5 9q0 3 5 3q3 -4 5.5 -12t2.5 -22q0 -21 -15.5 -45t-41.5 -48.5t-61.5 -47t-75.5 -39.5t-82.5 -27.5t-83.5 -10.5q-35 0 -66.5 9t-55 25.5t-37.5 41t-14 54.5q0 45 25 94.5t72.5 100.5t116.5 104t157 106q-61 10 -125 16.5t-131 6.5q-70 0 -122 -26.5
t-90.5 -73.5t-66 -111t-48.5 -139q-3 -7 -5 -2q3 16 3 24q0 13 -9 18t-9 8q0 5 5.5 21.5t16.5 39.5t26.5 49.5t35.5 52.5q17 21 42 49t66 52.5t102.5 42t153.5 17.5q54 0 107 -4.5t101 -8.5q22 11 48.5 23t54.5 22t56.5 16.5t55.5 6.5q33 0 49.5 -9.5t16.5 -23.5zM971 565
q0 7 -7 13t-17.5 10t-23 6t-23.5 2q-29 0 -72.5 -13t-94.5 -39q24 -2 59 -4t68 -2q39 0 61 2.5t33 6.5t14 8.5t3 9.5z" />
    <glyph glyph-name="U" unicode="U" horiz-adv-x="717" 
d="M944 635q0 -3 -4 -8t-10 -9.5t-12.5 -8t-10.5 -3.5q-10 5 -22 8.5t-23 3.5q-20 0 -35.5 -11t-26.5 -22q-28 -30 -57 -71.5t-56 -88.5t-50.5 -98t-41.5 -100.5t-28 -94.5t-10 -80q0 -30 10 -50t35 -20q51 0 107 41.5t114 113.5q2 5 5.5 3t2.5 -7q-30 -37 -63 -68.5
t-66.5 -55t-66.5 -36.5t-64 -13q-41 0 -54.5 20.5t-13.5 51.5q0 18 4 44t13 60q5 17 -4 19t-25 -11q-35 -30 -73.5 -56.5t-79.5 -46t-85 -30.5t-90 -11q-56 0 -77.5 24t-21.5 71q0 32 17.5 70t45.5 77t63.5 78t72 73t70 61.5t58.5 44.5q-29 -11 -61.5 -20t-65.5 -16
t-64 -10.5t-58 -3.5q-16 0 -31.5 2.5t-28 9.5t-20 19t-7.5 31q0 26 16 54t33 43q5 2 5 -4q-23 -25 -23 -53q0 -24 11.5 -38t29 -21.5t38 -10t38.5 -2.5q64 0 117 10.5t80 20.5l15 12t20.5 16t20 14t14.5 6q1 -4 1 -8v-7q-2 -6 -12 -11.5t-39 -19.5q-71 -50 -127.5 -102.5
t-96.5 -103.5t-61.5 -98.5t-21.5 -89.5q0 -52 28.5 -72t74.5 -20q43 0 90 16.5t92 43.5t84 62.5t68 74.5q20 36 47 82.5t56 92.5t57 87t50 67q27 31 49 51t40 30.5t33 13.5t29 2q12 -2 22.5 -6.5t10.5 -7.5z" />
    <glyph glyph-name="V" unicode="V" horiz-adv-x="695" 
d="M931 520q0 -40 -38 -89t-95.5 -99.5t-124 -98t-123.5 -85.5q13 -15 22.5 -31t16.5 -29q0 -60 -29.5 -114t-77 -95.5t-107 -65.5t-119.5 -24q-71 0 -115.5 23.5t-70 59t-34.5 78t-9 80.5q0 49 16 107.5t45 117t69.5 113.5t90.5 97t107 67.5t118 25.5q28 0 46.5 -8t29 -21
t15 -29.5t4.5 -33.5q0 -19 -7.5 -49t-20.5 -66t-29 -75.5t-33.5 -78.5t-34 -74.5t-30.5 -63.5q24 26 56.5 48t65.5 43q-2 4 -4 8.5t-4 8.5q-2 3 0 3.5t5 -1.5q2 -3 5 -6t6 -8q57 36 116.5 78t108.5 87.5t80 92.5t31 93q0 56 -42 56q-10 0 -20 -3q-4 0 -3 7q13 5 30 11.5
t25 6.5q19 0 31 -6t19 -15.5t9.5 -21t2.5 -21.5zM563 64q0 21 -6 39t-17 39q-20 -12 -43 -28t-44 -35.5t-38.5 -44t-27.5 -54.5v-16q-12 8 -21 18.5t-10 25.5q20 33 50.5 84t59.5 108.5t50 114.5t21 101q0 54 -28.5 77t-73.5 23q-52 0 -100.5 -19.5t-91 -52.5t-77 -77
t-59.5 -93t-38.5 -100t-13.5 -99q0 -49 11.5 -96.5t38.5 -85t71.5 -60.5t110.5 -23q46 0 95 17.5t89.5 50.5t66 80t25.5 106z" />
    <glyph glyph-name="W" unicode="W" horiz-adv-x="984" 
d="M1274 487q0 -42 -22.5 -91t-59 -96t-82 -87t-90.5 -63q-5 -2 -7.5 0.5t4.5 6.5q49 28 93 70t76 89.5t51 94.5t19 86q0 40 -18.5 65.5t-56 39.5t-93.5 19t-132 5q-38 0 -65 -1.5t-36 -1.5q-3 0 -3 -1t4 -2q7 -2 18.5 -5.5t23.5 -7.5t23.5 -8.5t17.5 -8.5q7 -4 17 -16.5
t19.5 -31.5t16 -44.5t6.5 -56.5q0 -53 -16 -111.5t-43.5 -116t-64 -109t-79 -91t-87.5 -63t-89 -23.5q-58 0 -83 33.5t-27 100.5q-3 92 -7.5 135t-28.5 43q-21 0 -56 -37t-101 -107q-31 -33 -53 -54t-38 -32t-28 -15t-22 -4q-43 0 -43 43q0 30 18.5 71t47.5 86.5t64 93
t67.5 90.5t58 78.5t35.5 56.5q4 5 -17 5q-29 -1 -76.5 -8t-99.5 -21.5t-99.5 -37.5t-74.5 -56q-15 -19 -24 -45.5t-9 -49.5q0 -18 3.5 -32t8 -23.5t8 -16.5t3.5 -11q0 -6 -5.5 -9t-10.5 -3q-8 0 -13 8.5t-8 20.5t-4 24.5t-1 20.5q0 37 12.5 64.5t34.5 55.5q35 44 81 74.5
t97.5 49.5t107 28t110.5 11q9 0 10.5 1.5t4.5 1.5q4 0 4.5 -4t-1.5 -6q-93 -130 -150 -222t-88.5 -154t-42 -98.5t-10.5 -54.5q0 -19 12 -19q9 0 18 3t23 14t34.5 31t52.5 55q11 12 31.5 34t45 47t49.5 49t45 39q16 13 33 13q14 0 20 -22.5t6 -88.5q1 -66 8 -110.5
t20.5 -71.5t34 -38t47.5 -11q36 0 72 22t69 60t61.5 88t49.5 105.5t33 113.5t12 111q0 22 -3 45t-9.5 44t-17 37.5t-26.5 25.5q-33 17 -75 17q-23 0 -45 -2.5t-27 -2.5q-8 0 -8 8q0 1 3 5t6.5 8.5t8 8.5t7.5 5q17 2 42 2.5t42 0.5q101 0 180 -6t133.5 -23.5t83 -49
t28.5 -82.5z" />
    <glyph glyph-name="X" unicode="X" horiz-adv-x="659" 
d="M783 539q-11 -21 -14 -35q-1 -5 -4 -5t-4 5q-3 21 -40 21q-21 0 -47 -14t-58.5 -42t-74 -70t-94.5 -98q5 -70 10 -122.5t16 -88t30.5 -53t53.5 -17.5q30 0 58.5 10.5t48.5 24.5q3 1 4.5 -1.5t-0.5 -4.5q-36 -24 -76.5 -40t-94.5 -16q-26 0 -40.5 15.5t-22.5 48.5
t-11.5 86t-6.5 128q-45 -51 -91 -100.5t-90.5 -88.5t-87 -63t-79.5 -24q-20 0 -37.5 8.5t-25.5 30.5q1 14 -1.5 30t-5.5 28q1 5 3.5 5t4.5 -5q8 -23 29.5 -41t49.5 -18q40 0 76.5 17t75 49t82.5 79t98 106q-2 26 -4.5 56t-5.5 58.5t-6 53.5t-6 41q-2 13 -6 19t-14 6
q-11 0 -30 -10.5t-44 -28.5t-54 -42t-59 -51q-2 0 -3.5 2.5t0.5 4.5q36 35 72.5 65t70 52.5t62 35t49.5 12.5q3 0 3 -6q0 -5 -1 -13t-1 -17q0 -15 0.5 -38t1 -50.5t2 -59t3.5 -62.5q64 69 112 117t83.5 77.5t60.5 42.5t44 13q20 0 27 -5t9 -18z" />
    <glyph glyph-name="Y" unicode="Y" horiz-adv-x="356" 
d="M364 214q-9 -6 -24.5 -16.5t-23.5 -18.5q-3 -3 -1.5 -11t-3.5 -12q-9 -2 -25.5 -5t-24.5 -7q-63 -47 -100 -88.5t-56 -77.5t-24.5 -68.5t-5.5 -61.5q0 -6 1 -12.5t3 -11.5q0 -3 -7 -1q-1 2 -2 7t-2 11q-2 11 -6.5 16.5t-18.5 10.5q-4 1 -4 6q5 58 58 128t167 156
q15 45 22 96.5t7 96.5q0 42 -5.5 77t-19.5 60.5t-38.5 39.5t-62.5 14q-34 0 -61.5 -12.5t-46 -33.5t-28 -49t-7.5 -59q0 -3 -4 -3q-9 0 -18.5 5.5t-9.5 16.5q1 28 24.5 57.5t57 53.5t72.5 39t71 15q37 0 61 -15.5t37.5 -41t18.5 -59.5t5 -71q0 -21 -2 -46t-5 -50.5t-7 -50.5
t-8 -46q134 83 203.5 147.5t69.5 124.5q0 18 -9.5 33t-32.5 13q-3 0 -3.5 3.5t2.5 5.5q10 11 23 20t24 14q23 0 33.5 -13.5t10.5 -33.5q0 -52 -67.5 -128t-206.5 -164z" />
    <glyph glyph-name="Z" unicode="Z" horiz-adv-x="551" 
d="M246 117q35 27 88.5 68.5t106.5 89.5h-115q-2 2 4 6t17 8q20 2 51.5 2.5t60.5 -1.5q29 25 60.5 53.5t62 57.5t58.5 57.5t52 54.5q-16 -6 -34.5 -10.5t-38.5 -4.5q-24 0 -52 2l-70 5q-43 3 -78.5 5t-67.5 2q-9 0 -33.5 -26t-56.5 -97q-5 -4 -8.5 -4t-0.5 6q37 75 67 118.5
t44 50.5q32 0 72.5 -5t88.5 -12q35 -5 73 -9t80 -4q37 0 55.5 14t18.5 37q0 6 -1 13t-4 14q9 7 21 9.5t20 2.5q6 0 6 -11q0 -5 -2.5 -11.5t-9 -15t-19 -21t-31.5 -29.5q-67 -64 -128.5 -124t-127.5 -118q88 -2 140 -3t81 -3q-2 -6 -12 -6q-11 0 -35 -0.5t-55 -1t-67 -1
t-71 -0.5q-33 -30 -58.5 -51.5t-48 -39.5t-45 -35.5t-48.5 -38.5q78 -53 152.5 -90t140 -60.5t119 -34.5t89.5 -11q66 2 108.5 26t62.5 66q2 0 2 -7q-1 -5 -1.5 -8.5t-0.5 -5.5q-18 -31 -68.5 -56t-134.5 -25q-65 0 -131.5 13t-132 36t-127.5 54.5t-119 69.5
q-29 -22 -51.5 -37l-31.5 -21l-5 4q3 4 8 9t13.5 12t22 16.5t33.5 23.5q-5 2 -9 5.5t-4 5.5q2 15 5.5 31t8.5 23q10 -8 20 -15.5t21 -16.5z" />
    <glyph glyph-name="bracketleft" unicode="[" horiz-adv-x="406" 
d="M543 584q-34 0 -45 -2t-16 -11q-45 -79 -85.5 -152.5t-80 -145t-79.5 -143.5t-83 -147q-4 -7 -4 -12q0 -12 17 -12q38 0 67.5 2t44.5 2q8 0 8.5 -6t-9.5 -6q-60 0 -103.5 -1t-75.5 -1q-2 0 -5.5 1t-3.5 4q0 4 6.5 9.5t17.5 24.5q93 155 174 307t146 277q4 8 3.5 16.5
t8.5 8.5q15 0 32 -1.5t37 -1.5q27 0 50 1.5t41 1.5q8 0 8 -6q0 -7 -8 -7h-63z" />
    <glyph glyph-name="backslash" unicode="\" horiz-adv-x="368" 
d="M414 -157q0 -9 -8 -6.5t-11 7.5q-60 196 -108 351q-20 66 -39 129t-34 112.5t-24.5 80t-9.5 31.5q0 8 8.5 6.5t11.5 -9.5q10 -30 18 -57t16 -52q15 -48 34 -109.5t39 -127.5q20 -65 39 -128t34 -112.5t24.5 -81t9.5 -34.5z" />
    <glyph glyph-name="bracketright" unicode="]" horiz-adv-x="406" 
d="M89 -37q34 0 45 2t16 11q45 79 85.5 152.5t80 145t79.5 143.5t83 147q4 7 4 12q0 12 -17 12q-38 0 -64 -2t-41 -2q-8 0 -8.5 6t9.5 6q60 0 100 1t72 1q2 0 5.5 -1t3.5 -4q0 -4 -6.5 -9.5t-17.5 -24.5q-46 -77 -90 -154.5t-85 -152t-77.5 -145t-67.5 -132.5
q-4 -8 -3.5 -16.5t-8.5 -8.5q-15 0 -32 1.5t-37 1.5q-27 0 -54 -1.5t-45 -1.5q-8 0 -8 6q0 7 8 7h71z" />
    <glyph glyph-name="asciicircum" unicode="^" horiz-adv-x="400" 
d="M397 390q-2 -15 -4 -39.5t-4 -50.5t-2.5 -49.5t0.5 -36.5l-20 -5q0 16 0.5 36t2 40.5t3 40t3.5 35.5q-24 -26 -63.5 -64t-84.5 -80l-24 6q57 48 105.5 93t75.5 76z" />
    <glyph glyph-name="underscore" unicode="_" horiz-adv-x="500" 
d="M0 -50v17h500v-17h-500z" />
    <glyph glyph-name="grave" unicode="`" 
d="M151 279q0 -6 -5 -1q-13 23 -26 48t-23 45q-3 6 -3 11q0 4 4 9.5t6 5.5q3 0 4 -4q4 -11 10 -25.5t12.5 -30t12 -31t8.5 -27.5z" />
    <glyph glyph-name="a" unicode="a" horiz-adv-x="242" 
d="M342 115q-51 -61 -90.5 -90t-70.5 -29q-14 0 -24.5 7.5t-10.5 33.5q0 6 2.5 23.5t9.5 33.5q-13 -19 -28.5 -37t-31 -32t-29.5 -22.5t-23 -8.5q-19 0 -19 22q0 19 20 57q14 28 38.5 59.5t52.5 55.5q17 14 32.5 23t29.5 9q17 0 31 -11q5 4 11 8.5l10 7.5q2 0 2 -2t-4 -9
q-29 -48 -50.5 -89t-21.5 -83q0 -31 22 -31q21 0 57.5 26.5t79.5 83.5q1 2 4.5 2t0.5 -8zM208 186q-6 7 -14 10t-15 3q-17 0 -37 -19t-37 -46.5t-28 -57t-11 -50.5q0 -8 7 -8q8 0 33 24t54 64q14 20 26 39t22 41z" />
    <glyph glyph-name="b" unicode="b" horiz-adv-x="258" 
d="M629 629q0 -48 -101 -149.5t-312 -252.5q-9 -8 -9 -10q22 -13 52.5 -19.5t62.5 -6.5q16 0 35 2.5t33 7.5q5 1 5.5 -1.5t-4.5 -4.5q-13 -5 -35.5 -9t-41.5 -4t-42 1.5t-43 6.5q-2 0 -2 -3v-5q0 -22 -9 -45t-22.5 -44.5t-30.5 -39.5t-33 -30q-18 -14 -35.5 -21.5
t-27.5 -7.5q-14 0 -18.5 8.5t-4.5 20.5q0 13 3.5 27t12 31.5t21 41t30.5 56.5q74 136 142 230.5t126.5 154t106.5 86t83 26.5q28 0 43 -12.5t15 -34.5zM598 605q0 49 -58 49q-30 0 -71 -25t-90 -79.5t-105 -140t-116 -205.5q-3 -6 0.5 -4.5t5.5 3.5q38 26 85.5 59t95.5 70
t93.5 75t81 74.5t57 68t21.5 55.5zM207 174q0 17 -11 20.5t-20 3.5q-6 0 -14.5 -5t-14.5 -12q-8 -12 -18.5 -31t-20 -39.5t-16 -39.5t-6.5 -29q0 -16 7 -19.5t11 -3.5q8 0 25 11q15 12 29.5 29t25 36t17 39t6.5 40z" />
    <glyph glyph-name="c" unicode="c" horiz-adv-x="219" 
d="M291 110q-8 -7 -22.5 -19t-32.5 -26t-36.5 -27.5t-34.5 -22.5q-19 -11 -35.5 -16t-30.5 -5q-49 0 -49 48q0 11 5.5 28.5t13.5 32.5q15 29 30 47.5t32.5 31t38.5 21t47 16.5q6 2 9 2q6 0 13.5 -10.5t7.5 -16.5t-6.5 -16t-11.5 -13q-6 16 -14.5 26t-22.5 10t-32 -15.5
t-34 -38.5t-27 -50.5t-11 -52.5q0 -16 6.5 -25.5t20.5 -9.5t27.5 5t32.5 16q10 6 25 17t31.5 23.5t32 25t24.5 20.5q5 5 6 1.5t-3 -7.5z" />
    <glyph glyph-name="d" unicode="d" horiz-adv-x="221" 
d="M69 110q23 33 58.5 63t78.5 45q5 2 5 9q0 8 -7 41.5t-24.5 86t-47 121.5t-74.5 148q-6 10 -6 23q0 5 2.5 15t6.5 15q1 0 3 -2q24 -38 52 -94t51.5 -120t39.5 -132t16 -129q0 -29 -6 -56.5t-16.5 -51.5t-26 -44t-34.5 -33q-17 -11 -30.5 -15.5t-30.5 -4.5q-39 0 -39 37
q0 18 9.5 41t19.5 37zM208 212q-23 -7 -46.5 -29.5t-43 -50.5t-32 -56t-12.5 -46q0 -24 19 -24q21 0 42.5 19t38.5 47.5t28 62.5t11 64q0 13 -5 13z" />
    <glyph glyph-name="e" unicode="e" horiz-adv-x="212" 
d="M294 107q2 2 4 -0.5t0 -4.5q-27 -26 -55.5 -46t-55 -34t-50 -21t-39.5 -7q-30 -1 -48 9.5t-18 33.5q0 6 2 16t5 18q9 24 27 50.5t39.5 48.5t45.5 36t45 14q12 0 21.5 -3.5t9.5 -17.5q0 -15 -14.5 -30.5t-36.5 -30t-48 -27t-48 -22.5q-10 -21 -10 -42q0 -18 16 -26.5
t36 -8.5q19 0 42 9t45.5 23t44.5 30.5t40 32.5zM195 190q0 7 -4 12.5t-12 5.5q-11 0 -25 -10.5t-27.5 -26.5t-25 -35.5t-17.5 -36.5q17 7 36 15.5t33 19.5q19 14 30.5 26.5t11.5 29.5z" />
    <glyph glyph-name="g" unicode="g" horiz-adv-x="275" 
d="M357 101q-21 -30 -72.5 -62.5t-136.5 -61.5q-66 -118 -122.5 -191t-106.5 -113.5t-94 -55t-86 -14.5q-24 0 -49.5 7.5t-46 22.5t-33.5 37.5t-13 52.5q0 40 24 69.5t67.5 52.5t103 41.5t130.5 36.5q52 14 107 28.5t103 29.5q15 28 30 56.5t28 57.5q-14 -17 -30.5 -34.5
t-35.5 -32.5t-38 -24.5t-37 -9.5q-14 0 -19.5 6.5t-5.5 17.5q0 22 17 51t41.5 56t51 49.5t45.5 32.5q14 8 27.5 10t24.5 2q16 0 23 -4q11 23 18 34t14 11q5 0 10 -3t5 -8t-8 -20l-16 -30q-23 -40 -56 -97t-68 -115q81 26 129 58.5t67 59.5q3 4 5.5 2.5t2.5 -6.5zM247 202
q-11 4 -27 4q-25 0 -41 -12q-23 -17 -43.5 -40.5t-36.5 -48t-25 -46.5t-9 -35q0 -9 9 -9q19 0 42 17t46.5 44t45.5 60t39 66zM126 -28q-49 -16 -107 -31t-118 -32q-103 -28 -165.5 -56.5t-91.5 -70.5q-14 -20 -20 -39.5t-6 -33.5q0 -27 9.5 -45t25 -29t34.5 -15.5t37 -4.5
q55 0 109 31t105 81t98.5 114.5t89.5 130.5z" />
    <glyph glyph-name="h" unicode="h" horiz-adv-x="270" 
d="M668 605q0 -9 -6 -1q-11 23 -33 31.5t-45 8.5q-32 0 -59 -9.5t-51 -25.5t-45.5 -36.5t-41.5 -41.5t-44 -53t-49.5 -69t-50 -76t-46 -74.5t-38.5 -64.5t-27 -45q23 18 46 35.5t42 29.5q7 5 14 5q8 0 10 -6t2 -12q0 -14 -9.5 -40t-22 -54.5t-25 -54t-18.5 -37.5
q22 10 47.5 23t51 28.5t50 33t44.5 36.5q3 3 5 0t-2 -7q-34 -32 -88.5 -65.5t-112.5 -59.5q-27 -51 -61.5 -108t-75 -112t-85.5 -106t-93 -89t-98 -61t-100 -23q-55 0 -83 30.5t-28 79.5q0 45 26.5 84.5t67 73t89.5 60t94 46.5q26 12 65 26.5t82.5 30.5t88 33t81.5 33
q14 27 26.5 56.5t22.5 54.5t15.5 43t5.5 22q0 7 -6 7q-4 0 -12 -5q-24 -15 -41.5 -31t-31.5 -35t-27.5 -41.5t-29.5 -52.5q-2 -4 -8.5 -9t-13.5 -9.5t-13.5 -7.5t-7.5 -3q-2 0 -2 3q0 4 1 5q30 57 71 128.5t89 145t101 143.5t107 124q23 23 49.5 47.5t54 44.5t54.5 32.5
t52 12.5q27 0 49.5 -13t23.5 -42q0 -4 1 -8.5t2 -8.5zM131 -8q-42 -17 -85.5 -33.5t-84 -32t-76.5 -29.5t-62 -26q-39 -18 -84 -41.5t-83.5 -53.5t-64 -66.5t-25.5 -81.5q0 -26 9 -45t24 -32t34.5 -19.5t40.5 -6.5q46 0 101 26t114 82t120.5 144.5t121.5 214.5z" />
    <glyph glyph-name="j" unicode="j" horiz-adv-x="203" 
d="M231 355q0 -12 -10.5 -24t-23.5 -12q-12 0 -12 12q0 13 9.5 25t23.5 12q13 0 13 -13zM320 166q-21 -14 -55.5 -36t-71.5 -46t-72 -49t-57 -45q-105 -189 -190.5 -278.5t-157.5 -89.5q-34 0 -53 15.5t-19 31.5q0 7 0.5 17.5t0.5 21.5t0.5 20t0.5 12q2 7 5.5 4.5t1.5 -7.5
q0 -35 15 -59t59 -24q48 0 89 25t79 68.5t74.5 101.5t75.5 125q-4 0 -8 6q-4 5 -7.5 10.5t-3.5 7.5q0 4 5 7l40 21q7 17 13.5 35.5t11.5 35.5t8.5 31.5t3.5 23.5q0 15 -4.5 25t-18.5 10q-13 0 -22.5 -2.5t-18 -7t-17 -11t-19.5 -14.5q-7 -3 -8 -0.5t3 6.5q11 8 26 18
t31.5 19t33.5 15t31 6q19 0 19 -21q0 -8 -4.5 -25.5t-12 -40t-17.5 -47t-22 -46.5q23 12 53 29t61.5 35.5t61.5 37t53 33.5q8 4 8 1t-5 -6z" />
    <glyph glyph-name="k" unicode="k" horiz-adv-x="219" 
d="M102 78q-4 4 -5.5 8.5t-6.5 -3.5q-12 -19 -22 -35.5t-19 -30.5q-5 -8 -15.5 -14.5t-20.5 -10.5q-6 0 -6 4t3 9q22 36 54 88.5t65 107.5t63.5 103t49.5 75q27 38 56.5 76.5t60.5 74t64 67t67 54.5q22 15 48.5 24.5t49.5 9.5q21 0 35 -7t22.5 -16.5t12 -19t3.5 -13.5
q0 -6 -4 -7t-4 3q0 5 -0.5 7t-6.5 7q-27 17 -73 17q-49 0 -93 -27.5t-83 -69t-72.5 -91t-60.5 -92.5q-16 -26 -36.5 -61t-39 -67t-31 -55t-13.5 -26q-7 -14 4 -3q9 9 21 18.5t24 17t24 12.5t22 5q17 0 17 -14q0 -10 -7 -22.5t-14 -21.5q-19 -24 -44.5 -38.5t-54.5 -23.5
q-5 -2 -4 -3.5t3 -5.5q36 -60 78.5 -124.5t92.5 -117.5t108 -87.5t126 -34.5q36 0 76.5 12t71.5 40q4 4 6.5 1.5t-1.5 -6.5q-37 -32 -83 -43.5t-88 -11.5q-58 0 -111 24.5t-102.5 68.5t-96.5 105t-92 133zM221 184q0 5 -3.5 8.5t-7.5 3.5q-9 0 -26.5 -12.5t-35 -28.5
t-30.5 -31.5t-13 -22.5q0 -3 3 -3q13 0 32.5 8.5t37.5 21t30.5 27.5t12.5 29z" />
    <glyph glyph-name="l" unicode="l" horiz-adv-x="214" 
d="M514 520q0 -37 -12 -72.5t-38 -62.5q-63 -69 -139.5 -118t-170.5 -82q-12 -22 -25 -45t-24 -45.5t-18 -44t-7 -39.5q0 -35 33 -35q21 0 48 14t53.5 34t50 42.5t37.5 39.5q2 3 6.5 2t-1.5 -8q-20 -21 -47 -46t-56.5 -46t-60.5 -35.5t-59 -14.5q-20 0 -32.5 9t-12.5 36
q0 20 9 44.5t20 46.5t20 37.5t9 18.5q0 1 -3 4l-7 7l-7 7t-3 4l11 5q18 5 25 8t9 5q60 102 122.5 187.5t128.5 154.5q12 13 28 26.5t32.5 24.5t30 18.5t19.5 7.5q7 0 12.5 -8t9.5 -21t6.5 -28.5t2.5 -31.5zM490 492q0 9 -2.5 23.5t-7 29t-11.5 25t-16 10.5
q-12 0 -31.5 -15.5t-41 -39.5t-43 -51.5t-37.5 -51.5q-33 -48 -68.5 -104.5t-70.5 -120.5q78 27 153.5 73.5t132.5 109.5q25 28 34 55t9 57z" />
    <glyph glyph-name="m" unicode="m" horiz-adv-x="364" 
d="M211 122q-1 -1 2.5 1.5t8 6t9 7.5t6.5 6q11 13 25.5 26t29.5 23t29 16t24 6q15 0 15 -13q0 -12 -10 -26q-14 -23 -27 -46.5t-22.5 -44t-15 -36.5t-5.5 -25q0 -20 19 -20q16 0 40 14.5t49 35.5t47 45t34 44q3 5 6.5 3.5t-0.5 -7.5q-15 -23 -39 -49.5t-52.5 -50t-59 -39
t-58.5 -15.5q-14 0 -20.5 7.5t-6.5 18.5q0 7 3 17.5t8 19.5q8 14 19.5 34t22 40t18 36.5t7.5 23.5q0 8 -7 8q-6 0 -17.5 -8t-25 -19.5t-27 -25t-23.5 -24.5q-9 -7 -19 -18.5t-13 -16.5q-17 -29 -27.5 -46.5t-21.5 -17.5q-13 0 -13 10q0 3 6 11q13 19 24.5 38.5t20.5 36.5
t14.5 29t5.5 15q0 6 -5 6q-6 0 -17.5 -7.5t-27 -21t-32.5 -31.5t-33 -39q-20 -26 -26.5 -44t-14.5 -18q-5 0 -7.5 6.5t-2.5 10.5q0 2 2 10q2 4 15.5 28.5t30.5 55t34 59.5t26 41q4 6 10 6q5 0 9.5 -7.5t4.5 -11.5q0 -1 -2 -7q-14 -19 -26.5 -40t-25.5 -44q-2 -3 -1.5 -3
t2.5 2q16 17 34 32.5t35.5 27.5t31.5 19.5t22 7.5q9 0 9 -9q0 -5 -3.5 -12.5t-8 -16.5t-9.5 -17t-7 -14z" />
    <glyph glyph-name="n" unicode="n" horiz-adv-x="272" 
d="M335 28q-12 -14 -28.5 -25.5t-35 -20t-37 -13.5t-34.5 -5q-27 0 -40.5 8.5t-13.5 36.5q0 12 6 29.5t16 39.5t22 46.5t24 49.5q4 11 0.5 13.5t-10.5 -2.5q-18 -12 -38 -31t-39.5 -41.5t-37 -48t-32.5 -50.5q-5 -8 -15.5 -14t-17.5 -6q-5 0 -5 5q5 10 16.5 31.5t23.5 44.5
q7 13 15 29t16 32.5t14.5 31t9.5 23.5q3 8 10.5 13t22.5 13q6 3 9 3t3 -4q0 -3 -3.5 -10l-10.5 -21l-18.5 -37t-27.5 -58q18 22 39.5 45t42.5 42t38.5 31t27.5 12q3 0 9 -6t6 -11q0 -6 -12 -25t-26.5 -45t-26.5 -56t-12 -58q0 -21 8 -32t31 -11q13 0 28 5t29 13.5t27 18.5
t22 20q4 5 5.5 1t-0.5 -6z" />
    <glyph glyph-name="o" unicode="o" horiz-adv-x="235" 
d="M358 176q-16 -5 -35 -8.5t-34 -3.5q-16 0 -35 1.5t-37 5.5q-6 -42 -24.5 -75.5t-50.5 -65.5q-40 -37 -72 -37q-20 0 -28 12.5t-8 30.5q0 14 5 33.5t13 32.5q11 20 36 42t70 51q14 9 22 14t12 8t5.5 3.5t2.5 0.5q2 0 4 -2.5t4 -4.5q3 -13 13 -21t23 -12.5t26.5 -6
t24.5 -1.5q14 0 31.5 2t31.5 6q4 0 4.5 -1.5t-4.5 -3.5zM185 160q0 9 -1.5 20t-11.5 11q-8 0 -17 -6q-40 -23 -61 -62.5t-21 -84.5q0 -13 4.5 -21.5t12.5 -8.5q19 0 36 16.5t30 40.5t21 50t8 45z" />
    <glyph glyph-name="p" unicode="p" horiz-adv-x="260" 
d="M344 118q-27 -22 -64.5 -41t-79 -35t-84.5 -30t-81 -26q-72 -127 -118 -208t-72 -131t-36 -75.5t-10 -41.5q0 -14 7.5 -19.5t22.5 -5.5q9 0 21.5 2t26 4.5t25.5 6t20 6.5q5 2 6 -3t-4 -6q-8 -2 -27.5 -7t-42 -10t-44 -9t-33.5 -4q-11 0 -18 4.5t-7 17.5q0 20 16.5 51.5
t49 85t81.5 134.5t114 200q-18 -5 -36 -11.5t-25 -6.5q-8 0 -8 7q0 10 7 15t16 7q12 2 28 5t30 6q37 66 68.5 131t69.5 125q4 5 9 6.5t12 1.5q12 0 12 -7q0 -4 -8 -19t-21 -36.5t-29.5 -48l-33 -53t-31.5 -51t-25 -42.5l16 4q19 5 45.5 20t50 37.5t40 50.5t16.5 58
q0 16 -4 21.5t-4 9.5t6 4q1 0 8.5 -4t15.5 -9.5t14.5 -10t6.5 -5.5q0 -26 -17 -50t-42 -45.5t-52.5 -39t-49.5 -29.5q67 18 132 44t110 62q4 4 6.5 1t-2.5 -8z" />
    <glyph glyph-name="q" unicode="q" horiz-adv-x="268" 
d="M177 102q3 5 1 5t-5 -3q-11 -14 -26 -32.5t-32.5 -35.5t-35.5 -28.5t-36 -11.5q-14 0 -18.5 7.5t-4.5 16.5q0 28 19.5 60t50 60.5t67 49t71.5 26.5q9 1 13 7l12 21t8 8q3 1 9 2t10 1q9 0 9 -6q0 -3 -2 -6.5t-4 -8.5q-20 -34 -44 -73t-48.5 -78t-46.5 -75t-38 -65
q-12 -21 -29.5 -53.5t-36.5 -69t-38.5 -73.5t-36 -67t-28.5 -50t-16 -22q-12 -7 -24 -15t-12 -12q0 -2 3 -3t5 0q41 6 86.5 24t90 45t84.5 62.5t71 76t49 85t18 90.5q0 15 -1.5 31.5t-8.5 30t-21 22.5t-38 9q-4 0 -8 -0.5t-9 -1.5q-1 0 -2 1.5t1 2.5q4 2 11 3t12 1
q24 0 39 -10t24 -26t12.5 -35t3.5 -38q0 -39 -19 -81t-50.5 -83t-74 -79.5t-89 -70t-95 -55.5t-93.5 -36q-9 -2 -19.5 -4t-18.5 -2q-7 0 -13.5 6.5t-6.5 11.5q0 3 5 5q17 3 28.5 10.5t21.5 18.5q5 6 20.5 31t38.5 63t51 87t59 103.5t63 112t62 113.5zM229 200q5 8 -5 8
q-20 0 -48.5 -19.5t-55.5 -48t-46 -61t-19 -59.5q0 -5 3 -7t5 -2q12 0 27 12t29.5 28t27 32t19.5 24q7 9 16 21.5t18 25.5t16.5 25t12.5 21z" />
    <glyph glyph-name="r" unicode="r" horiz-adv-x="213" 
d="M339 225q0 -7 -7.5 -20t-10.5 -21q-2 -5 -4 -3.5t-2 3.5q1 2 1 8q0 11 -8 21t-31 10q-38 0 -65 -18t-53 -46q-11 -11 -38 -48t-66 -112q-4 -7 -9 -7q-2 0 -8 9t-6 16t5 15l22.5 37.5t27.5 47.5t28 49.5t24 41.5q4 9 7 9q2 0 10.5 -5.5t8.5 -13.5q0 -2 -8.5 -16t-16.5 -27
q0 -5 4 -1q13 14 32 32t40 33.5t42.5 26t41.5 10.5q17 0 28 -9.5t11 -21.5z" />
    <glyph glyph-name="s" unicode="s" horiz-adv-x="187" 
d="M230 227q0 -5 -3.5 -10.5t-6.5 -9.5q-6 -6 -6 4q0 5 -8.5 12.5t-25.5 7.5q-14 0 -22.5 -4.5t-14.5 -16.5t-9.5 -34.5t-6.5 -58.5q-4 -43 -10 -77.5t-26 -66.5q-12 -19 -32 -39t-45 -36.5t-53.5 -27t-57.5 -10.5q-18 0 -27 4q-11 4 -19.5 22.5t-12.5 35.5q-1 5 2 6t5 -4
q8 -23 30 -33.5t47 -10.5q39 0 66.5 14t46 39.5t29 61.5t16.5 80q2 20 5 42.5l5 37.5q3 18 20.5 44.5t59.5 46.5q12 5 24 5q16 0 23 -7t7 -17z" />
    <glyph glyph-name="t" unicode="t" horiz-adv-x="211" 
d="M345 208q5 -1 2 -4t-5 -3l-188 -3q-12 -19 -23.5 -41.5t-21 -44.5t-15 -40.5t-5.5 -30.5q0 -28 26 -28q15 0 31.5 4.5t32 10.5t28 12.5t18.5 10.5q2 1 3.5 -2t-2.5 -7q-11 -6 -27.5 -14t-35.5 -15.5t-39 -12.5t-38 -5q-41 0 -41 35q0 8 3.5 20.5t11.5 29.5q14 29 31 57.5
t38 60.5h-16.5t-18.5 -0.5t-16 -0.5h-10q-5 0 -1 5t6 6h63q14 21 31 43.5t33.5 43t31 37.5t22.5 26q2 2 5 1t3 -3q-26 -33 -52.5 -68.5t-51.5 -80.5h42h48t49.5 0.5t47.5 0.5z" />
    <glyph glyph-name="v" unicode="v" horiz-adv-x="274" 
d="M301 250q1 -18 -8.5 -44t-26.5 -54t-39.5 -56t-46.5 -50t-48 -36.5t-45 -15.5q-17 -1 -26.5 5.5t-9.5 26.5q0 16 10.5 39t28 46t39.5 44t45 34q-23 2 -49.5 4t-44.5 0q-5 0 -11.5 -5t-13.5 -12t-13.5 -15.5t-10.5 -15.5q-3 -4 -4.5 -2.5t-1.5 4.5q9 15 20.5 28.5t23 23
t21.5 15.5t16 6q9 0 22 -1t27 -2.5t27 -2.5t22 -1q4 0 5.5 1t3.5 1q3 1 3 -2t-7 -6q-17 -9 -37.5 -27.5t-38 -42t-29.5 -49.5t-12 -49q0 -26 27 -23q17 0 42 22.5t48.5 55.5t39.5 71.5t15 71.5q0 11 -2 16.5t-5 7.5t-5 2.5t-2 1.5q0 3 9.5 6.5t13.5 3.5q27 0 28 -25z" />
    <glyph glyph-name="w" unicode="w" horiz-adv-x="350" 
d="M468 171q-25 -29 -49 -42.5t-46 -13.5q-35 0 -59 32q-8 -30 -20.5 -56.5t-28.5 -47t-35 -32t-41 -11.5q-20 0 -28 10t-8 26q0 8 2.5 18t6.5 21q-10 -13 -22.5 -26t-25.5 -24t-26 -18t-24 -7q-14 0 -18 6.5t-4 19.5q0 4 3.5 14.5t9 22.5l11 24t9.5 20q10 19 19.5 36
t20.5 34q8 11 10.5 14.5t7.5 6.5q9 5 22.5 11.5t17.5 6.5q3 0 3 -4q-20 -24 -38 -50.5t-31.5 -51t-21.5 -46t-8 -34.5t11 -13q7 0 19.5 8.5t28.5 27t34.5 48t36.5 70.5q4 10 12 10q5 0 12.5 -6.5t7.5 -12.5q0 -3 -7 -14q-20 -34 -36 -66t-16 -50q0 -22 20 -22q14 0 30 10
t30.5 30t25.5 50t15 70q-4 10 -6.5 21t-2.5 18q0 1 3 5t6.5 8t7.5 7t6 3q6 0 6 -6q3 -51 20 -76t43 -25q36 0 78 50q2 3 4 1t2 -5z" />
    <glyph glyph-name="x" unicode="x" horiz-adv-x="276" 
d="M314 189q0 -6 -5 -3q-4 5 -9 6.5t-16 1.5t-41.5 -18t-76.5 -66q-3 -14 -5 -30.5t-2 -27.5q0 -43 44 -43q42 0 71 17q2 0 2.5 -2.5t-2.5 -4.5q-17 -8 -43.5 -16.5t-51.5 -8.5q-20 0 -37 9.5t-17 29.5q0 18 10 52q-36 -36 -69 -63.5t-54 -27.5q-12 0 -20 7q0 9 4 19t6 14
t4 3t1 -4q1 -7 5 -10t17 -3q10 0 24 7t28.5 18.5t29 25t26.5 26.5q2 11 4.5 24.5t4.5 27t3.5 24.5t1.5 17q0 11 -10.5 13.5t-40.5 1.5q-5 2 0 7q13 0 27 1t26 2.5t20.5 3t11.5 1.5q7 0 7 -6q-5 -19 -12 -45t-12 -47q30 29 56 50.5t38 30.5q22 17 38 17q12 0 14 -9
q-2 -5 -2 -12t2 -10z" />
    <glyph glyph-name="y" unicode="y" horiz-adv-x="190" 
d="M282 243q0 -11 -13 -25q-37 -45 -74.5 -86.5t-70.5 -84.5q-83 -108 -137 -187.5t-85.5 -139t-44 -103t-12.5 -80.5q0 -24 5 -42.5t25 -31.5q3 -2 3 -7t-8 0q-5 5 -14.5 12.5t-20.5 15.5q-11 7 -20 22t-9 36q0 32 14 68.5t47 89.5t87.5 129.5t135.5 188.5q-42 -18 -48 -18
q-5 0 -5 5q0 11 5 26.5t16 48.5l11.5 34.5t12 39t9.5 36.5t4 27q5 2 12 2.5t12 0.5q15 0 15 -7q0 -9 -5 -22q-7 -17 -16 -40t-17 -46.5t-13.5 -43.5t-5.5 -32q0 -7 5 -7q8 0 16 6q27 35 54.5 70t49.5 66.5t36 57t14 41.5q8 0 19 -6t11 -14z" />
    <glyph glyph-name="z" unicode="z" horiz-adv-x="265" 
d="M553 -92q-28 -23 -55.5 -32t-56.5 -9q-51 0 -95.5 15t-86 37.5t-80 50t-76.5 51.5q-17 -11 -34.5 -17t-38.5 -6q-6 0 -15 1.5t-17.5 5.5t-15 11t-6.5 19q0 16 19 24t40 8q18 0 39.5 -5t47.5 -19q24 19 54.5 48t75.5 80q-23 6 -46.5 10t-44.5 4q-12 0 -28 -3.5t-25 -14.5
q-5 -5 -6.5 -2t1.5 6q14 17 25 37q4 8 10 10t15 2q17 0 47.5 -5t72.5 -18q11 12 18 19.5t17 18.5q4 4 6.5 0.5t-1.5 -7.5q-42 -45 -85 -94.5t-97 -94.5q34 -18 76 -46t85.5 -54t85 -45t73.5 -19q54 0 97 40q8 4 8.5 0.5t-3.5 -7.5zM96 26q-23 15 -41.5 24t-34.5 9
q-8 0 -15 -4.5t-7 -16.5q0 -15 12 -23.5t28 -8.5q14 0 29.5 5t28.5 15z" />
    <glyph glyph-name="braceleft" unicode="{" horiz-adv-x="445" 
d="M598 595q-4 0 -7 2t-11 2q-20 0 -37.5 -10t-40.5 -39q-35 -41 -56.5 -75.5t-40.5 -61.5t-41.5 -47t-59.5 -33q-5 -2 -5 -4t1 -2t2 -1q25 -13 25 -43q0 -26 -19.5 -64t-43 -78.5t-43 -79t-19.5 -66.5q0 -20 8.5 -34t31.5 -14q7 0 7 -4.5t-8 -4.5q-32 0 -56.5 19.5
t-24.5 52.5q0 18 11.5 42t28.5 50.5t37 54t37 53t28.5 47t11.5 35.5q0 16 -12 24t-30 8q-9 0 -22.5 -3t-21.5 -3t-8 4q0 5 6 12.5t13 7.5q19 -6 38 -6q7 0 18 2.5t23.5 10t26 22t26.5 38.5q10 20 18.5 38t18.5 36t22.5 37t31.5 41q20 22 41 30.5t47 11.5q11 2 21.5 3t25.5 1
q8 0 8.5 -6t-7.5 -6z" />
    <glyph glyph-name="bar" unicode="|" horiz-adv-x="222" 
d="M148 -250v1000h20v-1000h-20z" />
    <glyph glyph-name="braceright" unicode="}" horiz-adv-x="445" 
d="M331 295q0 -10 9 -14.5t24 -4.5q9 0 26 3.5t23 3.5q8 0 8 -4q0 -11 -6 -16.5t-13 -5.5q-20 6 -38 6q-8 0 -18.5 -2.5t-19.5 -7.5q-26 -15 -42.5 -39.5t-31 -55t-31.5 -66t-44 -72.5q-12 -16 -30.5 -30.5t-40.5 -25t-45.5 -17t-44.5 -6.5q-6 0 -6 3t8 4q33 4 60 23.5
t52 51.5q28 36 45 70.5t35.5 66t45 58t73.5 46.5q9 4 9.5 6t-4.5 4q-11 5 -18 15t-7 24q0 24 18 56.5t39 67t39 67.5t18 57q0 28 -30 36q-8 3 -6.5 6t6.5 3q12 0 22 -8t17 -20t11 -25.5t4 -23.5q0 -25 -18 -59t-40 -68t-40 -63t-18 -44z" />
    <glyph glyph-name="asciitilde" unicode="~" horiz-adv-x="400" 
d="M383 157q-13 -17 -28 -32t-41 -15q-17 0 -30.5 6t-27.5 13q-14 8 -28.5 13.5t-32.5 5.5t-29 -13t-17 -28l-18 17q9 17 25 32t44 15q16 0 32 -5.5t32 -12.5q15 -8 28.5 -13.5t24.5 -5.5q17 0 27.5 12.5t20.5 27.5l20 -20z" />
    <glyph glyph-name="uni00A0" unicode="&#xa0;" horiz-adv-x="200" 
 />
    <glyph glyph-name="Agrave" unicode="&#xc0;" horiz-adv-x="726" 
d="M792 542q0 -4 -0.5 -8.5t-1.5 -9.5q-9 10 -19 10q-30 0 -42 -16.5t-24 -52.5q-20 -57 -36 -115.5t-27 -111t-17 -95.5t-6 -70q0 -49 22 -49q6 0 15.5 3.5t20 8.5t20 11t15.5 11q2 1 3 -2t-1 -5q-9 -8 -24 -17.5t-32.5 -18t-34.5 -14.5t-29 -6q-16 0 -22.5 12t-6.5 33
t6.5 55.5t14.5 76.5q2 8 -4 16.5t-17 8.5q-6 0 -19 -0.5t-30 -1t-36.5 -1t-39.5 -0.5q-56 -48 -103.5 -86.5t-91 -64.5t-84 -40t-80.5 -14q-66 0 -95.5 35.5t-29.5 92.5q0 19 5.5 40.5t15.5 41.5t24 38t31 31q5 3 4 2t2 -2q-24 -25 -38.5 -53t-14.5 -66q0 -63 35.5 -90.5
t98.5 -27.5q20 0 48 4t65.5 20.5t85.5 49t108 89.5q-21 0 -29 2t-8 6q1 4 7.5 9.5t9.5 6.5q7 -4 14.5 -6t20.5 -3q75 69 144 147t130 156q-17 -11 -39 -17.5t-44 -6.5q-27 0 -55.5 4.5t-57.5 9.5t-56 9.5t-51 4.5q-54 0 -88.5 -30.5t-44.5 -109.5q-1 -4 -3.5 -3.5t-2.5 2.5
q0 36 11 69t32.5 58.5t53.5 40.5t74 15q32 0 62.5 -7.5t59.5 -15.5q29 -9 57.5 -16.5t56.5 -7.5q11 0 25 3t22 12q17 20 28 27t22 7q15 0 15 -18zM669 435q1 3 -0.5 4.5t-5.5 -2.5q-23 -29 -50 -60t-54.5 -61t-54.5 -58.5t-51 -50.5q10 -1 21.5 -1.5t16.5 -0.5h46t56 2
q11 48 30.5 108t45.5 120zM734 605q0 -6 -5 -1q-13 23 -26 48t-23 45q-3 6 -3 11q0 4 4 9.5t6 5.5q3 0 4 -4q4 -11 10 -25.5t12.5 -30t12 -31t8.5 -27.5z" />
    <glyph glyph-name="Aacute" unicode="&#xc1;" horiz-adv-x="726" 
d="M792 542q0 -4 -0.5 -8.5t-1.5 -9.5q-9 10 -19 10q-30 0 -42 -16.5t-24 -52.5q-20 -57 -36 -115.5t-27 -111t-17 -95.5t-6 -70q0 -49 22 -49q6 0 15.5 3.5t20 8.5t20 11t15.5 11q2 1 3 -2t-1 -5q-9 -8 -24 -17.5t-32.5 -18t-34.5 -14.5t-29 -6q-16 0 -22.5 12t-6.5 33
t6.5 55.5t14.5 76.5q2 8 -4 16.5t-17 8.5q-6 0 -19 -0.5t-30 -1t-36.5 -1t-39.5 -0.5q-56 -48 -103.5 -86.5t-91 -64.5t-84 -40t-80.5 -14q-66 0 -95.5 35.5t-29.5 92.5q0 19 5.5 40.5t15.5 41.5t24 38t31 31q5 3 4 2t2 -2q-24 -25 -38.5 -53t-14.5 -66q0 -63 35.5 -90.5
t98.5 -27.5q20 0 48 4t65.5 20.5t85.5 49t108 89.5q-21 0 -29 2t-8 6q1 4 7.5 9.5t9.5 6.5q7 -4 14.5 -6t20.5 -3q75 69 144 147t130 156q-17 -11 -39 -17.5t-44 -6.5q-27 0 -55.5 4.5t-57.5 9.5t-56 9.5t-51 4.5q-54 0 -88.5 -30.5t-44.5 -109.5q-1 -4 -3.5 -3.5t-2.5 2.5
q0 36 11 69t32.5 58.5t53.5 40.5t74 15q32 0 62.5 -7.5t59.5 -15.5q29 -9 57.5 -16.5t56.5 -7.5q11 0 25 3t22 12q17 20 28 27t22 7q15 0 15 -18zM669 435q1 3 -0.5 4.5t-5.5 -2.5q-23 -29 -50 -60t-54.5 -61t-54.5 -58.5t-51 -50.5q10 -1 21.5 -1.5t16.5 -0.5h46t56 2
q11 48 30.5 108t45.5 120zM865 703q0 -2 -3 -5q-35 -27 -76.5 -57t-83.5 -58q-5 -3 -6.5 -1.5t0.5 3.5q37 30 77.5 63t78.5 63q6 2 5 2q2 0 5 -3.5t3 -6.5z" />
    <glyph glyph-name="Acircumflex" unicode="&#xc2;" horiz-adv-x="726" 
d="M792 542q0 -4 -0.5 -8.5t-1.5 -9.5q-9 10 -19 10q-30 0 -42 -16.5t-24 -52.5q-20 -57 -36 -115.5t-27 -111t-17 -95.5t-6 -70q0 -49 22 -49q6 0 15.5 3.5t20 8.5t20 11t15.5 11q2 1 3 -2t-1 -5q-9 -8 -24 -17.5t-32.5 -18t-34.5 -14.5t-29 -6q-16 0 -22.5 12t-6.5 33
t6.5 55.5t14.5 76.5q2 8 -4 16.5t-17 8.5q-6 0 -19 -0.5t-30 -1t-36.5 -1t-39.5 -0.5q-56 -48 -103.5 -86.5t-91 -64.5t-84 -40t-80.5 -14q-66 0 -95.5 35.5t-29.5 92.5q0 19 5.5 40.5t15.5 41.5t24 38t31 31q5 3 4 2t2 -2q-24 -25 -38.5 -53t-14.5 -66q0 -63 35.5 -90.5
t98.5 -27.5q20 0 48 4t65.5 20.5t85.5 49t108 89.5q-21 0 -29 2t-8 6q1 4 7.5 9.5t9.5 6.5q7 -4 14.5 -6t20.5 -3q75 69 144 147t130 156q-17 -11 -39 -17.5t-44 -6.5q-27 0 -55.5 4.5t-57.5 9.5t-56 9.5t-51 4.5q-54 0 -88.5 -30.5t-44.5 -109.5q-1 -4 -3.5 -3.5t-2.5 2.5
q0 36 11 69t32.5 58.5t53.5 40.5t74 15q32 0 62.5 -7.5t59.5 -15.5q29 -9 57.5 -16.5t56.5 -7.5q11 0 25 3t22 12q17 20 28 27t22 7q15 0 15 -18zM669 435q1 3 -0.5 4.5t-5.5 -2.5q-23 -29 -50 -60t-54.5 -61t-54.5 -58.5t-51 -50.5q10 -1 21.5 -1.5t16.5 -0.5h46t56 2
q11 48 30.5 108t45.5 120zM837 615q0 -12 -4 -15q-3 -2 -8 -7t-8 -5t-3 7q0 20 -1 45t-2 45q0 6 -4 6q-2 0 -5 -3q-19 -17 -39.5 -38t-37.5 -40q-9 -11 -13 -11t-4 5t9 13q17 15 37 34t37 36q8 8 16 15.5t16 12.5q6 2 5 2q4 0 4 -5q1 -28 3 -54t2 -43z" />
    <glyph glyph-name="Atilde" unicode="&#xc3;" horiz-adv-x="726" 
d="M792 542q0 -4 -0.5 -8.5t-1.5 -9.5q-9 10 -19 10q-30 0 -42 -16.5t-24 -52.5q-20 -57 -36 -115.5t-27 -111t-17 -95.5t-6 -70q0 -49 22 -49q6 0 15.5 3.5t20 8.5t20 11t15.5 11q2 1 3 -2t-1 -5q-9 -8 -24 -17.5t-32.5 -18t-34.5 -14.5t-29 -6q-16 0 -22.5 12t-6.5 33
t6.5 55.5t14.5 76.5q2 8 -4 16.5t-17 8.5q-6 0 -19 -0.5t-30 -1t-36.5 -1t-39.5 -0.5q-56 -48 -103.5 -86.5t-91 -64.5t-84 -40t-80.5 -14q-66 0 -95.5 35.5t-29.5 92.5q0 19 5.5 40.5t15.5 41.5t24 38t31 31q5 3 4 2t2 -2q-24 -25 -38.5 -53t-14.5 -66q0 -63 35.5 -90.5
t98.5 -27.5q20 0 48 4t65.5 20.5t85.5 49t108 89.5q-21 0 -29 2t-8 6q1 4 7.5 9.5t9.5 6.5q7 -4 14.5 -6t20.5 -3q75 69 144 147t130 156q-17 -11 -39 -17.5t-44 -6.5q-27 0 -55.5 4.5t-57.5 9.5t-56 9.5t-51 4.5q-54 0 -88.5 -30.5t-44.5 -109.5q-1 -4 -3.5 -3.5t-2.5 2.5
q0 36 11 69t32.5 58.5t53.5 40.5t74 15q32 0 62.5 -7.5t59.5 -15.5q29 -9 57.5 -16.5t56.5 -7.5q11 0 25 3t22 12q17 20 28 27t22 7q15 0 15 -18zM669 435q1 3 -0.5 4.5t-5.5 -2.5q-23 -29 -50 -60t-54.5 -61t-54.5 -58.5t-51 -50.5q10 -1 21.5 -1.5t16.5 -0.5h46t56 2
q11 48 30.5 108t45.5 120zM856 657q-3 -23 -20 -42.5t-40 -19.5q-14 0 -26 8.5t-22.5 19t-20.5 19t-21 8.5q-8 0 -16.5 -5t-16.5 -12.5t-14.5 -15t-10.5 -13.5q-5 -7 -9 -5t3 11q8 11 23 25t29 25q13 10 26 10q11 0 21.5 -9t21 -19.5t21.5 -19.5t25 -9q17 0 27.5 14t10.5 30
q0 5 4.5 7.5t4.5 -7.5z" />
    <glyph glyph-name="Adieresis" unicode="&#xc4;" horiz-adv-x="726" 
d="M792 542q0 -4 -0.5 -8.5t-1.5 -9.5q-9 10 -19 10q-30 0 -42 -16.5t-24 -52.5q-20 -57 -36 -115.5t-27 -111t-17 -95.5t-6 -70q0 -49 22 -49q6 0 15.5 3.5t20 8.5t20 11t15.5 11q2 1 3 -2t-1 -5q-9 -8 -24 -17.5t-32.5 -18t-34.5 -14.5t-29 -6q-16 0 -22.5 12t-6.5 33
t6.5 55.5t14.5 76.5q2 8 -4 16.5t-17 8.5q-6 0 -19 -0.5t-30 -1t-36.5 -1t-39.5 -0.5q-56 -48 -103.5 -86.5t-91 -64.5t-84 -40t-80.5 -14q-66 0 -95.5 35.5t-29.5 92.5q0 19 5.5 40.5t15.5 41.5t24 38t31 31q5 3 4 2t2 -2q-24 -25 -38.5 -53t-14.5 -66q0 -63 35.5 -90.5
t98.5 -27.5q20 0 48 4t65.5 20.5t85.5 49t108 89.5q-21 0 -29 2t-8 6q1 4 7.5 9.5t9.5 6.5q7 -4 14.5 -6t20.5 -3q75 69 144 147t130 156q-17 -11 -39 -17.5t-44 -6.5q-27 0 -55.5 4.5t-57.5 9.5t-56 9.5t-51 4.5q-54 0 -88.5 -30.5t-44.5 -109.5q-1 -4 -3.5 -3.5t-2.5 2.5
q0 36 11 69t32.5 58.5t53.5 40.5t74 15q32 0 62.5 -7.5t59.5 -15.5q29 -9 57.5 -16.5t56.5 -7.5q11 0 25 3t22 12q17 20 28 27t22 7q15 0 15 -18zM669 435q1 3 -0.5 4.5t-5.5 -2.5q-23 -29 -50 -60t-54.5 -61t-54.5 -58.5t-51 -50.5q10 -1 21.5 -1.5t16.5 -0.5h46t56 2
q11 48 30.5 108t45.5 120zM829 648q0 -12 -10.5 -24t-23.5 -12q-12 0 -12 12q0 13 9.5 25t23.5 12q13 0 13 -13zM757 654q0 -12 -10.5 -24t-23.5 -12q-12 0 -12 12q0 13 9.5 25t23.5 12q13 0 13 -13z" />
    <glyph glyph-name="Amacron" unicode="&#x100;" horiz-adv-x="726" 
d="M792 542q0 -4 -0.5 -8.5t-1.5 -9.5q-9 10 -19 10q-30 0 -42 -16.5t-24 -52.5q-20 -57 -36 -115.5t-27 -111t-17 -95.5t-6 -70q0 -49 22 -49q6 0 15.5 3.5t20 8.5t20 11t15.5 11q2 1 3 -2t-1 -5q-9 -8 -24 -17.5t-32.5 -18t-34.5 -14.5t-29 -6q-16 0 -22.5 12t-6.5 33
t6.5 55.5t14.5 76.5q2 8 -4 16.5t-17 8.5q-6 0 -19 -0.5t-30 -1t-36.5 -1t-39.5 -0.5q-56 -48 -103.5 -86.5t-91 -64.5t-84 -40t-80.5 -14q-66 0 -95.5 35.5t-29.5 92.5q0 19 5.5 40.5t15.5 41.5t24 38t31 31q5 3 4 2t2 -2q-24 -25 -38.5 -53t-14.5 -66q0 -63 35.5 -90.5
t98.5 -27.5q20 0 48 4t65.5 20.5t85.5 49t108 89.5q-21 0 -29 2t-8 6q1 4 7.5 9.5t9.5 6.5q7 -4 14.5 -6t20.5 -3q75 69 144 147t130 156q-17 -11 -39 -17.5t-44 -6.5q-27 0 -55.5 4.5t-57.5 9.5t-56 9.5t-51 4.5q-54 0 -88.5 -30.5t-44.5 -109.5q-1 -4 -3.5 -3.5t-2.5 2.5
q0 36 11 69t32.5 58.5t53.5 40.5t74 15q32 0 62.5 -7.5t59.5 -15.5q29 -9 57.5 -16.5t56.5 -7.5q11 0 25 3t22 12q17 20 28 27t22 7q15 0 15 -18zM669 435q1 3 -0.5 4.5t-5.5 -2.5q-23 -29 -50 -60t-54.5 -61t-54.5 -58.5t-51 -50.5q10 -1 21.5 -1.5t16.5 -0.5h46t56 2
q11 48 30.5 108t45.5 120zM756 610l-88 -2l5 15l86 2z" />
    <glyph glyph-name="Abreve" unicode="&#x102;" horiz-adv-x="726" 
d="M792 542q0 -4 -0.5 -8.5t-1.5 -9.5q-9 10 -19 10q-30 0 -42 -16.5t-24 -52.5q-20 -57 -36 -115.5t-27 -111t-17 -95.5t-6 -70q0 -49 22 -49q6 0 15.5 3.5t20 8.5t20 11t15.5 11q2 1 3 -2t-1 -5q-9 -8 -24 -17.5t-32.5 -18t-34.5 -14.5t-29 -6q-16 0 -22.5 12t-6.5 33
t6.5 55.5t14.5 76.5q2 8 -4 16.5t-17 8.5q-6 0 -19 -0.5t-30 -1t-36.5 -1t-39.5 -0.5q-56 -48 -103.5 -86.5t-91 -64.5t-84 -40t-80.5 -14q-66 0 -95.5 35.5t-29.5 92.5q0 19 5.5 40.5t15.5 41.5t24 38t31 31q5 3 4 2t2 -2q-24 -25 -38.5 -53t-14.5 -66q0 -63 35.5 -90.5
t98.5 -27.5q20 0 48 4t65.5 20.5t85.5 49t108 89.5q-21 0 -29 2t-8 6q1 4 7.5 9.5t9.5 6.5q7 -4 14.5 -6t20.5 -3q75 69 144 147t130 156q-17 -11 -39 -17.5t-44 -6.5q-27 0 -55.5 4.5t-57.5 9.5t-56 9.5t-51 4.5q-54 0 -88.5 -30.5t-44.5 -109.5q-1 -4 -3.5 -3.5t-2.5 2.5
q0 36 11 69t32.5 58.5t53.5 40.5t74 15q32 0 62.5 -7.5t59.5 -15.5q29 -9 57.5 -16.5t56.5 -7.5q11 0 25 3t22 12q17 20 28 27t22 7q15 0 15 -18zM669 435q1 3 -0.5 4.5t-5.5 -2.5q-23 -29 -50 -60t-54.5 -61t-54.5 -58.5t-51 -50.5q10 -1 21.5 -1.5t16.5 -0.5h46t56 2
q11 48 30.5 108t45.5 120zM805 645q0 -3 -2.5 -5.5t-5.5 -7.5q-17 -22 -37 -32t-38 -10q-21 0 -35 13t-14 37q0 7 6 10.5t12 3.5q4 0 4 -6q0 -19 9.5 -31.5t29.5 -12.5q14 0 29 9t26 26q7 12 11 12q5 0 5 -6z" />
    <glyph glyph-name="Aring" unicode="&#xc5;" horiz-adv-x="726" 
d="M792 542q0 -4 -0.5 -8.5t-1.5 -9.5q-9 10 -19 10q-30 0 -42 -16.5t-24 -52.5q-20 -57 -36 -115.5t-27 -111t-17 -95.5t-6 -70q0 -49 22 -49q6 0 15.5 3.5t20 8.5t20 11t15.5 11q2 1 3 -2t-1 -5q-9 -8 -24 -17.5t-32.5 -18t-34.5 -14.5t-29 -6q-16 0 -22.5 12t-6.5 33
t6.5 55.5t14.5 76.5q2 8 -4 16.5t-17 8.5q-6 0 -19 -0.5t-30 -1t-36.5 -1t-39.5 -0.5q-56 -48 -103.5 -86.5t-91 -64.5t-84 -40t-80.5 -14q-66 0 -95.5 35.5t-29.5 92.5q0 19 5.5 40.5t15.5 41.5t24 38t31 31q5 3 4 2t2 -2q-24 -25 -38.5 -53t-14.5 -66q0 -63 35.5 -90.5
t98.5 -27.5q20 0 48 4t65.5 20.5t85.5 49t108 89.5q-21 0 -29 2t-8 6q1 4 7.5 9.5t9.5 6.5q7 -4 14.5 -6t20.5 -3q75 69 144 147t130 156q-17 -11 -39 -17.5t-44 -6.5q-27 0 -55.5 4.5t-57.5 9.5t-56 9.5t-51 4.5q-54 0 -88.5 -30.5t-44.5 -109.5q-1 -4 -3.5 -3.5t-2.5 2.5
q0 36 11 69t32.5 58.5t53.5 40.5t74 15q32 0 62.5 -7.5t59.5 -15.5q29 -9 57.5 -16.5t56.5 -7.5q11 0 25 3t22 12q17 20 28 27t22 7q15 0 15 -18zM807 670q0 17 -8 28t-28 11q-29 0 -42.5 -18.5t-13.5 -41.5q0 -18 11 -28.5t27 -10.5q27 0 40.5 20t13.5 40zM669 435
q1 3 -0.5 4.5t-5.5 -2.5q-23 -29 -50 -60t-54.5 -61t-54.5 -58.5t-51 -50.5q10 -1 21.5 -1.5t16.5 -0.5h46t56 2q11 48 30.5 108t45.5 120zM821 672q0 -25 -18.5 -46.5t-53.5 -21.5q-21 0 -34.5 11t-13.5 32q0 10 4 21.5t12.5 22t22 17.5t32.5 7q49 0 49 -43z" />
    <glyph glyph-name="Aogonek" unicode="&#x104;" horiz-adv-x="726" 
d="M792 542q0 -4 -0.5 -8.5t-1.5 -9.5q-9 10 -19 10q-30 0 -42 -16.5t-24 -52.5q-20 -57 -36 -115.5t-27 -111t-17 -95.5t-6 -70q0 -49 22 -49q6 0 15.5 3.5t20 8.5t20 11t15.5 11q2 1 3 -2t-1 -5q-9 -8 -24 -17.5t-32.5 -18t-34.5 -14.5t-29 -6q-16 0 -22.5 12t-6.5 33
t6.5 55.5t14.5 76.5q2 8 -4 16.5t-17 8.5q-6 0 -19 -0.5t-30 -1t-36.5 -1t-39.5 -0.5q-56 -48 -103.5 -86.5t-91 -64.5t-84 -40t-80.5 -14q-66 0 -95.5 35.5t-29.5 92.5q0 19 5.5 40.5t15.5 41.5t24 38t31 31q5 3 4 2t2 -2q-24 -25 -38.5 -53t-14.5 -66q0 -63 35.5 -90.5
t98.5 -27.5q20 0 48 4t65.5 20.5t85.5 49t108 89.5q-21 0 -29 2t-8 6q1 4 7.5 9.5t9.5 6.5q7 -4 14.5 -6t20.5 -3q75 69 144 147t130 156q-17 -11 -39 -17.5t-44 -6.5q-27 0 -55.5 4.5t-57.5 9.5t-56 9.5t-51 4.5q-54 0 -88.5 -30.5t-44.5 -109.5q-1 -4 -3.5 -3.5t-2.5 2.5
q0 36 11 69t32.5 58.5t53.5 40.5t74 15q32 0 62.5 -7.5t59.5 -15.5q29 -9 57.5 -16.5t56.5 -7.5q11 0 25 3t22 12q17 20 28 27t22 7q15 0 15 -18zM669 435q1 3 -0.5 4.5t-5.5 -2.5q-23 -29 -50 -60t-54.5 -61t-54.5 -58.5t-51 -50.5q10 -1 21.5 -1.5t16.5 -0.5h46t56 2
q11 48 30.5 108t45.5 120zM645 10q0 -2 -4 -3q-31 -11 -50.5 -30.5t-19.5 -37.5q0 -14 10 -22t24 -8q3 0 6 1t6 1t2 -2.5t-4 -3.5q-8 -2 -15 -3.5t-18 -1.5q-20 0 -31.5 8t-11.5 21q0 15 20 35q8 7 20.5 15.5t25 15.5t23 12t14.5 5q3 0 3 -2z" />
    <glyph glyph-name="AE" unicode="&#xc6;" horiz-adv-x="950" 
d="M339 209q69 72 132 149.5t120 153.5q-14 -11 -35.5 -17.5t-43.5 -6.5q-27 0 -55.5 4.5t-57.5 9.5t-56 9.5t-51 4.5q-54 0 -88.5 -30.5t-44.5 -109.5q-1 -4 -3.5 -3.5t-2.5 2.5q0 36 11 69t32.5 58.5t53.5 40.5t74 15q32 0 62.5 -7.5t59.5 -15.5q29 -9 57.5 -16.5
t56.5 -7.5q26 0 37.5 10t19.5 36q1 4 6.5 3.5t10.5 -2.5q-16 -18 -31.5 -53t-28.5 -74.5t-23.5 -76.5t-16.5 -59q32 29 73 48t86 24q3 0 3 2q-2 5 -9 15t-7 30q0 22 12 47t33.5 46.5t50.5 36t64 14.5q18 0 36 -10t18 -34q0 -9 -4.5 -14.5t-11 -10.5t-12.5 -11.5t-9 -17.5
q-1 -3 -3.5 -5t-2.5 3q2 8 3 19.5t1 16.5t-1.5 13t-6 15.5t-14 13t-25.5 5.5q-11 0 -27.5 -5.5t-32.5 -17t-27 -30.5t-11 -46q0 -34 15 -52.5t32 -20.5q4 0 4 -3q-4 -2 -10 -6t-14 -11l-6 2q-8 4 -16.5 5t-17.5 1q-21 0 -53.5 -9t-63 -31.5t-52 -59.5t-21.5 -92
q0 -41 13.5 -70.5t36 -49t52.5 -29t63 -9.5q72 0 134.5 25.5t108.5 67.5t72.5 96t26.5 111q0 9 -0.5 19t-1.5 15q-1 3 0.5 4t1.5 0q3 -3 5.5 -19.5t2.5 -27.5q0 -46 -17 -87t-45.5 -76t-66.5 -62.5t-80.5 -46.5t-86.5 -29.5t-85 -10.5q-24 0 -49.5 4t-48.5 14t-41.5 27
t-29.5 44q-5 -15 -10 -27t-10 -22q-18 -3 -26 -9.5t-22 -21.5q-3 -3 -4 -2t0 3q23 45 40.5 89.5t25.5 86.5q2 8 -4 16.5t-17 8.5q-6 0 -18.5 -0.5t-28 -1t-31.5 -1t-29 -0.5q-51 -48 -93.5 -86.5t-81 -65t-74.5 -41t-73 -14.5q-26 0 -43 13t-17 51q0 21 7 48t16 44q5 3 5 -1
q-4 -11 -6.5 -25.5t-2.5 -31.5q0 -30 20.5 -42t46.5 -12q22 0 50.5 6.5t64.5 25.5t81 54t101 92zM549 435q1 3 -0.5 4.5t-5.5 -2.5q-21 -29 -44.5 -58t-48 -57.5t-47.5 -54.5t-42 -48q-1 -9 9 -11.5t15 -2.5h34t54 2q11 48 30.5 108t45.5 120z" />
    <glyph glyph-name="Cacute" unicode="&#x106;" horiz-adv-x="671" 
d="M707 703q0 -2 -3 -5q-35 -27 -76.5 -57t-83.5 -58q-5 -3 -6.5 -1.5t0.5 3.5q37 30 77.5 63t78.5 63q6 2 5 2q2 0 5 -3.5t3 -6.5zM674 492q0 -2 -4 -6.5t-9.5 -13.5t-11 -22.5t-9.5 -34.5q0 -4 -3 -5.5t-3 4.5q0 5 1 9.5t1 9.5q0 18 -10 32.5t-28 25.5t-42.5 17t-53.5 6
q-34 0 -74.5 -11t-80.5 -32t-77.5 -52t-66.5 -71.5t-46.5 -90.5t-17.5 -109q0 -103 54 -159.5t157 -56.5q60 0 113.5 24.5t93.5 61t63.5 78t23.5 76.5q0 3 -1 7t-1 6q0 4 3 4t10.5 -13t7.5 -28q0 -22 -25.5 -61.5t-72 -78t-112.5 -67t-148 -28.5q-53 0 -94 15.5t-69 43
t-42 65t-14 81.5q0 50 20.5 101.5t55.5 99t81.5 89.5t99.5 72.5t109 48.5t109 18q28 0 49 -7t35.5 -16t21.5 -18.5t7 -13.5z" />
    <glyph glyph-name="Ccircumflex" unicode="&#x108;" horiz-adv-x="671" 
d="M674 492q0 -2 -4 -6.5t-9.5 -13.5t-11 -22.5t-9.5 -34.5q0 -4 -3 -5.5t-3 4.5q0 5 1 9.5t1 9.5q0 18 -10 32.5t-28 25.5t-42.5 17t-53.5 6q-34 0 -74.5 -11t-80.5 -32t-77.5 -52t-66.5 -71.5t-46.5 -90.5t-17.5 -109q0 -103 54 -159.5t157 -56.5q60 0 113.5 24.5t93.5 61
t63.5 78t23.5 76.5q0 3 -1 7t-1 6q0 4 3 4t10.5 -13t7.5 -28q0 -22 -25.5 -61.5t-72 -78t-112.5 -67t-148 -28.5q-53 0 -94 15.5t-69 43t-42 65t-14 81.5q0 50 20.5 101.5t55.5 99t81.5 89.5t99.5 72.5t109 48.5t109 18q28 0 49 -7t35.5 -16t21.5 -18.5t7 -13.5zM641 610
q0 -12 -4 -15q-3 -2 -8 -7t-8 -5t-3 7q0 20 -1 45t-2 45q0 6 -4 6q-2 0 -5 -3q-19 -17 -39.5 -38t-37.5 -40q-9 -11 -13 -11t-4 5t9 13q17 15 37 34t37 36q8 8 16 15.5t16 12.5q6 2 5 2q4 0 4 -5q1 -28 3 -54t2 -43z" />
    <glyph glyph-name="Ccaron" unicode="&#x10c;" horiz-adv-x="671" 
d="M674 492q0 -2 -4 -6.5t-9.5 -13.5t-11 -22.5t-9.5 -34.5q0 -4 -3 -5.5t-3 4.5q0 5 1 9.5t1 9.5q0 18 -10 32.5t-28 25.5t-42.5 17t-53.5 6q-34 0 -74.5 -11t-80.5 -32t-77.5 -52t-66.5 -71.5t-46.5 -90.5t-17.5 -109q0 -103 54 -159.5t157 -56.5q60 0 113.5 24.5t93.5 61
t63.5 78t23.5 76.5q0 3 -1 7t-1 6q0 4 3 4t10.5 -13t7.5 -28q0 -22 -25.5 -61.5t-72 -78t-112.5 -67t-148 -28.5q-53 0 -94 15.5t-69 43t-42 65t-14 81.5q0 50 20.5 101.5t55.5 99t81.5 89.5t99.5 72.5t109 48.5t109 18q28 0 49 -7t35.5 -16t21.5 -18.5t7 -13.5zM671 713
q0 -6 -8 -12q-19 -16 -38.5 -34.5t-36.5 -35.5q-10 -10 -21.5 -19.5t-14.5 -9.5q-5 0 -5 5q0 6 -1 19.5t-2.5 28.5t-2.5 29t-1 22q0 7 5 12q2 2 9 7t9 5q3 0 3 -7q0 -12 0.5 -26t0.5 -27t0.5 -23t0.5 -14q0 -6 4 -6q2 0 5 3q19 16 40.5 38.5t35.5 39.5q9 12 13 12q5 0 5 -7z
" />
    <glyph glyph-name="Cdotaccent" unicode="&#x10a;" horiz-adv-x="671" 
d="M674 492q0 -2 -4 -6.5t-9.5 -13.5t-11 -22.5t-9.5 -34.5q0 -4 -3 -5.5t-3 4.5q0 5 1 9.5t1 9.5q0 18 -10 32.5t-28 25.5t-42.5 17t-53.5 6q-34 0 -74.5 -11t-80.5 -32t-77.5 -52t-66.5 -71.5t-46.5 -90.5t-17.5 -109q0 -103 54 -159.5t157 -56.5q60 0 113.5 24.5t93.5 61
t63.5 78t23.5 76.5q0 3 -1 7t-1 6q0 4 3 4t10.5 -13t7.5 -28q0 -22 -25.5 -61.5t-72 -78t-112.5 -67t-148 -28.5q-53 0 -94 15.5t-69 43t-42 65t-14 81.5q0 50 20.5 101.5t55.5 99t81.5 89.5t99.5 72.5t109 48.5t109 18q28 0 49 -7t35.5 -16t21.5 -18.5t7 -13.5zM590 626
q0 -11 -10 -20.5t-21 -9.5q-16 0 -16 18q0 11 7.5 19.5t20.5 8.5q8 0 13.5 -3t5.5 -13z" />
    <glyph glyph-name="Ccedilla" unicode="&#xc7;" horiz-adv-x="671" 
d="M674 492q0 -2 -4 -6.5t-9.5 -13.5t-11 -22.5t-9.5 -34.5q0 -4 -3 -5.5t-3 4.5q0 5 1 9.5t1 9.5q0 18 -10 32.5t-28 25.5t-42.5 17t-53.5 6q-34 0 -74.5 -11t-80.5 -32t-77.5 -52t-66.5 -71.5t-46.5 -90.5t-17.5 -109q0 -103 54 -159.5t157 -56.5q60 0 113.5 24.5t93.5 61
t63.5 78t23.5 76.5q0 3 -1 7t-1 6q0 4 3 4t10.5 -13t7.5 -28q0 -22 -25.5 -61.5t-72 -78t-112.5 -67t-148 -28.5q-53 0 -94 15.5t-69 43t-42 65t-14 81.5q0 50 20.5 101.5t55.5 99t81.5 89.5t99.5 72.5t109 48.5t109 18q28 0 49 -7t35.5 -16t21.5 -18.5t7 -13.5zM327 -82
q-4 -1 -10 -3.5t-12 -6.5t-10.5 -9t-4.5 -9q0 -5 5 -8t11 -6t11 -7.5t5 -11.5q0 -11 -13 -21q-15 -13 -36 -27.5t-38 -22.5q-6 -2 -7 -2q-2 0 -5 2t-3 4t5 4q5 1 16 5.5t22.5 10.5t20 13.5t8.5 14.5q0 6 -5 10t-11 7.5t-11 7.5t-5 10q0 7 8 15t18.5 15t21.5 12.5t16 7.5
q3 0 5.5 -1t-2.5 -4z" />
    <glyph glyph-name="Dcaron" unicode="&#x10e;" horiz-adv-x="728" 
d="M828 655q0 -13 -5.5 -21t-12.5 -8t-10 3t-8 6q-4 4 -11 7.5t-22 3.5q-78 0 -145 -94q29 -7 59.5 -20t56 -35.5t41.5 -57.5t16 -87t-20.5 -99.5t-54.5 -88t-78.5 -73t-93 -55.5t-97 -35.5t-90.5 -12.5q-20 0 -45 1.5t-48 3.5t-41.5 4t-25.5 3q-45 -4 -81.5 -5t-59.5 -1
q-5 0 -6 2t-1 5q8 5 26.5 14t32.5 14q14 0 29.5 -1t30 -2t27 -2.5t21.5 -2.5q35 11 63 31.5t52 49t45 62.5t41 72q17 31 40 72.5t48 83.5t48.5 79t41.5 60q-14 4 -34.5 8.5t-45 8.5t-51.5 6.5t-54 2.5q-47 0 -97 -4.5t-99 -15t-92.5 -28t-76.5 -43t-52.5 -60t-19.5 -79.5
q0 -20 4 -33.5t12 -28.5q3 -5 -3 -6q-18 6 -39 6q-6 7 -9 21t-3 32q0 50 35.5 96t100 81t153.5 55.5t197 20.5q57 0 106 -4.5t83 -12.5q48 66 98.5 92t86.5 26q23 0 30 -6t7 -11zM732 342q0 42 -11 73t-29.5 52.5t-42.5 35.5t-49 23q-17 -22 -40 -63t-48.5 -90.5t-51.5 -101
t-49 -94.5q-24 -45 -70.5 -87.5t-109.5 -71.5q30 -6 71.5 -11t78.5 -5q47 0 108 21.5t115 64t91 106t37 148.5zM817 798q0 -6 -8 -12q-19 -16 -38.5 -34.5t-36.5 -35.5q-10 -10 -21.5 -19.5t-14.5 -9.5q-5 0 -5 5q0 6 -1 19.5t-2.5 28.5t-2.5 29t-1 22q0 7 5 12q2 2 9 7t9 5
q3 0 3 -7q0 -12 0.5 -26t0.5 -27t0.5 -23t0.5 -14q0 -6 4 -6q2 0 5 3q19 16 40.5 38.5t35.5 39.5q9 12 13 12q5 0 5 -7z" />
    <glyph glyph-name="Dcroat" unicode="&#x110;" horiz-adv-x="728" 
d="M396 255q-13 0 -29.5 -2t-27.5 -2q-16 0 -16 17q0 2 2 2t17 -2t56 0q9 0 17 0.5t16 0.5q18 32 39.5 69.5t43 73.5t41.5 67.5t36 51.5q-14 4 -34.5 8.5t-45 8.5t-51.5 6.5t-54 2.5q-47 0 -97 -4.5t-99 -15t-92.5 -28t-76.5 -43t-52.5 -60t-19.5 -79.5q0 -20 4 -33.5
t12 -28.5q3 -5 -3 -6q-18 6 -39 6q-6 7 -9 21t-3 32q0 50 35.5 96t100 81t153.5 55.5t197 20.5q57 0 106 -4.5t83 -12.5q48 66 98.5 92t86.5 26q23 0 30 -6t7 -11q0 -13 -5.5 -21t-12.5 -8t-10 3t-8 6q-4 4 -11 7.5t-22 3.5q-78 0 -145 -94q29 -7 59.5 -20t56 -35.5
t41.5 -57.5t16 -87t-20.5 -99.5t-54.5 -88t-78.5 -73t-93 -55.5t-97 -35.5t-90.5 -12.5q-20 0 -45 1.5t-48 3.5t-41.5 4t-25.5 3q-45 -4 -81.5 -5t-59.5 -1q-5 0 -6 2t-1 5q8 5 26.5 14t32.5 14q14 0 29.5 -1t30 -2t27 -2.5t21.5 -2.5q35 11 63 31.5t52 49t45 62.5t41 72
q2 5 5 9.5t5 9.5h-27zM732 342q0 42 -11 73t-29.5 52.5t-42.5 35.5t-49 23q-13 -17 -29.5 -44.5t-35 -62t-38 -73t-38.5 -76.5q29 1 50.5 1.5t41.5 0.5q13 0 17 -1t4 -8q0 -9 -4 -9q-4 4 -30 4q-22 0 -44 -0.5t-42 -0.5q-11 -21 -21 -41.5t-20 -38.5q-24 -45 -70.5 -87.5
t-109.5 -71.5q30 -6 71.5 -11t78.5 -5q47 0 108 21.5t115 64t91 106t37 148.5z" />
    <glyph glyph-name="Eth" unicode="&#xd0;" horiz-adv-x="728" 
d="M828 655q0 -13 -5.5 -21t-12.5 -8t-10 3t-8 6q-4 4 -11 7.5t-22 3.5q-78 0 -145 -94q29 -7 59.5 -20t56 -35.5t41.5 -57.5t16 -87t-20.5 -99.5t-54.5 -88t-78.5 -73t-93 -55.5t-97 -35.5t-90.5 -12.5q-20 0 -45 1.5t-48 3.5t-41.5 4t-25.5 3q-45 -4 -81.5 -5t-59.5 -1
q-5 0 -6 2t-1 5q8 5 26.5 14t32.5 14q14 0 29.5 -1t30 -2t27 -2.5t21.5 -2.5q35 11 63 31.5t52 49t45 62.5t41 72q4 7 7.5 14l7.5 15q-4 0 -12.5 -0.5t-17.5 -1.5t-17.5 -1.5t-11.5 -0.5q-16 0 -16 17q0 2 2 2q2 -1 15.5 -2t21.5 -1q7 0 21 0.5t22 0.5q18 32 39 68t42 70.5
t40.5 64.5t34.5 50q-14 4 -34.5 8.5t-45 8.5t-51.5 6.5t-54 2.5q-47 0 -97 -4.5t-99 -15t-92.5 -28t-76.5 -43t-52.5 -60t-19.5 -79.5q0 -20 4 -33.5t12 -28.5q3 -5 -3 -6q-18 6 -39 6q-6 7 -9 21t-3 32q0 50 35.5 96t100 81t153.5 55.5t197 20.5q57 0 106 -4.5t83 -12.5
q48 66 98.5 92t86.5 26q23 0 30 -6t7 -11zM732 342q0 42 -11 73t-29.5 52.5t-42.5 35.5t-49 23q-12 -16 -27.5 -42.5t-33.5 -59.5t-37 -70l-38 -74q29 1 52 1.5t42 0.5q24 0 27 -1q5 0 5 -8.5t-4 -8.5q-3 2 -12 3t-21 1h-41.5t-54.5 -2q-12 -24 -23.5 -46.5t-22.5 -42.5
q-24 -45 -70.5 -87.5t-109.5 -71.5q30 -6 71.5 -11t78.5 -5q47 0 108 21.5t115 64t91 106t37 148.5z" />
    <glyph glyph-name="Egrave" unicode="&#xc8;" horiz-adv-x="648" 
d="M670 234q0 -35 -20 -70t-53 -67t-77 -60.5t-92 -49.5t-97.5 -34t-93.5 -15q-8 -17 -15.5 -33t-12.5 -32q-1 -2 -5 -2t-4 4q5 15 12 31t15 31q-46 0 -84 8.5t-65 25.5t-42 42t-15 58q0 27 9.5 53t37 52t78 52.5t133.5 54.5q21 7 34 14t20 13t9 11.5t2 10.5t-3 14.5
t-20 35.5q-4 7 -11 18.5t-7 30.5q0 25 24.5 48.5t60.5 42t76 29.5t72 11q30 0 56 -12t26 -33q0 -13 -10 -26.5t-24 -27.5q-2 -2 -5 0t-1 5q9 10 9 21q0 10 -8.5 19.5t-22 16.5t-30.5 11t-34 4q-21 0 -45.5 -5.5t-46 -16.5t-36 -28t-14.5 -39q0 -17 6.5 -30.5t15 -25.5
t15 -24t6.5 -26q0 -13 -20 -30t-71 -32q-50 -15 -92 -33t-72 -41t-46.5 -52.5t-16.5 -66.5q0 -20 6 -43t23 -43t48.5 -34t82.5 -17q22 38 52 77t64.5 75.5t71.5 68t73 55t69 37t60 13.5q45 0 45 -45zM633 210q0 19 -8.5 32t-35.5 13q-23 0 -63 -20t-88 -58.5t-98.5 -95
t-94.5 -129.5h7q41 0 85 11t86.5 29.5t80.5 44t66.5 54t45.5 59t17 60.5zM537 609q0 -6 -5 -1q-13 23 -26 48t-23 45q-3 6 -3 11q0 4 4 9.5t6 5.5q3 0 4 -4q4 -11 10 -25.5t12.5 -30t12 -31t8.5 -27.5z" />
    <glyph glyph-name="Eacute" unicode="&#xc9;" horiz-adv-x="648" 
d="M670 234q0 -35 -20 -70t-53 -67t-77 -60.5t-92 -49.5t-97.5 -34t-93.5 -15q-8 -17 -15.5 -33t-12.5 -32q-1 -2 -5 -2t-4 4q5 15 12 31t15 31q-46 0 -84 8.5t-65 25.5t-42 42t-15 58q0 27 9.5 53t37 52t78 52.5t133.5 54.5q21 7 34 14t20 13t9 11.5t2 10.5t-3 14.5
t-20 35.5q-4 7 -11 18.5t-7 30.5q0 25 24.5 48.5t60.5 42t76 29.5t72 11q30 0 56 -12t26 -33q0 -13 -10 -26.5t-24 -27.5q-2 -2 -5 0t-1 5q9 10 9 21q0 10 -8.5 19.5t-22 16.5t-30.5 11t-34 4q-21 0 -45.5 -5.5t-46 -16.5t-36 -28t-14.5 -39q0 -17 6.5 -30.5t15 -25.5
t15 -24t6.5 -26q0 -13 -20 -30t-71 -32q-50 -15 -92 -33t-72 -41t-46.5 -52.5t-16.5 -66.5q0 -20 6 -43t23 -43t48.5 -34t82.5 -17q22 38 52 77t64.5 75.5t71.5 68t73 55t69 37t60 13.5q45 0 45 -45zM633 210q0 19 -8.5 32t-35.5 13q-23 0 -63 -20t-88 -58.5t-98.5 -95
t-94.5 -129.5h7q41 0 85 11t86.5 29.5t80.5 44t66.5 54t45.5 59t17 60.5zM626 728q0 -2 -3 -5q-35 -27 -76.5 -57t-83.5 -58q-5 -3 -6.5 -1.5t0.5 3.5q37 30 77.5 63t78.5 63q6 2 5 2q2 0 5 -3.5t3 -6.5z" />
    <glyph glyph-name="Ecircumflex" unicode="&#xca;" horiz-adv-x="648" 
d="M670 234q0 -35 -20 -70t-53 -67t-77 -60.5t-92 -49.5t-97.5 -34t-93.5 -15q-8 -17 -15.5 -33t-12.5 -32q-1 -2 -5 -2t-4 4q5 15 12 31t15 31q-46 0 -84 8.5t-65 25.5t-42 42t-15 58q0 27 9.5 53t37 52t78 52.5t133.5 54.5q21 7 34 14t20 13t9 11.5t2 10.5t-3 14.5
t-20 35.5q-4 7 -11 18.5t-7 30.5q0 25 24.5 48.5t60.5 42t76 29.5t72 11q30 0 56 -12t26 -33q0 -13 -10 -26.5t-24 -27.5q-2 -2 -5 0t-1 5q9 10 9 21q0 10 -8.5 19.5t-22 16.5t-30.5 11t-34 4q-21 0 -45.5 -5.5t-46 -16.5t-36 -28t-14.5 -39q0 -17 6.5 -30.5t15 -25.5
t15 -24t6.5 -26q0 -13 -20 -30t-71 -32q-50 -15 -92 -33t-72 -41t-46.5 -52.5t-16.5 -66.5q0 -20 6 -43t23 -43t48.5 -34t82.5 -17q22 38 52 77t64.5 75.5t71.5 68t73 55t69 37t60 13.5q45 0 45 -45zM633 210q0 19 -8.5 32t-35.5 13q-23 0 -63 -20t-88 -58.5t-98.5 -95
t-94.5 -129.5h7q41 0 85 11t86.5 29.5t80.5 44t66.5 54t45.5 59t17 60.5zM586 628q0 -12 -4 -15q-3 -2 -8 -7t-8 -5t-3 7q0 20 -1 45t-2 45q0 6 -4 6q-2 0 -5 -3q-19 -17 -39.5 -38t-37.5 -40q-9 -11 -13 -11t-4 5t9 13q17 15 37 34t37 36q8 8 16 15.5t16 12.5q6 2 5 2
q4 0 4 -5q1 -28 3 -54t2 -43z" />
    <glyph glyph-name="Ecaron" unicode="&#x11a;" horiz-adv-x="648" 
d="M670 234q0 -35 -20 -70t-53 -67t-77 -60.5t-92 -49.5t-97.5 -34t-93.5 -15q-8 -17 -15.5 -33t-12.5 -32q-1 -2 -5 -2t-4 4q5 15 12 31t15 31q-46 0 -84 8.5t-65 25.5t-42 42t-15 58q0 27 9.5 53t37 52t78 52.5t133.5 54.5q21 7 34 14t20 13t9 11.5t2 10.5t-3 14.5
t-20 35.5q-4 7 -11 18.5t-7 30.5q0 25 24.5 48.5t60.5 42t76 29.5t72 11q30 0 56 -12t26 -33q0 -13 -10 -26.5t-24 -27.5q-2 -2 -5 0t-1 5q9 10 9 21q0 10 -8.5 19.5t-22 16.5t-30.5 11t-34 4q-21 0 -45.5 -5.5t-46 -16.5t-36 -28t-14.5 -39q0 -17 6.5 -30.5t15 -25.5
t15 -24t6.5 -26q0 -13 -20 -30t-71 -32q-50 -15 -92 -33t-72 -41t-46.5 -52.5t-16.5 -66.5q0 -20 6 -43t23 -43t48.5 -34t82.5 -17q22 38 52 77t64.5 75.5t71.5 68t73 55t69 37t60 13.5q45 0 45 -45zM633 210q0 19 -8.5 32t-35.5 13q-23 0 -63 -20t-88 -58.5t-98.5 -95
t-94.5 -129.5h7q41 0 85 11t86.5 29.5t80.5 44t66.5 54t45.5 59t17 60.5zM619 722q0 -6 -8 -12q-19 -16 -38.5 -34.5t-36.5 -35.5q-10 -10 -21.5 -19.5t-14.5 -9.5q-5 0 -5 5q0 6 -1 19.5t-2.5 28.5t-2.5 29t-1 22q0 7 5 12q2 2 9 7t9 5q3 0 3 -7q0 -12 0.5 -26t0.5 -27
t0.5 -23t0.5 -14q0 -6 4 -6q2 0 5 3q19 16 40.5 38.5t35.5 39.5q9 12 13 12q5 0 5 -7z" />
    <glyph glyph-name="Edieresis" unicode="&#xcb;" horiz-adv-x="648" 
d="M670 234q0 -35 -20 -70t-53 -67t-77 -60.5t-92 -49.5t-97.5 -34t-93.5 -15q-8 -17 -15.5 -33t-12.5 -32q-1 -2 -5 -2t-4 4q5 15 12 31t15 31q-46 0 -84 8.5t-65 25.5t-42 42t-15 58q0 27 9.5 53t37 52t78 52.5t133.5 54.5q21 7 34 14t20 13t9 11.5t2 10.5t-3 14.5
t-20 35.5q-4 7 -11 18.5t-7 30.5q0 25 24.5 48.5t60.5 42t76 29.5t72 11q30 0 56 -12t26 -33q0 -13 -10 -26.5t-24 -27.5q-2 -2 -5 0t-1 5q9 10 9 21q0 10 -8.5 19.5t-22 16.5t-30.5 11t-34 4q-21 0 -45.5 -5.5t-46 -16.5t-36 -28t-14.5 -39q0 -17 6.5 -30.5t15 -25.5
t15 -24t6.5 -26q0 -13 -20 -30t-71 -32q-50 -15 -92 -33t-72 -41t-46.5 -52.5t-16.5 -66.5q0 -20 6 -43t23 -43t48.5 -34t82.5 -17q22 38 52 77t64.5 75.5t71.5 68t73 55t69 37t60 13.5q45 0 45 -45zM633 210q0 19 -8.5 32t-35.5 13q-23 0 -63 -20t-88 -58.5t-98.5 -95
t-94.5 -129.5h7q41 0 85 11t86.5 29.5t80.5 44t66.5 54t45.5 59t17 60.5zM594 658q0 -12 -10.5 -24t-23.5 -12q-12 0 -12 12q0 13 9.5 25t23.5 12q13 0 13 -13zM522 664q0 -12 -10.5 -24t-23.5 -12q-12 0 -12 12q0 13 9.5 25t23.5 12q13 0 13 -13z" />
    <glyph glyph-name="Emacron" unicode="&#x112;" horiz-adv-x="648" 
d="M670 234q0 -35 -20 -70t-53 -67t-77 -60.5t-92 -49.5t-97.5 -34t-93.5 -15q-8 -17 -15.5 -33t-12.5 -32q-1 -2 -5 -2t-4 4q5 15 12 31t15 31q-46 0 -84 8.5t-65 25.5t-42 42t-15 58q0 27 9.5 53t37 52t78 52.5t133.5 54.5q21 7 34 14t20 13t9 11.5t2 10.5t-3 14.5
t-20 35.5q-4 7 -11 18.5t-7 30.5q0 25 24.5 48.5t60.5 42t76 29.5t72 11q30 0 56 -12t26 -33q0 -13 -10 -26.5t-24 -27.5q-2 -2 -5 0t-1 5q9 10 9 21q0 10 -8.5 19.5t-22 16.5t-30.5 11t-34 4q-21 0 -45.5 -5.5t-46 -16.5t-36 -28t-14.5 -39q0 -17 6.5 -30.5t15 -25.5
t15 -24t6.5 -26q0 -13 -20 -30t-71 -32q-50 -15 -92 -33t-72 -41t-46.5 -52.5t-16.5 -66.5q0 -20 6 -43t23 -43t48.5 -34t82.5 -17q22 38 52 77t64.5 75.5t71.5 68t73 55t69 37t60 13.5q45 0 45 -45zM633 210q0 19 -8.5 32t-35.5 13q-23 0 -63 -20t-88 -58.5t-98.5 -95
t-94.5 -129.5h7q41 0 85 11t86.5 29.5t80.5 44t66.5 54t45.5 59t17 60.5zM585 610l-88 -2l5 15l86 2z" />
    <glyph glyph-name="Ebreve" unicode="&#x114;" horiz-adv-x="648" 
d="M670 234q0 -35 -20 -70t-53 -67t-77 -60.5t-92 -49.5t-97.5 -34t-93.5 -15q-8 -17 -15.5 -33t-12.5 -32q-1 -2 -5 -2t-4 4q5 15 12 31t15 31q-46 0 -84 8.5t-65 25.5t-42 42t-15 58q0 27 9.5 53t37 52t78 52.5t133.5 54.5q21 7 34 14t20 13t9 11.5t2 10.5t-3 14.5
t-20 35.5q-4 7 -11 18.5t-7 30.5q0 25 24.5 48.5t60.5 42t76 29.5t72 11q30 0 56 -12t26 -33q0 -13 -10 -26.5t-24 -27.5q-2 -2 -5 0t-1 5q9 10 9 21q0 10 -8.5 19.5t-22 16.5t-30.5 11t-34 4q-21 0 -45.5 -5.5t-46 -16.5t-36 -28t-14.5 -39q0 -17 6.5 -30.5t15 -25.5
t15 -24t6.5 -26q0 -13 -20 -30t-71 -32q-50 -15 -92 -33t-72 -41t-46.5 -52.5t-16.5 -66.5q0 -20 6 -43t23 -43t48.5 -34t82.5 -17q22 38 52 77t64.5 75.5t71.5 68t73 55t69 37t60 13.5q45 0 45 -45zM633 210q0 19 -8.5 32t-35.5 13q-23 0 -63 -20t-88 -58.5t-98.5 -95
t-94.5 -129.5h7q41 0 85 11t86.5 29.5t80.5 44t66.5 54t45.5 59t17 60.5zM601 665q0 -3 -2.5 -5.5t-5.5 -7.5q-17 -22 -37 -32t-38 -10q-21 0 -35 13t-14 37q0 7 6 10.5t12 3.5q4 0 4 -6q0 -19 9.5 -31.5t29.5 -12.5q14 0 29 9t26 26q7 12 11 12q5 0 5 -6z" />
    <glyph glyph-name="Edotaccent" unicode="&#x116;" horiz-adv-x="648" 
d="M670 234q0 -35 -20 -70t-53 -67t-77 -60.5t-92 -49.5t-97.5 -34t-93.5 -15q-8 -17 -15.5 -33t-12.5 -32q-1 -2 -5 -2t-4 4q5 15 12 31t15 31q-46 0 -84 8.5t-65 25.5t-42 42t-15 58q0 27 9.5 53t37 52t78 52.5t133.5 54.5q21 7 34 14t20 13t9 11.5t2 10.5t-3 14.5
t-20 35.5q-4 7 -11 18.5t-7 30.5q0 25 24.5 48.5t60.5 42t76 29.5t72 11q30 0 56 -12t26 -33q0 -13 -10 -26.5t-24 -27.5q-2 -2 -5 0t-1 5q9 10 9 21q0 10 -8.5 19.5t-22 16.5t-30.5 11t-34 4q-21 0 -45.5 -5.5t-46 -16.5t-36 -28t-14.5 -39q0 -17 6.5 -30.5t15 -25.5
t15 -24t6.5 -26q0 -13 -20 -30t-71 -32q-50 -15 -92 -33t-72 -41t-46.5 -52.5t-16.5 -66.5q0 -20 6 -43t23 -43t48.5 -34t82.5 -17q22 38 52 77t64.5 75.5t71.5 68t73 55t69 37t60 13.5q45 0 45 -45zM633 210q0 19 -8.5 32t-35.5 13q-23 0 -63 -20t-88 -58.5t-98.5 -95
t-94.5 -129.5h7q41 0 85 11t86.5 29.5t80.5 44t66.5 54t45.5 59t17 60.5zM554 634q0 -11 -10 -20.5t-21 -9.5q-16 0 -16 18q0 11 7.5 19.5t20.5 8.5q8 0 13.5 -3t5.5 -13z" />
    <glyph glyph-name="Eogonek" unicode="&#x118;" horiz-adv-x="648" 
d="M670 234q0 -35 -20 -70t-53 -67t-77 -60.5t-92 -49.5t-97.5 -34t-93.5 -15q-8 -17 -15.5 -33t-12.5 -32q-1 -2 -5 -2t-4 4q5 15 12 31t15 31q-46 0 -84 8.5t-65 25.5t-42 42t-15 58q0 27 9.5 53t37 52t78 52.5t133.5 54.5q21 7 34 14t20 13t9 11.5t2 10.5t-3 14.5
t-20 35.5q-4 7 -11 18.5t-7 30.5q0 25 24.5 48.5t60.5 42t76 29.5t72 11q30 0 56 -12t26 -33q0 -13 -10 -26.5t-24 -27.5q-2 -2 -5 0t-1 5q9 10 9 21q0 10 -8.5 19.5t-22 16.5t-30.5 11t-34 4q-21 0 -45.5 -5.5t-46 -16.5t-36 -28t-14.5 -39q0 -17 6.5 -30.5t15 -25.5
t15 -24t6.5 -26q0 -13 -20 -30t-71 -32q-50 -15 -92 -33t-72 -41t-46.5 -52.5t-16.5 -66.5q0 -20 6 -43t23 -43t48.5 -34t82.5 -17q22 38 52 77t64.5 75.5t71.5 68t73 55t69 37t60 13.5q45 0 45 -45zM633 210q0 19 -8.5 32t-35.5 13q-23 0 -63 -20t-88 -58.5t-98.5 -95
t-94.5 -129.5h7q41 0 85 11t86.5 29.5t80.5 44t66.5 54t45.5 59t17 60.5zM385 -29q0 -2 -4 -3q-31 -11 -50.5 -30.5t-19.5 -37.5q0 -14 10 -22t24 -8q3 0 6 1t6 1t2 -2.5t-4 -3.5q-8 -2 -15 -3.5t-18 -1.5q-20 0 -31.5 8t-11.5 21q0 15 20 35q8 7 20.5 15.5t25 15.5t23 12
t14.5 5q3 0 3 -2z" />
    <glyph glyph-name="Gcircumflex" unicode="&#x11c;" horiz-adv-x="642" 
d="M595 272q-18 -34 -43 -80t-48 -86q66 20 136.5 36.5t140.5 31.5q10 0 8.5 -4t-8.5 -6q-69 -13 -141.5 -31.5t-142.5 -38.5q-26 -45 -58.5 -97.5t-70.5 -103t-80.5 -94t-87.5 -70.5q-29 -17 -61.5 -27t-65.5 -10q-20 0 -40.5 4.5t-37.5 14t-28 25.5t-11 40q0 28 14 54
t36.5 49t51 43t58.5 36t58 29t49 22q51 21 108.5 41.5t114.5 37.5l40 68t41 67q-88 -58 -157.5 -85t-121.5 -27q-15 0 -34 3.5t-35.5 13t-28 25.5t-11.5 40q0 29 17.5 67.5t49 79t77 80.5t101 71t120.5 50t137 19q94 0 94 -46q0 -4 -5 -4q-15 22 -38 30.5t-62 8.5
q-51 0 -104 -18t-102.5 -48.5t-93.5 -69.5t-77 -81t-52 -84t-19 -77q0 -6 1.5 -14.5t8.5 -17t22 -14t42 -5.5q39 0 111 26.5t172 96.5q17 26 33.5 50.5t33.5 48.5q22 31 47.5 62.5t49.5 57.5t44.5 42.5t32.5 16.5q15 0 15 -18q0 -17 -15.5 -43t-42.5 -57t-63.5 -64.5
t-78.5 -66.5zM786 504q0 7 -7 7q-9 0 -25.5 -15t-37 -40t-44 -58.5t-45.5 -70.5q-6 -10 -12 -19.5t-11 -19.5q34 28 67 62.5t58.5 65.5t41 55t15.5 33zM440 77q-55 -17 -110.5 -36.5t-103.5 -39.5q-33 -14 -73 -34t-74 -47t-57 -61.5t-23 -76.5q0 -40 26 -59t62 -19
q51 0 107 36q37 24 72 65t66 88t58 95.5t50 88.5zM660 530q0 -12 -4 -15q-3 -2 -8 -7t-8 -5t-3 7q0 20 -1 45t-2 45q0 6 -4 6q-2 0 -5 -3q-16 -17 -35.5 -39t-36.5 -41q-5 -5 -11.5 -14t-8.5 -9q-4 0 -4 5q0 4 9 13q18 18 39.5 41.5t38.5 42.5q7 8 14.5 15.5t15.5 12.5
q6 2 5 2q4 0 4 -5q1 -28 3 -54t2 -43z" />
    <glyph glyph-name="Gbreve" unicode="&#x11e;" horiz-adv-x="642" 
d="M595 272q-18 -34 -43 -80t-48 -86q66 20 136.5 36.5t140.5 31.5q10 0 8.5 -4t-8.5 -6q-69 -13 -141.5 -31.5t-142.5 -38.5q-26 -45 -58.5 -97.5t-70.5 -103t-80.5 -94t-87.5 -70.5q-29 -17 -61.5 -27t-65.5 -10q-20 0 -40.5 4.5t-37.5 14t-28 25.5t-11 40q0 28 14 54
t36.5 49t51 43t58.5 36t58 29t49 22q51 21 108.5 41.5t114.5 37.5l40 68t41 67q-88 -58 -157.5 -85t-121.5 -27q-15 0 -34 3.5t-35.5 13t-28 25.5t-11.5 40q0 29 17.5 67.5t49 79t77 80.5t101 71t120.5 50t137 19q94 0 94 -46q0 -4 -5 -4q-15 22 -38 30.5t-62 8.5
q-51 0 -104 -18t-102.5 -48.5t-93.5 -69.5t-77 -81t-52 -84t-19 -77q0 -6 1.5 -14.5t8.5 -17t22 -14t42 -5.5q39 0 111 26.5t172 96.5q17 26 33.5 50.5t33.5 48.5q22 31 47.5 62.5t49.5 57.5t44.5 42.5t32.5 16.5q15 0 15 -18q0 -17 -15.5 -43t-42.5 -57t-63.5 -64.5
t-78.5 -66.5zM786 504q0 7 -7 7q-9 0 -25.5 -15t-37 -40t-44 -58.5t-45.5 -70.5q-6 -10 -12 -19.5t-11 -19.5q34 28 67 62.5t58.5 65.5t41 55t15.5 33zM440 77q-55 -17 -110.5 -36.5t-103.5 -39.5q-33 -14 -73 -34t-74 -47t-57 -61.5t-23 -76.5q0 -40 26 -59t62 -19
q51 0 107 36q37 24 72 65t66 88t58 95.5t50 88.5zM715 665q0 -3 -2.5 -5.5t-5.5 -7.5q-17 -22 -37 -32t-38 -10q-21 0 -35 13t-14 37q0 7 6 10.5t12 3.5q4 0 4 -6q0 -19 9.5 -31.5t29.5 -12.5q14 0 29 9t26 26q7 12 11 12q5 0 5 -6z" />
    <glyph glyph-name="Gdotaccent" unicode="&#x120;" horiz-adv-x="642" 
d="M595 272q-18 -34 -43 -80t-48 -86q66 20 136.5 36.5t140.5 31.5q10 0 8.5 -4t-8.5 -6q-69 -13 -141.5 -31.5t-142.5 -38.5q-26 -45 -58.5 -97.5t-70.5 -103t-80.5 -94t-87.5 -70.5q-29 -17 -61.5 -27t-65.5 -10q-20 0 -40.5 4.5t-37.5 14t-28 25.5t-11 40q0 28 14 54
t36.5 49t51 43t58.5 36t58 29t49 22q51 21 108.5 41.5t114.5 37.5l40 68t41 67q-88 -58 -157.5 -85t-121.5 -27q-15 0 -34 3.5t-35.5 13t-28 25.5t-11.5 40q0 29 17.5 67.5t49 79t77 80.5t101 71t120.5 50t137 19q94 0 94 -46q0 -4 -5 -4q-15 22 -38 30.5t-62 8.5
q-51 0 -104 -18t-102.5 -48.5t-93.5 -69.5t-77 -81t-52 -84t-19 -77q0 -6 1.5 -14.5t8.5 -17t22 -14t42 -5.5q39 0 111 26.5t172 96.5q17 26 33.5 50.5t33.5 48.5q22 31 47.5 62.5t49.5 57.5t44.5 42.5t32.5 16.5q15 0 15 -18q0 -17 -15.5 -43t-42.5 -57t-63.5 -64.5
t-78.5 -66.5zM786 504q0 7 -7 7q-9 0 -25.5 -15t-37 -40t-44 -58.5t-45.5 -70.5q-6 -10 -12 -19.5t-11 -19.5q34 28 67 62.5t58.5 65.5t41 55t15.5 33zM440 77q-55 -17 -110.5 -36.5t-103.5 -39.5q-33 -14 -73 -34t-74 -47t-57 -61.5t-23 -76.5q0 -40 26 -59t62 -19
q51 0 107 36q37 24 72 65t66 88t58 95.5t50 88.5zM686 634q0 -11 -10 -20.5t-21 -9.5q-16 0 -16 18q0 11 7.5 19.5t20.5 8.5q8 0 13.5 -3t5.5 -13z" />
    <glyph glyph-name="Gcommaaccent" unicode="&#x122;" horiz-adv-x="642" 
d="M613 559q7 1 14 1h14q94 0 94 -46q0 -4 -5 -4q-15 22 -38 30.5t-62 8.5q-12 0 -17 -1q1 -14 6.5 -21t5.5 -11q0 -2 -4.5 -6.5t-10.5 -9.5q-10 -8 -11 -8q-5 0 -11 9t-6 26v9t1 9q-48 -8 -96.5 -29.5t-93 -52t-83 -68t-67 -76t-45 -77t-16.5 -71.5q0 -6 1.5 -14.5t8.5 -17
t22 -14t42 -5.5q39 0 111 26.5t172 96.5q17 26 33.5 50.5t33.5 48.5q22 31 47.5 62.5t49.5 57.5t44.5 42.5t32.5 16.5q15 0 15 -18q0 -17 -15.5 -43t-42.5 -57t-63.5 -64.5t-78.5 -66.5q-18 -34 -43 -80t-48 -86q66 20 136.5 36.5t140.5 31.5q10 0 8.5 -4t-8.5 -6
q-69 -13 -141.5 -31.5t-142.5 -38.5q-26 -45 -58.5 -97.5t-70.5 -103t-80.5 -94t-87.5 -70.5q-29 -17 -61.5 -27t-65.5 -10q-20 0 -40.5 4.5t-37.5 14t-28 25.5t-11 40q0 28 14 54t36.5 49t51 43t58.5 36t58 29t49 22q51 21 108.5 41.5t114.5 37.5l40 68t41 67
q-88 -58 -157.5 -85t-121.5 -27q-15 0 -34 3.5t-35.5 13t-28 25.5t-11.5 40q0 27 15 62.5t43 73.5t68.5 75.5t90 69t108 54t123.5 29.5q8 19 24 38q14 16 28 28t29 20q1 1 4 1q3 -2 3 -6q-19 -12 -39 -32.5t-23 -46.5zM440 77q-55 -17 -110.5 -36.5t-103.5 -39.5
q-33 -14 -73 -34t-74 -47t-57 -61.5t-23 -76.5q0 -40 26 -59t62 -19q51 0 107 36q37 24 72 65t66 88t58 95.5t50 88.5zM786 504q0 7 -7 7q-9 0 -25.5 -15t-37 -40t-44 -58.5t-45.5 -70.5q-6 -10 -12 -19.5t-11 -19.5q34 28 67 62.5t58.5 65.5t41 55t15.5 33z" />
    <glyph glyph-name="Hcircumflex" unicode="&#x124;" horiz-adv-x="742" 
d="M1000 565q0 -18 -11 -43.5t-43.5 -55.5t-92.5 -62.5t-158 -65.5q-42 -72 -63.5 -129.5t-21.5 -102.5t22 -67.5t61 -22.5q35 0 77 19q3 3 7.5 -0.5t-3.5 -7.5q-29 -12 -65 -22.5t-67 -10.5q-43 0 -65 22.5t-22 64.5q0 21 7.5 49.5t20.5 60.5t30 66.5t36 66.5
q-54 -20 -113.5 -38t-128.5 -50q-18 -30 -38 -60.5t-46.5 -61t-61 -59.5t-80.5 -55q-2 -11 -3.5 -21t-1.5 -20q0 -24 7 -48.5t20.5 -44.5t33 -33t44.5 -13q7 0 17 2q3 0 4 -2t-1 -4q-7 -2 -14.5 -3t-13.5 -1q-17 0 -36.5 5.5t-37 20t-29 38.5t-11.5 62q0 26 8 55
q-20 -10 -51.5 -17.5t-67.5 -7.5q-21 0 -44.5 5.5t-44 20t-34 40t-13.5 64.5q0 9 1 21t3 21q2 6 4 5.5t3 -5.5q-1 -5 -1.5 -10t-0.5 -10q0 -29 15 -50t38 -35t52 -20.5t58 -6.5q22 0 46.5 3.5t44.5 10.5q10 28 29.5 58.5t48 59.5t64.5 55.5t80 47.5q38 63 69 124.5t60 124.5
q1 2 2 5.5t1 5.5t-4 4t-18 2q-17 0 -37.5 -2t-40.5 -5.5t-37 -8.5t-28 -11q-30 -15 -57 -40t-47 -55.5t-32 -64t-12 -65.5q0 -9 -3.5 -8.5t-5.5 8.5q0 2 -0.5 4t-0.5 5q0 19 13.5 56t36 76.5t53 74.5t65.5 51q12 6 31.5 11t43 9t49.5 7t51 4q5 0 8 4.5t9 19.5q2 5 5.5 3
t1.5 -7q-18 -42 -38 -86t-40.5 -86.5t-41 -81.5t-39.5 -71q32 15 62.5 26t60 20t59 18.5t59.5 21.5q33 55 72 103.5t79 84t79 56t72 20.5q43 0 43 -35zM957 557q0 26 -24 26q-47 0 -102.5 -54.5t-129.5 -178.5q51 16 97.5 37t81.5 47t56 56.5t21 66.5zM392 232
q-48 -27 -83.5 -55.5t-60 -55.5t-39.5 -51.5t-22 -43.5q63 26 113 79.5t92 126.5zM770 615q0 -12 -4 -15q-3 -2 -8 -7t-8 -5t-3 7q0 20 -1 45t-2 45q0 6 -4 6q-2 0 -5 -3q-19 -17 -39.5 -38t-37.5 -40q-9 -11 -13 -11t-4 5t9 13q17 15 37 34t37 36q8 8 16 15.5t16 12.5
q6 2 5 2q4 0 4 -5q1 -28 3 -54t2 -43z" />
    <glyph glyph-name="Hbar" unicode="&#x126;" horiz-adv-x="746" 
d="M1004 565q0 -19 -12.5 -48t-47.5 -63t-97 -70t-160 -69q-41 -71 -57 -118t-16 -91q0 -45 22 -67.5t61 -22.5q35 0 77 19q3 3 7.5 -0.5t-3.5 -7.5q-29 -12 -65 -22.5t-67 -10.5q-43 0 -65 22.5t-22 64.5t22 98t60 122q-54 -20 -113.5 -38t-128.5 -50q-41 -64 -90.5 -118
t-123.5 -95q-2 -11 -3.5 -21t-1.5 -20q0 -24 7 -48.5t20.5 -44.5t33 -33t44.5 -13q7 0 17 2q3 0 4 -2t-1 -4q-7 -2 -14.5 -3t-13.5 -1q-17 0 -36.5 5.5t-37 20t-29 38.5t-11.5 62q0 26 8 55q-20 -10 -51.5 -17.5t-67.5 -7.5q-21 0 -44.5 5.5t-44 20t-34 40t-13.5 64.5
q0 9 1 21t3 21q2 6 4 5.5t3 -5.5q-1 -5 -1.5 -10t-0.5 -10q0 -29 15 -50t38 -35t52 -20.5t58 -6.5q22 0 46.5 3.5t44.5 10.5q17 51 69.5 103t140.5 95q13 21 26 44t26 47q-55 -20 -91.5 -48.5t-49.5 -59.5q-4 -8 -5 -8.5t-2 5.5q10 79 154 124q23 45 44 87.5t39 80.5
q1 2 2 5.5t1 5.5t-4 4t-18 2q-17 0 -37.5 -2t-40.5 -5.5t-37 -8.5t-28 -11q-30 -15 -57 -40t-47 -55.5t-32 -64t-12 -65.5q0 -9 -3.5 -8.5t-5.5 8.5q0 2 -0.5 4t-0.5 5q0 19 13.5 56t36 76.5t53 74.5t65.5 51q12 6 31.5 11t43 9t49.5 7t51 4q5 0 8 4.5t9 19.5q2 5 5.5 3
t1.5 -7q-24 -57 -55 -122t-61 -125q15 6 53.5 18t80.5 25t77 25t44 18q30 39 62.5 73t64.5 59t62 39.5t56 14.5q43 0 43 -35zM961 557q0 26 -24 26q-48 0 -108.5 -65t-135.5 -191q51 16 99 40.5t85.5 54.5t60.5 64.5t23 70.5zM647 313q12 20 25.5 40.5t27.5 40.5
q-85 -26 -149 -46t-96 -32q-14 -26 -26 -48t-23 -41q32 15 62.5 26t60 20t59 18.5t59.5 21.5zM384 209q-46 -24 -79.5 -49.5t-57 -49.5t-37 -46t-19.5 -38q51 20 102 67t91 116z" />
    <glyph glyph-name="Igrave" unicode="&#xcc;" horiz-adv-x="362" 
d="M577 564q5 -11 -4 -14q-20 -9 -38 -26.5t-39.5 -50.5t-50 -84t-68.5 -127q-28 -52 -57 -101.5t-63 -87.5t-74.5 -61.5t-91.5 -23.5q-29 0 -52 12.5t-30 39.5q2 4 3.5 5t4.5 -4q5 -20 21.5 -31t47.5 -11q36 0 69.5 26t65 66.5t62 91t60.5 98.5q22 34 45 70.5t48.5 71.5
t54.5 66.5t62 55.5q-20 1 -44 1.5t-48 0.5q-52 0 -92.5 -7t-68 -23t-42 -43t-14.5 -66q0 -34 14.5 -55.5t33.5 -29.5q11 -5 9 -6t-6 -1q-14 0 -39 -5q-45 23 -45 77q0 55 28 89t69 52.5t89 24.5t87 6q12 0 26.5 -0.5t28 -0.5t23.5 1t15 4zM491 599q0 -6 -5 -1q-13 23 -26 48
t-23 45q-3 6 -3 11q0 4 4 9.5t6 5.5q3 0 4 -4q4 -11 10 -25.5t12.5 -30t12 -31t8.5 -27.5z" />
    <glyph glyph-name="Iacute" unicode="&#xcd;" horiz-adv-x="362" 
d="M577 564q5 -11 -4 -14q-20 -9 -38 -26.5t-39.5 -50.5t-50 -84t-68.5 -127q-28 -52 -57 -101.5t-63 -87.5t-74.5 -61.5t-91.5 -23.5q-29 0 -52 12.5t-30 39.5q2 4 3.5 5t4.5 -4q5 -20 21.5 -31t47.5 -11q36 0 69.5 26t65 66.5t62 91t60.5 98.5q22 34 45 70.5t48.5 71.5
t54.5 66.5t62 55.5q-20 1 -44 1.5t-48 0.5q-52 0 -92.5 -7t-68 -23t-42 -43t-14.5 -66q0 -34 14.5 -55.5t33.5 -29.5q11 -5 9 -6t-6 -1q-14 0 -39 -5q-45 23 -45 77q0 55 28 89t69 52.5t89 24.5t87 6q12 0 26.5 -0.5t28 -0.5t23.5 1t15 4zM607 713q0 -2 -3 -5
q-35 -27 -76.5 -57t-83.5 -58q-5 -3 -6.5 -1.5t0.5 3.5q37 30 77.5 63t78.5 63q6 2 5 2q2 0 5 -3.5t3 -6.5z" />
    <glyph glyph-name="Icircumflex" unicode="&#xce;" horiz-adv-x="362" 
d="M577 564q5 -11 -4 -14q-20 -9 -38 -26.5t-39.5 -50.5t-50 -84t-68.5 -127q-28 -52 -57 -101.5t-63 -87.5t-74.5 -61.5t-91.5 -23.5q-29 0 -52 12.5t-30 39.5q2 4 3.5 5t4.5 -4q5 -20 21.5 -31t47.5 -11q36 0 69.5 26t65 66.5t62 91t60.5 98.5q22 34 45 70.5t48.5 71.5
t54.5 66.5t62 55.5q-20 1 -44 1.5t-48 0.5q-52 0 -92.5 -7t-68 -23t-42 -43t-14.5 -66q0 -34 14.5 -55.5t33.5 -29.5q11 -5 9 -6t-6 -1q-14 0 -39 -5q-45 23 -45 77q0 55 28 89t69 52.5t89 24.5t87 6q12 0 26.5 -0.5t28 -0.5t23.5 1t15 4zM540 635q0 -12 -4 -15q-3 -2 -8 -7
t-8 -5t-3 7q0 20 -1 45t-2 45q0 6 -4 6q-2 0 -5 -3q-19 -17 -39.5 -38t-37.5 -40q-9 -11 -13 -11t-4 5t9 13q17 15 37 34t37 36q8 8 16 15.5t16 12.5q6 2 5 2q4 0 4 -5q1 -28 3 -54t2 -43z" />
    <glyph glyph-name="Itilde" unicode="&#x128;" horiz-adv-x="362" 
d="M577 564q5 -11 -4 -14q-20 -9 -38 -26.5t-39.5 -50.5t-50 -84t-68.5 -127q-28 -52 -57 -101.5t-63 -87.5t-74.5 -61.5t-91.5 -23.5q-29 0 -52 12.5t-30 39.5q2 4 3.5 5t4.5 -4q5 -20 21.5 -31t47.5 -11q36 0 69.5 26t65 66.5t62 91t60.5 98.5q22 34 45 70.5t48.5 71.5
t54.5 66.5t62 55.5q-20 1 -44 1.5t-48 0.5q-52 0 -92.5 -7t-68 -23t-42 -43t-14.5 -66q0 -34 14.5 -55.5t33.5 -29.5q11 -5 9 -6t-6 -1q-14 0 -39 -5q-45 23 -45 77q0 55 28 89t69 52.5t89 24.5t87 6q12 0 26.5 -0.5t28 -0.5t23.5 1t15 4zM577 677q-3 -23 -20 -42.5
t-40 -19.5q-14 0 -26 8.5t-22.5 19t-20.5 19t-21 8.5q-8 0 -16.5 -5t-16.5 -12.5t-14.5 -15t-10.5 -13.5q-5 -7 -9 -5t3 11q8 11 23 25t29 25q13 10 26 10q11 0 21.5 -9t21 -19.5t21.5 -19.5t25 -9q17 0 27.5 14t10.5 30q0 5 4.5 7.5t4.5 -7.5z" />
    <glyph glyph-name="Idieresis" unicode="&#xcf;" horiz-adv-x="362" 
d="M577 564q5 -11 -4 -14q-20 -9 -38 -26.5t-39.5 -50.5t-50 -84t-68.5 -127q-28 -52 -57 -101.5t-63 -87.5t-74.5 -61.5t-91.5 -23.5q-29 0 -52 12.5t-30 39.5q2 4 3.5 5t4.5 -4q5 -20 21.5 -31t47.5 -11q36 0 69.5 26t65 66.5t62 91t60.5 98.5q22 34 45 70.5t48.5 71.5
t54.5 66.5t62 55.5q-20 1 -44 1.5t-48 0.5q-52 0 -92.5 -7t-68 -23t-42 -43t-14.5 -66q0 -34 14.5 -55.5t33.5 -29.5q11 -5 9 -6t-6 -1q-14 0 -39 -5q-45 23 -45 77q0 55 28 89t69 52.5t89 24.5t87 6q12 0 26.5 -0.5t28 -0.5t23.5 1t15 4zM536 648q0 -12 -10.5 -24
t-23.5 -12q-12 0 -12 12q0 13 9.5 25t23.5 12q13 0 13 -13zM464 654q0 -12 -10.5 -24t-23.5 -12q-12 0 -12 12q0 13 9.5 25t23.5 12q13 0 13 -13z" />
    <glyph glyph-name="Imacron" unicode="&#x12a;" horiz-adv-x="362" 
d="M577 564q5 -11 -4 -14q-20 -9 -38 -26.5t-39.5 -50.5t-50 -84t-68.5 -127q-28 -52 -57 -101.5t-63 -87.5t-74.5 -61.5t-91.5 -23.5q-29 0 -52 12.5t-30 39.5q2 4 3.5 5t4.5 -4q5 -20 21.5 -31t47.5 -11q36 0 69.5 26t65 66.5t62 91t60.5 98.5q22 34 45 70.5t48.5 71.5
t54.5 66.5t62 55.5q-20 1 -44 1.5t-48 0.5q-52 0 -92.5 -7t-68 -23t-42 -43t-14.5 -66q0 -34 14.5 -55.5t33.5 -29.5q11 -5 9 -6t-6 -1q-14 0 -39 -5q-45 23 -45 77q0 55 28 89t69 52.5t89 24.5t87 6q12 0 26.5 -0.5t28 -0.5t23.5 1t15 4zM506 620l-88 -2l5 15l86 2z" />
    <glyph glyph-name="Idotaccent" unicode="&#x130;" horiz-adv-x="362" 
d="M577 564q5 -11 -4 -14q-20 -9 -38 -26.5t-39.5 -50.5t-50 -84t-68.5 -127q-28 -52 -57 -101.5t-63 -87.5t-74.5 -61.5t-91.5 -23.5q-29 0 -52 12.5t-30 39.5q2 4 3.5 5t4.5 -4q5 -20 21.5 -31t47.5 -11q36 0 69.5 26t65 66.5t62 91t60.5 98.5q22 34 45 70.5t48.5 71.5
t54.5 66.5t62 55.5q-20 1 -44 1.5t-48 0.5q-52 0 -92.5 -7t-68 -23t-42 -43t-14.5 -66q0 -34 14.5 -55.5t33.5 -29.5q11 -5 9 -6t-6 -1q-14 0 -39 -5q-45 23 -45 77q0 55 28 89t69 52.5t89 24.5t87 6q12 0 26.5 -0.5t28 -0.5t23.5 1t15 4zM502 654q0 -11 -10 -20.5t-21 -9.5
q-16 0 -16 18q0 11 7.5 19.5t20.5 8.5q8 0 13.5 -3t5.5 -13z" />
    <glyph glyph-name="Iogonek" unicode="&#x12e;" horiz-adv-x="362" 
d="M577 564q5 -11 -4 -14q-20 -9 -38 -26.5t-39.5 -50.5t-50 -84t-68.5 -127q-28 -52 -57 -101.5t-63 -87.5t-74.5 -61.5t-91.5 -23.5q-29 0 -52 12.5t-30 39.5q2 4 3.5 5t4.5 -4q5 -20 21.5 -31t47.5 -11q36 0 69.5 26t65 66.5t62 91t60.5 98.5q22 34 45 70.5t48.5 71.5
t54.5 66.5t62 55.5q-20 1 -44 1.5t-48 0.5q-52 0 -92.5 -7t-68 -23t-42 -43t-14.5 -66q0 -34 14.5 -55.5t33.5 -29.5q11 -5 9 -6t-6 -1q-14 0 -39 -5q-45 23 -45 77q0 55 28 89t69 52.5t89 24.5t87 6q12 0 26.5 -0.5t28 -0.5t23.5 1t15 4zM172 10q0 -2 -4 -3
q-31 -11 -50.5 -30.5t-19.5 -37.5q0 -14 10 -22t24 -8q3 0 6 1t6 1t2 -2.5t-4 -3.5q-8 -2 -15 -3.5t-18 -1.5q-20 0 -31.5 8t-11.5 21q0 15 20 35q8 7 20.5 15.5t25 15.5t23 12t14.5 5q3 0 3 -2z" />
    <glyph glyph-name="Jcircumflex" unicode="&#x134;" horiz-adv-x="394" 
d="M620 622q-6 -2 -19 -19.5t-27.5 -40.5t-28.5 -48t-23 -43q-40 -78 -80.5 -160.5t-91.5 -179.5q10 -8 21.5 -13.5t29.5 -11.5q5 -2 -1 -6q-11 2 -21 -2.5t-19 -9.5q-11 0 -30 9q-33 -53 -76.5 -107.5t-94 -99t-107.5 -72.5t-117 -28q-39 0 -54 6.5t-22 9.5q-3 -2 -8.5 -6
t-10.5 -10q-7 2 -14 15t-13 32t-9.5 41.5t-3.5 44.5q0 8 2.5 20t6.5 22q5 6 10.5 12.5t9.5 11.5q1 2 2 1.5t1 -2.5q-1 -7 -1.5 -18t-0.5 -21q0 -29 8 -55.5t23 -46.5t37 -32t51 -12q34 0 71.5 13t79.5 48t89 96.5t102 159.5q-19 12 -38.5 29t-35.5 38t-26 46t-10 54
q0 33 11.5 65t39.5 62t74.5 58t116.5 54q12 4 27 10t29 12.5t24.5 11.5t15.5 8q9 4 15 12t11 16.5t11.5 16t16.5 10.5t22.5 5.5t23.5 2.5q5 0 5.5 -3.5t-4.5 -5.5zM518 539q1 1 2.5 3.5t1.5 4t-2.5 2t-8.5 -2.5q-23 -8 -51.5 -18t-57.5 -21q-33 -12 -65.5 -28.5t-58.5 -38
t-42.5 -49.5t-16.5 -62q0 -54 26.5 -99.5t66.5 -72.5q27 47 54.5 96.5t54.5 99t51.5 97t45.5 89.5zM579 685q0 -12 -4 -15q-3 -2 -8 -7t-8 -5t-3 7q0 20 -1 45t-2 45q0 6 -4 6q-2 0 -5 -3q-19 -17 -39.5 -38t-37.5 -40q-9 -11 -13 -11t-4 5t9 13q17 15 37 34t37 36
q8 8 16 15.5t16 12.5q6 2 5 2q4 0 4 -5q1 -28 3 -54t2 -43z" />
    <glyph glyph-name="Kcommaaccent" unicode="&#x136;" horiz-adv-x="747" 
d="M427 -78q0 -17 -8.5 -34t-21.5 -31.5t-28 -26.5t-28 -20q-5 -2 -7 1t2 6q23 14 41.5 36t18.5 48q0 17 -6 23.5t-6 12.5q0 3 10 12q5 4 9.5 8t6.5 4q6 0 11.5 -11t5.5 -28zM1055 -5q-13 -21 -32.5 -37t-43 -27t-49.5 -17t-50 -6q-49 0 -100.5 14t-107 51t-117 102
t-130.5 168q-5 9 -10 4q-26 -48 -52 -95t-58 -83.5t-74 -59t-100 -22.5q-51 0 -81 23t-43 52q0 11 6 3q11 -23 36 -41.5t72 -18.5q33 0 68.5 10.5t71.5 38t73 75.5t74 122q-5 -2 -13.5 -9.5t-12.5 -10.5q-3 -2 -6.5 1t2.5 8q9 6 20.5 16t18.5 15q16 27 32.5 57t32 60t29 57
t23.5 48q-40 0 -79 6q-36 5 -68.5 11t-68.5 6q-33 0 -55.5 -11.5t-37 -31t-21 -46.5t-6.5 -58q0 -19 3.5 -40.5t8.5 -37.5q0 -5 -3 -4.5t-5 3.5q-8 20 -13 51.5t-5 54.5q0 25 7 54t24 53t44 40t68 16q15 0 34 -2.5t37.5 -5.5t34.5 -6.5t25 -5.5q38 -7 53.5 -9t23.5 -2
q16 0 22.5 8t11.5 21q4 4 8.5 2t4.5 -7q-43 -75 -80 -142.5t-64 -118.5q79 64 146 114.5t125.5 86t111 54t102.5 18.5q19 0 33 -6.5t23.5 -15.5t16 -18t11.5 -13q0 -3 -2 -6t-5 0q-11 12 -29.5 18.5t-48.5 6.5q-56 0 -108.5 -14t-108.5 -44.5t-120.5 -77.5t-145.5 -113
q53 -72 113.5 -136.5t123 -112.5t123.5 -76.5t115 -28.5q39 0 74 18t60 51q5 11 7 -1z" />
    <glyph glyph-name="Lacute" unicode="&#x139;" horiz-adv-x="926" 
d="M936 204q0 -51 -13.5 -95t-43 -76.5t-75 -50.5t-109.5 -18q-33 0 -69 4.5t-81.5 16t-103.5 31.5t-136 51q-33 -32 -73 -53t-88 -21q-32 0 -58 6t-45 21t-29.5 40.5t-10.5 63.5q0 20 6 41.5t13 33.5l7 3q57 -29 129 -61.5t148 -61.5q17 17 39 50t43 68t38 64.5t25 40.5
q34 56 72 103t77 81t78 53t76 19q26 0 42 -11.5t16 -26.5q-5 -5 -13.5 -15.5t-13.5 -21.5q-4 -7 -7 0q-7 17 -24 34t-43 17q-19 0 -41 -8.5t-53 -38.5t-74 -87.5t-104 -154.5q-24 -38 -56 -85t-68 -85q58 -23 105.5 -36.5t87.5 -21t75.5 -9.5t69.5 -2q60 0 110 14t86 41.5
t56 67.5t20 91q0 57 -29 98q-3 5 -1 6t5 -2q17 -17 27.5 -50.5t10.5 -67.5zM297 71q-8 3 -26 10t-40.5 16.5t-47.5 20.5t-49 22q-28 12 -46 18.5t-27 6.5q-6 0 -12 -16.5t-6 -34.5q0 -54 25.5 -82t86.5 -28q33 0 72 17.5t70 49.5zM691 616q0 -2 -3 -5q-35 -27 -76.5 -57
t-83.5 -58q-5 -3 -6.5 -1.5t0.5 3.5q37 30 77.5 63t78.5 63q6 2 5 2q2 0 5 -3.5t3 -6.5z" />
    <glyph glyph-name="Lcaron" unicode="&#x13d;" horiz-adv-x="926" 
d="M935 204q0 -51 -13.5 -95t-43 -76.5t-75 -50.5t-109.5 -18q-33 0 -69 4.5t-81.5 16t-103.5 31.5t-136 51q-33 -32 -73 -53t-88 -21q-32 0 -58 6t-45 21t-29.5 40.5t-10.5 63.5q0 20 6 41.5t13 33.5l7 3q57 -29 129 -61.5t148 -61.5q17 17 39 50t43 68t38 64.5t25 40.5
q34 56 72 103t77 81t78 53t76 19q17 0 27.5 -9t10.5 -20q-7 -9 -10.5 -17.5t-7.5 -19.5q-4 -8 -7 0q-7 17 -18.5 29.5t-37.5 12.5q-19 0 -41 -8.5t-53 -38.5t-74 -87.5t-104 -154.5q-24 -38 -56 -85t-68 -85q58 -23 105.5 -36.5t87.5 -21t75.5 -9.5t69.5 -2q60 0 110 14
t86 41.5t56 67.5t20 91q0 57 -29 98q-3 5 -1 6t5 -2q17 -17 27.5 -50.5t10.5 -67.5zM296 71q-8 3 -26 10t-40.5 16.5t-47.5 20.5t-49 22q-28 12 -46 18.5t-27 6.5q-6 0 -12 -16.5t-6 -34.5q0 -54 25.5 -82t86.5 -28q33 0 72 17.5t70 49.5zM859 509q0 -17 -8.5 -34
t-21.5 -31.5t-28 -26.5t-28 -20q-5 -2 -7 1t2 6q23 14 41.5 36t18.5 48q0 17 -6 23.5t-6 12.5q0 3 10 12q5 4 9.5 8t6.5 4q6 0 11.5 -11t5.5 -28z" />
    <glyph glyph-name="Lcommaaccent" unicode="&#x13b;" horiz-adv-x="926" 
d="M935 204q0 -51 -13.5 -95t-43 -76.5t-75 -50.5t-109.5 -18q-33 0 -69 4.5t-81.5 16t-103.5 31.5t-136 51q-33 -32 -73 -53t-88 -21q-32 0 -58 6t-45 21t-29.5 40.5t-10.5 63.5q0 20 6 41.5t13 33.5l7 3q57 -29 129 -61.5t148 -61.5q17 17 39 50t43 68t38 64.5t25 40.5
q34 56 72 103t77 81t78 53t76 19q26 0 42 -11.5t16 -26.5q-5 -5 -13.5 -15.5t-13.5 -21.5q-4 -7 -7 0q-7 17 -24 34t-43 17q-19 0 -41 -8.5t-53 -38.5t-74 -87.5t-104 -154.5q-24 -38 -56 -85t-68 -85q58 -23 105.5 -36.5t87.5 -21t75.5 -9.5t69.5 -2q60 0 110 14t86 41.5
t56 67.5t20 91q0 57 -29 98q-3 5 -1 6t5 -2q17 -17 27.5 -50.5t10.5 -67.5zM296 71q-8 3 -26 10t-40.5 16.5t-47.5 20.5t-49 22q-28 12 -46 18.5t-27 6.5q-6 0 -12 -16.5t-6 -34.5q0 -54 25.5 -82t86.5 -28q33 0 72 17.5t70 49.5zM435 -78q0 -17 -8.5 -34t-21.5 -31.5
t-28 -26.5t-28 -20q-5 -2 -7 1t2 6q23 14 41.5 36t18.5 48q0 17 -6 23.5t-6 12.5q0 3 10 12q5 4 9.5 8t6.5 4q6 0 11.5 -11t5.5 -28z" />
    <glyph glyph-name="Lslash" unicode="&#x141;" horiz-adv-x="926" 
d="M935 204q0 -51 -13.5 -95t-43 -76.5t-75 -50.5t-109.5 -18q-33 0 -69 4.5t-81.5 16t-103.5 31.5t-136 51q-33 -32 -73 -53t-88 -21q-32 0 -58 6t-45 21t-29.5 40.5t-10.5 63.5q0 20 6 41.5t13 33.5l7 3q57 -29 129 -61.5t148 -61.5q11 11 25 30t28.5 41.5t29.5 47
t27 45.5l-111 -12q-4 -3 -8 5.5t-4 10.5t3 2q15 -3 21 -3q14 0 40.5 2.5t66.5 7.5q10 17 16.5 28t10.5 18q34 56 72 103t77 81t78 53t76 19q26 0 42 -11.5t16 -26.5q-5 -5 -13.5 -15.5t-13.5 -21.5q-4 -7 -7 0q-7 17 -24 34t-43 17q-19 0 -40.5 -8.5t-51.5 -37t-71.5 -83
t-99.5 -146.5q117 15 154 15q18 0 23 -1q6 -2 7.5 -7t-3.5 -10q-5 1 -9 1.5t-6 0.5q-22 0 -65.5 -3t-109.5 -10q-24 -38 -56 -85t-68 -85q58 -23 105.5 -36.5t87.5 -21t75.5 -9.5t69.5 -2q60 0 110 14t86 41.5t56 67.5t20 91q0 57 -29 98q-3 5 -1 6t5 -2q17 -17 27.5 -50.5
t10.5 -67.5zM296 71q-8 3 -26 10t-40.5 16.5t-47.5 20.5t-49 22q-28 12 -46 18.5t-27 6.5q-6 0 -12 -16.5t-6 -34.5q0 -54 25.5 -82t86.5 -28q33 0 72 17.5t70 49.5z" />
    <glyph glyph-name="Ldot" unicode="&#x13f;" horiz-adv-x="926" 
d="M935 204q0 -51 -13.5 -95t-43 -76.5t-75 -50.5t-109.5 -18q-33 0 -69 4.5t-81.5 16t-103.5 31.5t-136 51q-33 -32 -73 -53t-88 -21q-32 0 -58 6t-45 21t-29.5 40.5t-10.5 63.5q0 20 6 41.5t13 33.5l7 3q57 -29 129 -61.5t148 -61.5q17 17 39 50t43 68t38 64.5t25 40.5
q34 56 72 103t77 81t78 53t76 19q26 0 42 -11.5t16 -26.5q-5 -5 -13.5 -15.5t-13.5 -21.5q-4 -7 -7 0q-7 17 -24 34t-43 17q-19 0 -41 -8.5t-53 -38.5t-74 -87.5t-104 -154.5q-24 -38 -56 -85t-68 -85q58 -23 105.5 -36.5t87.5 -21t75.5 -9.5t69.5 -2q60 0 110 14t86 41.5
t56 67.5t20 91q0 57 -29 98q-3 5 -1 6t5 -2q17 -17 27.5 -50.5t10.5 -67.5zM296 71q-8 3 -26 10t-40.5 16.5t-47.5 20.5t-49 22q-28 12 -46 18.5t-27 6.5q-6 0 -12 -16.5t-6 -34.5q0 -54 25.5 -82t86.5 -28q33 0 72 17.5t70 49.5zM669 247q0 -11 -10 -20.5t-21 -9.5
q-16 0 -16 18q0 11 7.5 19.5t20.5 8.5q8 0 13.5 -3t5.5 -13z" />
    <glyph glyph-name="Nacute" unicode="&#x143;" horiz-adv-x="669" 
d="M883 517q0 -34 -17 -73q-3 -5 -5.5 -4t-3.5 4q5 10 9 23.5t4 24.5q0 22 -17.5 27.5t-38.5 5.5q-9 0 -23.5 -1t-30.5 -2.5t-32.5 -3t-29.5 -3.5q28 -35 33.5 -58t5.5 -45q0 -34 -15.5 -80t-41 -95.5t-58.5 -97.5t-69 -86t-72.5 -61.5t-67.5 -23.5q-21 0 -32.5 12.5t-17 32
t-6.5 42t-1 43.5q0 36 -0.5 83.5t-1 92t-1.5 78.5t-2 45q-2 23 -9.5 36.5t-18.5 13.5q-47 0 -179 -205q-45 -71 -78 -129t-54 -106t-31.5 -88t-10.5 -75q-2 -8 -7 -1q-5 28 -8.5 47t-3.5 24q0 21 41.5 105t143.5 230q37 52 70 97.5t61.5 79.5t52 53.5t40.5 19.5
q11 0 17.5 -8t10 -18.5t4.5 -22.5t1 -19q0 -36 -1 -80.5t-1 -86.5q0 -79 3 -130t10.5 -81t20 -42t32.5 -12q21 0 48 21t55 56t55 80.5t48 94.5t34 98.5t13 91.5q0 20 -4 39.5t-17 33.5q-18 -2 -41 -4t-34 -2t-28 2t-33 6.5t-27.5 12.5t-11.5 19q0 12 18 18t46 6
q25 0 51 -7.5t54 -31.5q10 2 29.5 6t41.5 8.5t43.5 7.5t36.5 3q31 0 40 -8t9 -33zM674 531q-14 16 -39.5 23t-47.5 7q-51 0 -51 -22q0 -11 15.5 -15t32.5 -4q20 0 44.5 3t45.5 8zM727 733q0 -2 -3 -5q-35 -27 -76.5 -57t-83.5 -58q-5 -3 -6.5 -1.5t0.5 3.5q37 30 77.5 63
t78.5 63q6 2 5 2q2 0 5 -3.5t3 -6.5z" />
    <glyph glyph-name="Ncaron" unicode="&#x147;" horiz-adv-x="669" 
d="M883 517q0 -34 -17 -73q-3 -5 -5.5 -4t-3.5 4q5 10 9 23.5t4 24.5q0 22 -17.5 27.5t-38.5 5.5q-9 0 -23.5 -1t-30.5 -2.5t-32.5 -3t-29.5 -3.5q28 -35 33.5 -58t5.5 -45q0 -34 -15.5 -80t-41 -95.5t-58.5 -97.5t-69 -86t-72.5 -61.5t-67.5 -23.5q-21 0 -32.5 12.5t-17 32
t-6.5 42t-1 43.5q0 36 -0.5 83.5t-1 92t-1.5 78.5t-2 45q-2 23 -9.5 36.5t-18.5 13.5q-47 0 -179 -205q-45 -71 -78 -129t-54 -106t-31.5 -88t-10.5 -75q-2 -8 -7 -1q-5 28 -8.5 47t-3.5 24q0 21 41.5 105t143.5 230q37 52 70 97.5t61.5 79.5t52 53.5t40.5 19.5
q11 0 17.5 -8t10 -18.5t4.5 -22.5t1 -19q0 -36 -1 -80.5t-1 -86.5q0 -79 3 -130t10.5 -81t20 -42t32.5 -12q21 0 48 21t55 56t55 80.5t48 94.5t34 98.5t13 91.5q0 20 -4 39.5t-17 33.5q-18 -2 -41 -4t-34 -2t-28 2t-33 6.5t-27.5 12.5t-11.5 19q0 12 18 18t46 6
q25 0 51 -7.5t54 -31.5q10 2 29.5 6t41.5 8.5t43.5 7.5t36.5 3q31 0 40 -8t9 -33zM674 531q-14 16 -39.5 23t-47.5 7q-51 0 -51 -22q0 -11 15.5 -15t32.5 -4q20 0 44.5 3t45.5 8zM677 726q0 -6 -8 -12q-19 -16 -38.5 -34.5t-36.5 -35.5q-10 -10 -21.5 -19.5t-14.5 -9.5
q-5 0 -5 5q0 6 -1 19.5t-2.5 28.5t-2.5 29t-1 22q0 7 5 12q2 2 9 7t9 5q3 0 3 -7q0 -12 0.5 -26t0.5 -27t0.5 -23t0.5 -14q0 -6 4 -6q2 0 5 3q19 16 40.5 38.5t35.5 39.5q9 12 13 12q5 0 5 -7z" />
    <glyph glyph-name="Ntilde" unicode="&#xd1;" horiz-adv-x="669" 
d="M883 517q0 -34 -17 -73q-3 -5 -5.5 -4t-3.5 4q5 10 9 23.5t4 24.5q0 22 -17.5 27.5t-38.5 5.5q-9 0 -23.5 -1t-30.5 -2.5t-32.5 -3t-29.5 -3.5q28 -35 33.5 -58t5.5 -45q0 -34 -15.5 -80t-41 -95.5t-58.5 -97.5t-69 -86t-72.5 -61.5t-67.5 -23.5q-21 0 -32.5 12.5t-17 32
t-6.5 42t-1 43.5q0 36 -0.5 83.5t-1 92t-1.5 78.5t-2 45q-2 23 -9.5 36.5t-18.5 13.5q-47 0 -179 -205q-45 -71 -78 -129t-54 -106t-31.5 -88t-10.5 -75q-2 -8 -7 -1q-5 28 -8.5 47t-3.5 24q0 21 41.5 105t143.5 230q37 52 70 97.5t61.5 79.5t52 53.5t40.5 19.5
q11 0 17.5 -8t10 -18.5t4.5 -22.5t1 -19q0 -36 -1 -80.5t-1 -86.5q0 -79 3 -130t10.5 -81t20 -42t32.5 -12q21 0 48 21t55 56t55 80.5t48 94.5t34 98.5t13 91.5q0 20 -4 39.5t-17 33.5q-18 -2 -41 -4t-34 -2t-28 2t-33 6.5t-27.5 12.5t-11.5 19q0 12 18 18t46 6
q25 0 51 -7.5t54 -31.5q10 2 29.5 6t41.5 8.5t43.5 7.5t36.5 3q31 0 40 -8t9 -33zM674 531q-14 16 -39.5 23t-47.5 7q-51 0 -51 -22q0 -11 15.5 -15t32.5 -4q20 0 44.5 3t45.5 8zM695 677q-3 -23 -20 -42.5t-40 -19.5q-14 0 -26 8.5t-22.5 19t-20.5 19t-21 8.5
q-8 0 -16.5 -5t-16.5 -12.5t-14.5 -15t-10.5 -13.5q-5 -7 -9 -5t3 11q8 11 23 25t29 25q13 10 26 10q11 0 21.5 -9t21 -19.5t21.5 -19.5t25 -9q17 0 27.5 14t10.5 30q0 5 4.5 7.5t4.5 -7.5z" />
    <glyph glyph-name="Ncommaaccent" unicode="&#x145;" horiz-adv-x="669" 
d="M883 517q0 -34 -17 -73q-3 -5 -5.5 -4t-3.5 4q5 10 9 23.5t4 24.5q0 22 -17.5 27.5t-38.5 5.5q-9 0 -23.5 -1t-30.5 -2.5t-32.5 -3t-29.5 -3.5q28 -35 33.5 -58t5.5 -45q0 -34 -15.5 -80t-41 -95.5t-58.5 -97.5t-69 -86t-72.5 -61.5t-67.5 -23.5q-21 0 -32.5 12.5t-17 32
t-6.5 42t-1 43.5q0 36 -0.5 83.5t-1 92t-1.5 78.5t-2 45q-2 23 -9.5 36.5t-18.5 13.5q-47 0 -179 -205q-45 -71 -78 -129t-54 -106t-31.5 -88t-10.5 -75q-2 -8 -7 -1q-5 28 -8.5 47t-3.5 24q0 21 41.5 105t143.5 230q37 52 70 97.5t61.5 79.5t52 53.5t40.5 19.5
q11 0 17.5 -8t10 -18.5t4.5 -22.5t1 -19q0 -36 -1 -80.5t-1 -86.5q0 -79 3 -130t10.5 -81t20 -42t32.5 -12q21 0 48 21t55 56t55 80.5t48 94.5t34 98.5t13 91.5q0 20 -4 39.5t-17 33.5q-18 -2 -41 -4t-34 -2t-28 2t-33 6.5t-27.5 12.5t-11.5 19q0 12 18 18t46 6
q25 0 51 -7.5t54 -31.5q10 2 29.5 6t41.5 8.5t43.5 7.5t36.5 3q31 0 40 -8t9 -33zM674 531q-14 16 -39.5 23t-47.5 7q-51 0 -51 -22q0 -11 15.5 -15t32.5 -4q20 0 44.5 3t45.5 8zM252 -78q0 -17 -8.5 -34t-21.5 -31.5t-28 -26.5t-28 -20q-5 -2 -7 1t2 6q23 14 41.5 36
t18.5 48q0 17 -6 23.5t-6 12.5q0 3 10 12q5 4 9.5 8t6.5 4q6 0 11.5 -11t5.5 -28z" />
    <glyph glyph-name="Ograve" unicode="&#xd2;" horiz-adv-x="621" 
d="M470 522q13 -2 27.5 -8t15.5 -11q-8 2 -20 3t-17 1q-43 0 -83.5 -18t-77 -47.5t-67 -68t-52 -79.5t-34 -81.5t-12.5 -74.5q0 -58 31 -92t103 -34q48 0 97 18.5t95.5 50.5t87 74.5t70.5 91.5t47.5 101t17.5 102q0 27 -8 50t-24 40.5t-40.5 27.5t-56.5 10q-35 0 -66 -7.5
t-56 -17.5q-5 1 0 9q25 10 65 20t82 10q75 0 114 -32t39 -101q0 -43 -20.5 -94t-56.5 -103t-84.5 -101t-104.5 -86.5t-116.5 -60.5t-120.5 -23q-75 0 -112.5 35t-37.5 96q0 63 32.5 128t85 121t120 96.5t137.5 54.5zM601 649q0 -6 -5 -1q-13 23 -26 48t-23 45q-3 6 -3 11
q0 4 4 9.5t6 5.5q3 0 4 -4q4 -11 10 -25.5t12.5 -30t12 -31t8.5 -27.5z" />
    <glyph glyph-name="Oacute" unicode="&#xd3;" horiz-adv-x="621" 
d="M470 522q13 -2 27.5 -8t15.5 -11q-8 2 -20 3t-17 1q-43 0 -83.5 -18t-77 -47.5t-67 -68t-52 -79.5t-34 -81.5t-12.5 -74.5q0 -58 31 -92t103 -34q48 0 97 18.5t95.5 50.5t87 74.5t70.5 91.5t47.5 101t17.5 102q0 27 -8 50t-24 40.5t-40.5 27.5t-56.5 10q-35 0 -66 -7.5
t-56 -17.5q-5 1 0 9q25 10 65 20t82 10q75 0 114 -32t39 -101q0 -43 -20.5 -94t-56.5 -103t-84.5 -101t-104.5 -86.5t-116.5 -60.5t-120.5 -23q-75 0 -112.5 35t-37.5 96q0 63 32.5 128t85 121t120 96.5t137.5 54.5zM717 763q0 -2 -3 -5q-35 -27 -76.5 -57t-83.5 -58
q-5 -3 -6.5 -1.5t0.5 3.5q37 30 77.5 63t78.5 63q6 2 5 2q2 0 5 -3.5t3 -6.5z" />
    <glyph glyph-name="Ocircumflex" unicode="&#xd4;" horiz-adv-x="621" 
d="M470 522q13 -2 27.5 -8t15.5 -11q-8 2 -20 3t-17 1q-43 0 -83.5 -18t-77 -47.5t-67 -68t-52 -79.5t-34 -81.5t-12.5 -74.5q0 -58 31 -92t103 -34q48 0 97 18.5t95.5 50.5t87 74.5t70.5 91.5t47.5 101t17.5 102q0 27 -8 50t-24 40.5t-40.5 27.5t-56.5 10q-35 0 -66 -7.5
t-56 -17.5q-5 1 0 9q25 10 65 20t82 10q75 0 114 -32t39 -101q0 -43 -20.5 -94t-56.5 -103t-84.5 -101t-104.5 -86.5t-116.5 -60.5t-120.5 -23q-75 0 -112.5 35t-37.5 96q0 63 32.5 128t85 121t120 96.5t137.5 54.5zM677 665q0 -12 -4 -15q-3 -2 -8 -7t-8 -5t-3 7
q0 20 -1 45t-2 45q0 6 -4 6q-2 0 -5 -3q-19 -17 -39.5 -38t-37.5 -40q-9 -11 -13 -11t-4 5t9 13q17 15 37 34t37 36q8 8 16 15.5t16 12.5q6 2 5 2q4 0 4 -5q1 -28 3 -54t2 -43z" />
    <glyph glyph-name="Otilde" unicode="&#xd5;" horiz-adv-x="621" 
d="M470 522q13 -2 27.5 -8t15.5 -11q-8 2 -20 3t-17 1q-43 0 -83.5 -18t-77 -47.5t-67 -68t-52 -79.5t-34 -81.5t-12.5 -74.5q0 -58 31 -92t103 -34q48 0 97 18.5t95.5 50.5t87 74.5t70.5 91.5t47.5 101t17.5 102q0 27 -8 50t-24 40.5t-40.5 27.5t-56.5 10q-35 0 -66 -7.5
t-56 -17.5q-5 1 0 9q25 10 65 20t82 10q75 0 114 -32t39 -101q0 -43 -20.5 -94t-56.5 -103t-84.5 -101t-104.5 -86.5t-116.5 -60.5t-120.5 -23q-75 0 -112.5 35t-37.5 96q0 63 32.5 128t85 121t120 96.5t137.5 54.5zM703 707q-3 -23 -20 -42.5t-40 -19.5q-14 0 -26 8.5
t-22.5 19t-20.5 19t-21 8.5q-8 0 -16.5 -5t-16.5 -12.5t-14.5 -15t-10.5 -13.5q-5 -7 -9 -5t3 11q8 11 23 25t29 25q13 10 26 10q11 0 21.5 -9t21 -19.5t21.5 -19.5t25 -9q17 0 27.5 14t10.5 30q0 5 4.5 7.5t4.5 -7.5z" />
    <glyph glyph-name="Odieresis" unicode="&#xd6;" horiz-adv-x="621" 
d="M470 522q13 -2 27.5 -8t15.5 -11q-8 2 -20 3t-17 1q-43 0 -83.5 -18t-77 -47.5t-67 -68t-52 -79.5t-34 -81.5t-12.5 -74.5q0 -58 31 -92t103 -34q48 0 97 18.5t95.5 50.5t87 74.5t70.5 91.5t47.5 101t17.5 102q0 27 -8 50t-24 40.5t-40.5 27.5t-56.5 10q-35 0 -66 -7.5
t-56 -17.5q-5 1 0 9q25 10 65 20t82 10q75 0 114 -32t39 -101q0 -43 -20.5 -94t-56.5 -103t-84.5 -101t-104.5 -86.5t-116.5 -60.5t-120.5 -23q-75 0 -112.5 35t-37.5 96q0 63 32.5 128t85 121t120 96.5t137.5 54.5zM656 678q0 -12 -10.5 -24t-23.5 -12q-12 0 -12 12
q0 13 9.5 25t23.5 12q13 0 13 -13zM584 684q0 -12 -10.5 -24t-23.5 -12q-12 0 -12 12q0 13 9.5 25t23.5 12q13 0 13 -13z" />
    <glyph glyph-name="Omacron" unicode="&#x14c;" horiz-adv-x="621" 
d="M470 522q13 -2 27.5 -8t15.5 -11q-8 2 -20 3t-17 1q-43 0 -83.5 -18t-77 -47.5t-67 -68t-52 -79.5t-34 -81.5t-12.5 -74.5q0 -58 31 -92t103 -34q48 0 97 18.5t95.5 50.5t87 74.5t70.5 91.5t47.5 101t17.5 102q0 27 -8 50t-24 40.5t-40.5 27.5t-56.5 10q-35 0 -66 -7.5
t-56 -17.5q-5 1 0 9q25 10 65 20t82 10q75 0 114 -32t39 -101q0 -43 -20.5 -94t-56.5 -103t-84.5 -101t-104.5 -86.5t-116.5 -60.5t-120.5 -23q-75 0 -112.5 35t-37.5 96q0 63 32.5 128t85 121t120 96.5t137.5 54.5zM636 650l-88 -2l5 15l86 2z" />
    <glyph glyph-name="Obreve" unicode="&#x14e;" horiz-adv-x="621" 
d="M470 522q13 -2 27.5 -8t15.5 -11q-8 2 -20 3t-17 1q-43 0 -83.5 -18t-77 -47.5t-67 -68t-52 -79.5t-34 -81.5t-12.5 -74.5q0 -58 31 -92t103 -34q48 0 97 18.5t95.5 50.5t87 74.5t70.5 91.5t47.5 101t17.5 102q0 27 -8 50t-24 40.5t-40.5 27.5t-56.5 10q-35 0 -66 -7.5
t-56 -17.5q-5 1 0 9q25 10 65 20t82 10q75 0 114 -32t39 -101q0 -43 -20.5 -94t-56.5 -103t-84.5 -101t-104.5 -86.5t-116.5 -60.5t-120.5 -23q-75 0 -112.5 35t-37.5 96q0 63 32.5 128t85 121t120 96.5t137.5 54.5zM675 695q0 -3 -2.5 -5.5t-5.5 -7.5q-17 -22 -37 -32
t-38 -10q-21 0 -35 13t-14 37q0 7 6 10.5t12 3.5q4 0 4 -6q0 -19 9.5 -31.5t29.5 -12.5q14 0 29 9t26 26q7 12 11 12q5 0 5 -6z" />
    <glyph glyph-name="Ohungarumlaut" unicode="&#x150;" horiz-adv-x="621" 
d="M470 522q13 -2 27.5 -8t15.5 -11q-8 2 -20 3t-17 1q-43 0 -83.5 -18t-77 -47.5t-67 -68t-52 -79.5t-34 -81.5t-12.5 -74.5q0 -58 31 -92t103 -34q48 0 97 18.5t95.5 50.5t87 74.5t70.5 91.5t47.5 101t17.5 102q0 27 -8 50t-24 40.5t-40.5 27.5t-56.5 10q-35 0 -66 -7.5
t-56 -17.5q-5 1 0 9q25 10 65 20t82 10q75 0 114 -32t39 -101q0 -43 -20.5 -94t-56.5 -103t-84.5 -101t-104.5 -86.5t-116.5 -60.5t-120.5 -23q-75 0 -112.5 35t-37.5 96q0 63 32.5 128t85 121t120 96.5t137.5 54.5zM711 716q0 -4 -6 -11q-15 -16 -34.5 -36t-39.5 -37
q-5 -4 -4.5 -1t1.5 4q4 7 12 18t18 24l20 26t18 24q3 3 6 3q5 0 7 -4.5t2 -9.5zM650 718q0 -6 -7 -13q-15 -16 -35 -36l-39 -39q-2 -2 -3.5 -0.5t0.5 3.5q16 26 35 49t37 47q1 3 5 3q5 0 6 -5.5t1 -8.5z" />
    <glyph glyph-name="Oslash" unicode="&#xd8;" horiz-adv-x="621" 
d="M682 519q-105 -96 -182 -167t-135 -125t-102.5 -96t-84.5 -81q32 -38 106 -38q48 0 97 18.5t95.5 50.5t87 74.5t70.5 91.5t47.5 101t17.5 102q0 37 -17 69zM752 604q4 4 9.5 6t8.5 1t2.5 -5t-7.5 -11l-47 -43q16 -17 23 -37.5t7 -55.5q0 -43 -20.5 -94t-56.5 -103
t-84.5 -101t-104.5 -86.5t-116.5 -60.5t-120.5 -23q-63 0 -101 26q-12 -12 -28 -27.5t-27 -26.5q-13 -13 -20.5 -7t10.5 22l53 49q-37 34 -37 95q0 63 32.5 128t85 121t120 96.5t137.5 54.5q13 -2 27.5 -8t15.5 -11q-8 2 -20 3t-17 1q-43 0 -83.5 -18t-77 -47.5t-67 -68
t-52 -79.5t-34 -81.5t-12.5 -74.5q0 -44 20 -76q45 42 108.5 100.5t132.5 122.5l138 128t126 118q-16 22 -42 34.5t-63 12.5q-35 0 -66 -7.5t-56 -17.5q-5 1 0 9q25 10 65 20t82 10q73 0 112 -30z" />
    <glyph glyph-name="OE" unicode="&#x152;" horiz-adv-x="993" 
d="M505 94q-1 5 -1 10v11q0 34 14.5 62.5t38.5 51t54 39t61 27.5q5 13 9.5 26t6.5 30q-5 9 -9 22q-1 7 -1.5 14.5t-0.5 15.5q0 14 3 22t8 14q-2 20 -9 37.5t-22.5 30t-40 20t-61.5 7.5q-55 0 -106 -17.5t-96 -47t-82.5 -69t-64 -83.5t-41.5 -90t-15 -89q0 -58 31 -92
t103 -34q57 0 113.5 22t107.5 60zM697 456q13 19 34.5 39t49 36t61 26t71.5 10q9 0 20 -1t21 -4.5t16.5 -11t6.5 -19.5q0 -18 -12.5 -29t-23.5 -22q-6 -6 -6 0q1 5 2 11t1 13q0 21 -17 33.5t-56 12.5q-27 0 -54 -10.5t-48.5 -29t-34.5 -45t-13 -59.5q0 -55 22 -74t77 -19
q4 0 4 -3q1 -2 1.5 -5t-2.5 -7q-11 0 -23.5 2t-41.5 2q-33 0 -72 -11q-19 -45 -51.5 -88.5t-75.5 -82.5q3 -38 18 -62.5t38 -39t53 -20t63 -5.5q56 0 109.5 16.5t98.5 45.5t78 67.5t48 82.5q6 22 6 5q0 -6 -1.5 -15.5t-3.5 -16.5q-26 -47 -67.5 -85t-91.5 -65t-104 -41.5
t-104 -14.5q-29 0 -59 4.5t-56.5 17t-45.5 34t-25 56.5q-57 -42 -123.5 -67.5t-138.5 -25.5q-75 0 -112.5 35t-37.5 96q0 42 17 87.5t46.5 90t70.5 86t89 74t101.5 54.5t108.5 28q14 5 25.5 11t19.5 11q40 0 63 -9t35.5 -24t17.5 -34.5t8 -40.5zM684 298q16 5 32 8t31 5
q3 0 3 3q-37 12 -53 26q-2 -10 -5.5 -20t-7.5 -22zM553 134q78 68 115 153q-23 -9 -44 -22.5t-37 -32t-25 -43t-9 -55.5z" />
    <glyph glyph-name="Racute" unicode="&#x154;" horiz-adv-x="654" 
d="M916 -96q-34 -12 -88 -27t-126 -14q-62 1 -112 34t-89.5 89t-67.5 131t-45 160l7 5q37 3 79.5 12.5t79 29t61 51t24.5 79.5q0 49 -42.5 71.5t-108.5 22.5h-17t-15 -1q-15 -27 -35.5 -64.5t-44 -80t-48.5 -87.5t-49 -86.5t-45 -77t-37 -58.5q-16 -24 -37 -37t-53 -30h48
q28 0 48 1.5t34.5 5t24 9t18.5 14.5q3 2 4.5 -1t-0.5 -5q-14 -18 -33 -36t-39 -20q-12 -1 -32 0t-43 2q-23 2 -43.5 3t-33.5 1q-34 0 -51.5 -5.5t-31.5 -16.5q-8 -5 -8 1q11 11 29.5 24t32.5 17q18 5 30.5 5t24 2t24 8.5t30.5 24.5q20 20 46 56.5t54.5 82t58 95.5t56.5 97.5
t50.5 88.5t39.5 67q-44 -4 -95 -15t-94 -30.5t-71.5 -47.5t-28.5 -66q0 -23 2.5 -30t2.5 -11q0 -3 -4 -3q-2 0 -9.5 3t-16.5 9t-16 15.5t-7 23.5q0 31 33 58.5t83.5 49t110.5 35.5t114 17q28 48 52.5 82.5t41.5 34.5q10 0 21 -10t13 -15q2 -3 0.5 -4.5t-3.5 0.5q-8 6 -15 6
q-26 0 -49 -22.5t-49 -70.5q10 1 24.5 1.5t26.5 0.5q34 0 67 -5t59 -16.5t42.5 -31t16.5 -49.5q0 -47 -28.5 -79.5t-69.5 -53t-86 -31t-78 -14.5q9 -40 23 -84.5t33.5 -89t45 -85t58 -71t72.5 -49t88 -18.5q21 0 43 2.5t42.5 7t37.5 10t29 11.5q9 5 11.5 -0.5t-2.5 -7.5z
M737 723q0 -2 -3 -5q-35 -27 -76.5 -57t-83.5 -58q-5 -3 -6.5 -1.5t0.5 3.5q37 30 77.5 63t78.5 63q6 2 5 2q2 0 5 -3.5t3 -6.5z" />
    <glyph glyph-name="Rcaron" unicode="&#x158;" horiz-adv-x="654" 
d="M916 -96q-34 -12 -88 -27t-126 -14q-62 1 -112 34t-89.5 89t-67.5 131t-45 160l7 5q37 3 79.5 12.5t79 29t61 51t24.5 79.5q0 49 -42.5 71.5t-108.5 22.5h-17t-15 -1q-15 -27 -35.5 -64.5t-44 -80t-48.5 -87.5t-49 -86.5t-45 -77t-37 -58.5q-16 -24 -37 -37t-53 -30h48
q28 0 48 1.5t34.5 5t24 9t18.5 14.5q3 2 4.5 -1t-0.5 -5q-14 -18 -33 -36t-39 -20q-12 -1 -32 0t-43 2q-23 2 -43.5 3t-33.5 1q-34 0 -51.5 -5.5t-31.5 -16.5q-8 -5 -8 1q11 11 29.5 24t32.5 17q18 5 30.5 5t24 2t24 8.5t30.5 24.5q20 20 46 56.5t54.5 82t58 95.5t56.5 97.5
t50.5 88.5t39.5 67q-44 -4 -95 -15t-94 -30.5t-71.5 -47.5t-28.5 -66q0 -23 2.5 -30t2.5 -11q0 -3 -4 -3q-2 0 -9.5 3t-16.5 9t-16 15.5t-7 23.5q0 31 33 58.5t83.5 49t110.5 35.5t114 17q28 48 52.5 82.5t41.5 34.5q10 0 21 -10t13 -15q2 -3 0.5 -4.5t-3.5 0.5q-8 6 -15 6
q-26 0 -49 -22.5t-49 -70.5q10 1 24.5 1.5t26.5 0.5q34 0 67 -5t59 -16.5t42.5 -31t16.5 -49.5q0 -47 -28.5 -79.5t-69.5 -53t-86 -31t-78 -14.5q9 -40 23 -84.5t33.5 -89t45 -85t58 -71t72.5 -49t88 -18.5q21 0 43 2.5t42.5 7t37.5 10t29 11.5q9 5 11.5 -0.5t-2.5 -7.5z
M669 811q0 -6 -8 -12q-19 -16 -38.5 -34.5t-36.5 -35.5q-10 -10 -21.5 -19.5t-14.5 -9.5q-5 0 -5 5q0 6 -1 19.5t-2.5 28.5t-2.5 29t-1 22q0 7 5 12q2 2 9 7t9 5q3 0 3 -7q0 -12 0.5 -26t0.5 -27t0.5 -23t0.5 -14q0 -6 4 -6q2 0 5 3q19 16 40.5 38.5t35.5 39.5q9 12 13 12
q5 0 5 -7z" />
    <glyph glyph-name="Rcommaaccent" unicode="&#x156;" horiz-adv-x="654" 
d="M916 -96q-34 -12 -88 -27t-126 -14q-62 1 -112 34t-89.5 89t-67.5 131t-45 160l7 5q37 3 79.5 12.5t79 29t61 51t24.5 79.5q0 49 -42.5 71.5t-108.5 22.5h-17t-15 -1q-15 -27 -35.5 -64.5t-44 -80t-48.5 -87.5t-49 -86.5t-45 -77t-37 -58.5q-16 -24 -37 -37t-53 -30h48
q28 0 48 1.5t34.5 5t24 9t18.5 14.5q3 2 4.5 -1t-0.5 -5q-14 -18 -33 -36t-39 -20q-12 -1 -32 0t-43 2q-23 2 -43.5 3t-33.5 1q-34 0 -51.5 -5.5t-31.5 -16.5q-8 -5 -8 1q11 11 29.5 24t32.5 17q18 5 30.5 5t24 2t24 8.5t30.5 24.5q20 20 46 56.5t54.5 82t58 95.5t56.5 97.5
t50.5 88.5t39.5 67q-44 -4 -95 -15t-94 -30.5t-71.5 -47.5t-28.5 -66q0 -23 2.5 -30t2.5 -11q0 -3 -4 -3q-2 0 -9.5 3t-16.5 9t-16 15.5t-7 23.5q0 31 33 58.5t83.5 49t110.5 35.5t114 17q28 48 52.5 82.5t41.5 34.5q10 0 21 -10t13 -15q2 -3 0.5 -4.5t-3.5 0.5q-8 6 -15 6
q-26 0 -49 -22.5t-49 -70.5q10 1 24.5 1.5t26.5 0.5q34 0 67 -5t59 -16.5t42.5 -31t16.5 -49.5q0 -47 -28.5 -79.5t-69.5 -53t-86 -31t-78 -14.5q9 -40 23 -84.5t33.5 -89t45 -85t58 -71t72.5 -49t88 -18.5q21 0 43 2.5t42.5 7t37.5 10t29 11.5q9 5 11.5 -0.5t-2.5 -7.5z
M368 -78q0 -17 -8.5 -34t-21.5 -31.5t-28 -26.5t-28 -20q-5 -2 -7 1t2 6q23 14 41.5 36t18.5 48q0 17 -6 23.5t-6 12.5q0 3 10 12q5 4 9.5 8t6.5 4q6 0 11.5 -11t5.5 -28z" />
    <glyph glyph-name="Sacute" unicode="&#x15a;" horiz-adv-x="582" 
d="M81 44q-14 19 -19.5 36.5t-4.5 26.5q0 4 7 20t15.5 34t17 35t11.5 25q2 2 4.5 1t2.5 -5q-15 -33 -17.5 -69t13.5 -75q52 48 103.5 92.5t96 82t79 66t51.5 43.5q-3 37 11 73t40 64.5t62 46t77 17.5q13 0 22.5 -5.5t9.5 -19.5q0 -12 -12 -24q-28 -24 -71 -57t-101 -76
q10 -45 18.5 -93.5t8.5 -93.5q0 -58 -20 -101.5t-53 -72.5t-75 -43.5t-85 -14.5q-125 0 -186 78q-32 -30 -63 -67.5t-55.5 -79.5t-39.5 -85.5t-15 -85.5q0 -23 12.5 -40t32.5 -15q4 1 5 -4.5t-4 -6.5q-15 -2 -27.5 8t-21.5 26t-14 35t-5 35q0 34 10.5 65.5t33 65.5
t58.5 72.5t87 85.5zM443 346q-51 -41 -138 -114.5t-190 -167.5q29 -55 74.5 -75.5t100.5 -19.5q28 0 59.5 9t57.5 29t43 52.5t17 80.5q0 22 -4 54t-8.5 63.5l-8 56t-3.5 32.5zM623 513q0 8 -5 12.5t-24 4.5q-26 0 -49.5 -7t-41 -24t-25 -44.5t-0.5 -67.5q19 14 43 31.5
t45.5 34.5t37.5 33t19 27zM787 723q0 -2 -3 -5q-35 -27 -76.5 -57t-83.5 -58q-5 -3 -6.5 -1.5t0.5 3.5q37 30 77.5 63t78.5 63q6 2 5 2q2 0 5 -3.5t3 -6.5z" />
    <glyph glyph-name="Scircumflex" unicode="&#x15c;" horiz-adv-x="582" 
d="M81 44q-14 19 -19.5 36.5t-4.5 26.5q0 4 7 20t15.5 34t17 35t11.5 25q2 2 4.5 1t2.5 -5q-15 -33 -17.5 -69t13.5 -75q52 48 103.5 92.5t96 82t79 66t51.5 43.5q-3 37 11 73t40 64.5t62 46t77 17.5q13 0 22.5 -5.5t9.5 -19.5q0 -12 -12 -24q-28 -24 -71 -57t-101 -76
q10 -45 18.5 -93.5t8.5 -93.5q0 -58 -20 -101.5t-53 -72.5t-75 -43.5t-85 -14.5q-125 0 -186 78q-32 -30 -63 -67.5t-55.5 -79.5t-39.5 -85.5t-15 -85.5q0 -23 12.5 -40t32.5 -15q4 1 5 -4.5t-4 -6.5q-15 -2 -27.5 8t-21.5 26t-14 35t-5 35q0 34 10.5 65.5t33 65.5
t58.5 72.5t87 85.5zM443 346q-51 -41 -138 -114.5t-190 -167.5q29 -55 74.5 -75.5t100.5 -19.5q28 0 59.5 9t57.5 29t43 52.5t17 80.5q0 22 -4 54t-8.5 63.5l-8 56t-3.5 32.5zM623 513q0 8 -5 12.5t-24 4.5q-26 0 -49.5 -7t-41 -24t-25 -44.5t-0.5 -67.5q19 14 43 31.5
t45.5 34.5t37.5 33t19 27zM701 635q0 -12 -4 -15q-3 -2 -8 -7t-8 -5t-3 7q0 20 -1 45t-2 45q0 6 -4 6q-2 0 -5 -3q-19 -17 -39.5 -38t-37.5 -40q-9 -11 -13 -11t-4 5t9 13q17 15 37 34t37 36q8 8 16 15.5t16 12.5q6 2 5 2q4 0 4 -5q1 -28 3 -54t2 -43z" />
    <glyph glyph-name="Scaron" unicode="&#x160;" horiz-adv-x="582" 
d="M81 44q-14 19 -19.5 36.5t-4.5 26.5q0 4 7 20t15.5 34t17 35t11.5 25q2 2 4.5 1t2.5 -5q-15 -33 -17.5 -69t13.5 -75q52 48 103.5 92.5t96 82t79 66t51.5 43.5q-3 37 11 73t40 64.5t62 46t77 17.5q13 0 22.5 -5.5t9.5 -19.5q0 -12 -12 -24q-28 -24 -71 -57t-101 -76
q10 -45 18.5 -93.5t8.5 -93.5q0 -58 -20 -101.5t-53 -72.5t-75 -43.5t-85 -14.5q-125 0 -186 78q-32 -30 -63 -67.5t-55.5 -79.5t-39.5 -85.5t-15 -85.5q0 -23 12.5 -40t32.5 -15q4 1 5 -4.5t-4 -6.5q-15 -2 -27.5 8t-21.5 26t-14 35t-5 35q0 34 10.5 65.5t33 65.5
t58.5 72.5t87 85.5zM443 346q-51 -41 -138 -114.5t-190 -167.5q29 -55 74.5 -75.5t100.5 -19.5q28 0 59.5 9t57.5 29t43 52.5t17 80.5q0 22 -4 54t-8.5 63.5l-8 56t-3.5 32.5zM623 513q0 8 -5 12.5t-24 4.5q-26 0 -49.5 -7t-41 -24t-25 -44.5t-0.5 -67.5q19 14 43 31.5
t45.5 34.5t37.5 33t19 27zM743 716q0 -6 -8 -12q-19 -16 -38.5 -34.5t-36.5 -35.5q-10 -10 -21.5 -19.5t-14.5 -9.5q-5 0 -5 5q0 6 -1 19.5t-2.5 28.5t-2.5 29t-1 22q0 7 5 12q2 2 9 7t9 5q3 0 3 -7q0 -12 0.5 -26t0.5 -27t0.5 -23t0.5 -14q0 -6 4 -6q2 0 5 3
q19 16 40.5 38.5t35.5 39.5q9 12 13 12q5 0 5 -7z" />
    <glyph glyph-name="Scedilla" unicode="&#x15e;" horiz-adv-x="582" 
d="M81 44q-14 19 -19.5 36.5t-4.5 26.5q0 4 7 20t15.5 34t17 35t11.5 25q2 2 4.5 1t2.5 -5q-15 -33 -17.5 -69t13.5 -75q52 48 103.5 92.5t96 82t79 66t51.5 43.5q-3 37 11 73t40 64.5t62 46t77 17.5q13 0 22.5 -5.5t9.5 -19.5q0 -12 -12 -24q-28 -24 -71 -57t-101 -76
q10 -45 18.5 -93.5t8.5 -93.5q0 -58 -20 -101.5t-53 -72.5t-75 -43.5t-85 -14.5q-125 0 -186 78q-32 -30 -63 -67.5t-55.5 -79.5t-39.5 -85.5t-15 -85.5q0 -23 12.5 -40t32.5 -15q4 1 5 -4.5t-4 -6.5q-15 -2 -27.5 8t-21.5 26t-14 35t-5 35q0 34 10.5 65.5t33 65.5
t58.5 72.5t87 85.5zM443 346q-51 -41 -138 -114.5t-190 -167.5q29 -55 74.5 -75.5t100.5 -19.5q28 0 59.5 9t57.5 29t43 52.5t17 80.5q0 22 -4 54t-8.5 63.5l-8 56t-3.5 32.5zM623 513q0 8 -5 12.5t-24 4.5q-26 0 -49.5 -7t-41 -24t-25 -44.5t-0.5 -67.5q19 14 43 31.5
t45.5 34.5t37.5 33t19 27zM327 -38q-4 -1 -10 -3.5t-12 -6.5t-10.5 -9t-4.5 -9q0 -5 5 -8t11 -6t11 -7.5t5 -11.5q0 -11 -13 -21q-15 -13 -36 -27.5t-38 -22.5q-6 -2 -7 -2q-2 0 -5 2t-3 4t5 4q5 1 16 5.5t22.5 10.5t20 13.5t8.5 14.5q0 6 -5 10t-11 7.5t-11 7.5t-5 10
q0 7 8 15t18.5 15t21.5 12.5t16 7.5q3 0 5.5 -1t-2.5 -4z" />
    <glyph glyph-name="Scommaaccent" unicode="&#x218;" horiz-adv-x="582" 
d="M81 44q-14 19 -19.5 36.5t-4.5 26.5q0 4 7 20t15.5 34t17 35t11.5 25q2 2 4.5 1t2.5 -5q-15 -33 -17.5 -69t13.5 -75q52 48 103.5 92.5t96 82t79 66t51.5 43.5q-3 37 11 73t40 64.5t62 46t77 17.5q13 0 22.5 -5.5t9.5 -19.5q0 -12 -12 -24q-28 -24 -71 -57t-101 -76
q10 -45 18.5 -93.5t8.5 -93.5q0 -58 -20 -101.5t-53 -72.5t-75 -43.5t-85 -14.5q-125 0 -186 78q-32 -30 -63 -67.5t-55.5 -79.5t-39.5 -85.5t-15 -85.5q0 -23 12.5 -40t32.5 -15q4 1 5 -4.5t-4 -6.5q-15 -2 -27.5 8t-21.5 26t-14 35t-5 35q0 34 10.5 65.5t33 65.5
t58.5 72.5t87 85.5zM443 346q-51 -41 -138 -114.5t-190 -167.5q29 -55 74.5 -75.5t100.5 -19.5q28 0 59.5 9t57.5 29t43 52.5t17 80.5q0 22 -4 54t-8.5 63.5l-8 56t-3.5 32.5zM623 513q0 8 -5 12.5t-24 4.5q-26 0 -49.5 -7t-41 -24t-25 -44.5t-0.5 -67.5q19 14 43 31.5
t45.5 34.5t37.5 33t19 27zM275 -123q0 -17 -8.5 -34t-21.5 -31.5t-28 -26.5t-28 -20q-5 -2 -7 1t2 6q23 14 41.5 36t18.5 48q0 17 -6 23.5t-6 12.5q0 3 10 12q5 4 9.5 8t6.5 4q6 0 11.5 -11t5.5 -28z" />
    <glyph glyph-name="Tcaron" unicode="&#x164;" horiz-adv-x="778" 
d="M1000 580q0 -11 -11 -19q-11 -7 -19.5 -15.5l-17 -17t-18 -15t-22.5 -9.5q-36 -9 -81 -9q-35 0 -76 4.5t-79 10.5q-69 -41 -129.5 -95t-106 -111.5t-72 -114.5t-26.5 -105q0 -18 6 -35.5t20.5 -31t39 -21.5t62.5 -8q49 0 94 12.5t83.5 32t70 44t54 49t34.5 46.5t12 36
q0 5 -0.5 10t-2.5 9q0 3 5 3q3 -4 5.5 -12t2.5 -22q0 -21 -15.5 -45t-41.5 -48.5t-61.5 -47t-75.5 -39.5t-82.5 -27.5t-83.5 -10.5q-35 0 -66.5 9t-55 25.5t-37.5 41t-14 54.5q0 45 25 94.5t72.5 100.5t116.5 104t157 106q-61 10 -125 16.5t-131 6.5q-70 0 -122 -26.5
t-90.5 -73.5t-66 -111t-48.5 -139q-3 -7 -5 -2q3 16 3 24q0 13 -9 18t-9 8q0 5 5.5 21.5t16.5 39.5t26.5 49.5t35.5 52.5q17 21 42 49t66 52.5t102.5 42t153.5 17.5q54 0 107 -4.5t101 -8.5q22 11 48.5 23t54.5 22t56.5 16.5t55.5 6.5q33 0 49.5 -9.5t16.5 -23.5zM971 565
q0 7 -7 13t-17.5 10t-23 6t-23.5 2q-29 0 -72.5 -13t-94.5 -39q24 -2 59 -4t68 -2q39 0 61 2.5t33 6.5t14 8.5t3 9.5zM843 716q0 -6 -8 -12q-19 -16 -38.5 -34.5t-36.5 -35.5q-10 -10 -21.5 -19.5t-14.5 -9.5q-5 0 -5 5q0 6 -1 19.5t-2.5 28.5t-2.5 29t-1 22q0 7 5 12
q2 2 9 7t9 5q3 0 3 -7q0 -12 0.5 -26t0.5 -27t0.5 -23t0.5 -14q0 -6 4 -6q2 0 5 3q19 16 40.5 38.5t35.5 39.5q9 12 13 12q5 0 5 -7z" />
    <glyph glyph-name="Tcommaaccent" unicode="&#x162;" horiz-adv-x="778" 
d="M1000 580q0 -11 -11 -19q-11 -7 -19.5 -15.5l-17 -17t-18 -15t-22.5 -9.5q-36 -9 -81 -9q-35 0 -76 4.5t-79 10.5q-69 -41 -129.5 -95t-106 -111.5t-72 -114.5t-26.5 -105q0 -18 6 -35.5t20.5 -31t39 -21.5t62.5 -8q49 0 94 12.5t83.5 32t70 44t54 49t34.5 46.5t12 36
q0 5 -0.5 10t-2.5 9q0 3 5 3q3 -4 5.5 -12t2.5 -22q0 -21 -15.5 -45t-41.5 -48.5t-61.5 -47t-75.5 -39.5t-82.5 -27.5t-83.5 -10.5q-35 0 -66.5 9t-55 25.5t-37.5 41t-14 54.5q0 45 25 94.5t72.5 100.5t116.5 104t157 106q-61 10 -125 16.5t-131 6.5q-70 0 -122 -26.5
t-90.5 -73.5t-66 -111t-48.5 -139q-3 -7 -5 -2q3 16 3 24q0 13 -9 18t-9 8q0 5 5.5 21.5t16.5 39.5t26.5 49.5t35.5 52.5q17 21 42 49t66 52.5t102.5 42t153.5 17.5q54 0 107 -4.5t101 -8.5q22 11 48.5 23t54.5 22t56.5 16.5t55.5 6.5q33 0 49.5 -9.5t16.5 -23.5zM971 565
q0 7 -7 13t-17.5 10t-23 6t-23.5 2q-29 0 -72.5 -13t-94.5 -39q24 -2 59 -4t68 -2q39 0 61 2.5t33 6.5t14 8.5t3 9.5zM455 -98q0 -17 -8.5 -34t-21.5 -31.5t-28 -26.5t-28 -20q-5 -2 -7 1t2 6q23 14 41.5 36t18.5 48q0 17 -6 23.5t-6 12.5q0 3 10 12q5 4 9.5 8t6.5 4
q6 0 11.5 -11t5.5 -28z" />
    <glyph glyph-name="uni021A" unicode="&#x21a;" horiz-adv-x="778" 
d="M1000 580q0 -11 -11 -19q-11 -7 -19.5 -15.5l-17 -17t-18 -15t-22.5 -9.5q-36 -9 -81 -9q-35 0 -76 4.5t-79 10.5q-69 -41 -129.5 -95t-106 -111.5t-72 -114.5t-26.5 -105q0 -18 6 -35.5t20.5 -31t39 -21.5t62.5 -8q49 0 94 12.5t83.5 32t70 44t54 49t34.5 46.5t12 36
q0 5 -0.5 10t-2.5 9q0 3 5 3q3 -4 5.5 -12t2.5 -22q0 -21 -15.5 -45t-41.5 -48.5t-61.5 -47t-75.5 -39.5t-82.5 -27.5t-83.5 -10.5q-35 0 -66.5 9t-55 25.5t-37.5 41t-14 54.5q0 45 25 94.5t72.5 100.5t116.5 104t157 106q-61 10 -125 16.5t-131 6.5q-70 0 -122 -26.5
t-90.5 -73.5t-66 -111t-48.5 -139q-3 -7 -5 -2q3 16 3 24q0 13 -9 18t-9 8q0 5 5.5 21.5t16.5 39.5t26.5 49.5t35.5 52.5q17 21 42 49t66 52.5t102.5 42t153.5 17.5q54 0 107 -4.5t101 -8.5q22 11 48.5 23t54.5 22t56.5 16.5t55.5 6.5q33 0 49.5 -9.5t16.5 -23.5zM971 565
q0 7 -7 13t-17.5 10t-23 6t-23.5 2q-29 0 -72.5 -13t-94.5 -39q24 -2 59 -4t68 -2q39 0 61 2.5t33 6.5t14 8.5t3 9.5zM455 -98q0 -17 -8.5 -34t-21.5 -31.5t-28 -26.5t-28 -20q-5 -2 -7 1t2 6q23 14 41.5 36t18.5 48q0 17 -6 23.5t-6 12.5q0 3 10 12q5 4 9.5 8t6.5 4
q6 0 11.5 -11t5.5 -28z" />
    <glyph glyph-name="Tbar" unicode="&#x166;" horiz-adv-x="778" 
d="M1000 580q0 -11 -11 -19q-11 -7 -19.5 -15.5l-17 -17t-18 -15t-22.5 -9.5q-36 -9 -81 -9q-35 0 -76 4.5t-79 10.5q-61 -36 -114.5 -81.5t-98.5 -96.5h61h20.5t25.5 -1q5 0 3 -4.5t-13 -4.5q-26 0 -51.5 -0.5t-54.5 -0.5q-52 -63 -82 -124.5t-30 -112.5q0 -18 6 -35.5
t20.5 -31t39 -21.5t62.5 -8q49 0 94 12.5t83.5 32t70 44t54 49t34.5 46.5t12 36q0 5 -0.5 10t-2.5 9q0 3 5 3q3 -4 5.5 -12t2.5 -22q0 -21 -15.5 -45t-41.5 -48.5t-61.5 -47t-75.5 -39.5t-82.5 -27.5t-83.5 -10.5q-35 0 -66.5 9t-55 25.5t-37.5 41t-14 54.5q0 97 114 213
q-48 -1 -74 -2.5t-28 -1.5q-3 0 -3.5 2t4.5 6q6 5 35.5 6t77.5 1q46 45 107.5 90t137.5 91q-61 10 -125 16.5t-131 6.5q-70 0 -122 -26.5t-90.5 -73.5t-66 -111t-48.5 -139q-3 -7 -5 -2q3 16 3 24q0 13 -9 18t-9 8q0 5 5.5 21.5t16.5 39.5t26.5 49.5t35.5 52.5q17 21 42 49
t66 52.5t102.5 42t153.5 17.5q54 0 107 -4.5t101 -8.5q22 11 48.5 23t54.5 22t56.5 16.5t55.5 6.5q33 0 49.5 -9.5t16.5 -23.5zM971 565q0 7 -7 13t-17.5 10t-23 6t-23.5 2q-29 0 -72.5 -13t-94.5 -39q24 -2 59 -4t68 -2q39 0 61 2.5t33 6.5t14 8.5t3 9.5z" />
    <glyph glyph-name="Thorn" unicode="&#xde;" horiz-adv-x="532" 
d="M414 550q6 11 16 29t20 36.5t19.5 34t15.5 21.5q10 11 24.5 22.5t29.5 21.5t28 18t21 12q7 4 9 0t-6 -8t-23 -12.5t-29 -22.5q-21 -27 -43 -66.5t-44 -84.5q44 0 84.5 -7t71 -21.5t48.5 -36t18 -49.5q0 -47 -24 -89t-61 -73.5t-82.5 -49.5t-88.5 -18q-32 0 -56.5 10.5
t-35.5 33.5q8 9 18.5 16.5t15.5 5.5q5 0 8 -5.5t9 -14.5q8 -11 27.5 -16.5t47.5 -5.5q39 0 71.5 13.5t55 37.5t35 57t12.5 72q0 36 -15.5 60.5t-41 39.5t-58 21.5t-65.5 6.5q-36 -64 -73.5 -136.5t-86.5 -163.5q-12 -24 -26.5 -48.5t-28.5 -46.5t-26 -38.5t-19 -24.5
q-10 -12 -27 -24t-43 -22q72 -4 117.5 -6t76 -1.5t51.5 5t45 13.5q5 2 6.5 0t-3.5 -6q-23 -11 -48.5 -21.5t-48.5 -15.5q-44 0 -92.5 -2t-90.5 -4t-72 -3t-37 1q0 3 2.5 8t6.5 10.5t7.5 10t6.5 7.5q6 4 12 5t20 1q11 0 26 3.5t30 10t28.5 16.5t21.5 23q28 43 59.5 104
t61.5 124.5t57.5 122.5t48.5 98q-71 -3 -130.5 -18.5t-103.5 -40.5t-68.5 -57.5t-24.5 -68.5q0 -11 1 -16.5t3 -13.5q2 -5 -3 -5q-14 8 -33 8q-11 14 -11 32q0 37 31 70t83 58.5t120 42t142 20.5z" />
    <glyph glyph-name="Ugrave" unicode="&#xd9;" horiz-adv-x="717" 
d="M944 635q0 -3 -4 -8t-10 -9.5t-12.5 -8t-10.5 -3.5q-10 5 -22 8.5t-23 3.5q-20 0 -35.5 -11t-26.5 -22q-28 -30 -57 -71.5t-56 -88.5t-50.5 -98t-41.5 -100.5t-28 -94.5t-10 -80q0 -30 10 -50t35 -20q51 0 107 41.5t114 113.5q2 5 5.5 3t2.5 -7q-30 -37 -63 -68.5
t-66.5 -55t-66.5 -36.5t-64 -13q-41 0 -54.5 20.5t-13.5 51.5q0 18 4 44t13 60q5 17 -4 19t-25 -11q-35 -30 -73.5 -56.5t-79.5 -46t-85 -30.5t-90 -11q-56 0 -77.5 24t-21.5 71q0 32 17.5 70t45.5 77t63.5 78t72 73t70 61.5t58.5 44.5q-29 -11 -61.5 -20t-65.5 -16
t-64 -10.5t-58 -3.5q-16 0 -31.5 2.5t-28 9.5t-20 19t-7.5 31q0 26 16 54t33 43q5 2 5 -4q-23 -25 -23 -53q0 -24 11.5 -38t29 -21.5t38 -10t38.5 -2.5q64 0 117 10.5t80 20.5l15 12t20.5 16t20 14t14.5 6q1 -4 1 -8v-7q-2 -6 -12 -11.5t-39 -19.5q-71 -50 -127.5 -102.5
t-96.5 -103.5t-61.5 -98.5t-21.5 -89.5q0 -52 28.5 -72t74.5 -20q43 0 90 16.5t92 43.5t84 62.5t68 74.5q20 36 47 82.5t56 92.5t57 87t50 67q27 31 49 51t40 30.5t33 13.5t29 2q12 -2 22.5 -6.5t10.5 -7.5zM656 609q0 -6 -5 -1q-13 23 -26 48t-23 45q-3 6 -3 11q0 4 4 9.5
t6 5.5q3 0 4 -4q4 -11 10 -25.5t12.5 -30t12 -31t8.5 -27.5z" />
    <glyph glyph-name="Uacute" unicode="&#xda;" horiz-adv-x="717" 
d="M944 635q0 -3 -4 -8t-10 -9.5t-12.5 -8t-10.5 -3.5q-10 5 -22 8.5t-23 3.5q-20 0 -35.5 -11t-26.5 -22q-28 -30 -57 -71.5t-56 -88.5t-50.5 -98t-41.5 -100.5t-28 -94.5t-10 -80q0 -30 10 -50t35 -20q51 0 107 41.5t114 113.5q2 5 5.5 3t2.5 -7q-30 -37 -63 -68.5
t-66.5 -55t-66.5 -36.5t-64 -13q-41 0 -54.5 20.5t-13.5 51.5q0 18 4 44t13 60q5 17 -4 19t-25 -11q-35 -30 -73.5 -56.5t-79.5 -46t-85 -30.5t-90 -11q-56 0 -77.5 24t-21.5 71q0 32 17.5 70t45.5 77t63.5 78t72 73t70 61.5t58.5 44.5q-29 -11 -61.5 -20t-65.5 -16
t-64 -10.5t-58 -3.5q-16 0 -31.5 2.5t-28 9.5t-20 19t-7.5 31q0 26 16 54t33 43q5 2 5 -4q-23 -25 -23 -53q0 -24 11.5 -38t29 -21.5t38 -10t38.5 -2.5q64 0 117 10.5t80 20.5l15 12t20.5 16t20 14t14.5 6q1 -4 1 -8v-7q-2 -6 -12 -11.5t-39 -19.5q-71 -50 -127.5 -102.5
t-96.5 -103.5t-61.5 -98.5t-21.5 -89.5q0 -52 28.5 -72t74.5 -20q43 0 90 16.5t92 43.5t84 62.5t68 74.5q20 36 47 82.5t56 92.5t57 87t50 67q27 31 49 51t40 30.5t33 13.5t29 2q12 -2 22.5 -6.5t10.5 -7.5zM767 733q0 -2 -3 -5q-35 -27 -76.5 -57t-83.5 -58
q-5 -3 -6.5 -1.5t0.5 3.5q37 30 77.5 63t78.5 63q6 2 5 2q2 0 5 -3.5t3 -6.5z" />
    <glyph glyph-name="Ucircumflex" unicode="&#xdb;" horiz-adv-x="717" 
d="M944 635q0 -3 -4 -8t-10 -9.5t-12.5 -8t-10.5 -3.5q-10 5 -22 8.5t-23 3.5q-20 0 -35.5 -11t-26.5 -22q-28 -30 -57 -71.5t-56 -88.5t-50.5 -98t-41.5 -100.5t-28 -94.5t-10 -80q0 -30 10 -50t35 -20q51 0 107 41.5t114 113.5q2 5 5.5 3t2.5 -7q-30 -37 -63 -68.5
t-66.5 -55t-66.5 -36.5t-64 -13q-41 0 -54.5 20.5t-13.5 51.5q0 18 4 44t13 60q5 17 -4 19t-25 -11q-35 -30 -73.5 -56.5t-79.5 -46t-85 -30.5t-90 -11q-56 0 -77.5 24t-21.5 71q0 32 17.5 70t45.5 77t63.5 78t72 73t70 61.5t58.5 44.5q-29 -11 -61.5 -20t-65.5 -16
t-64 -10.5t-58 -3.5q-16 0 -31.5 2.5t-28 9.5t-20 19t-7.5 31q0 26 16 54t33 43q5 2 5 -4q-23 -25 -23 -53q0 -24 11.5 -38t29 -21.5t38 -10t38.5 -2.5q64 0 117 10.5t80 20.5l15 12t20.5 16t20 14t14.5 6q1 -4 1 -8v-7q-2 -6 -12 -11.5t-39 -19.5q-71 -50 -127.5 -102.5
t-96.5 -103.5t-61.5 -98.5t-21.5 -89.5q0 -52 28.5 -72t74.5 -20q43 0 90 16.5t92 43.5t84 62.5t68 74.5q20 36 47 82.5t56 92.5t57 87t50 67q27 31 49 51t40 30.5t33 13.5t29 2q12 -2 22.5 -6.5t10.5 -7.5zM694 625q0 -12 -4 -15q-3 -2 -8 -7t-8 -5t-3 7q0 20 -1 45t-2 45
q0 6 -4 6q-2 0 -5 -3q-19 -17 -39.5 -38t-37.5 -40q-9 -11 -13 -11t-4 5t9 13q17 15 37 34t37 36q8 8 16 15.5t16 12.5q6 2 5 2q4 0 4 -5q1 -28 3 -54t2 -43z" />
    <glyph glyph-name="Utilde" unicode="&#x168;" horiz-adv-x="717" 
d="M944 635q0 -3 -4 -8t-10 -9.5t-12.5 -8t-10.5 -3.5q-10 5 -22 8.5t-23 3.5q-20 0 -35.5 -11t-26.5 -22q-28 -30 -57 -71.5t-56 -88.5t-50.5 -98t-41.5 -100.5t-28 -94.5t-10 -80q0 -30 10 -50t35 -20q51 0 107 41.5t114 113.5q2 5 5.5 3t2.5 -7q-30 -37 -63 -68.5
t-66.5 -55t-66.5 -36.5t-64 -13q-41 0 -54.5 20.5t-13.5 51.5q0 18 4 44t13 60q5 17 -4 19t-25 -11q-35 -30 -73.5 -56.5t-79.5 -46t-85 -30.5t-90 -11q-56 0 -77.5 24t-21.5 71q0 32 17.5 70t45.5 77t63.5 78t72 73t70 61.5t58.5 44.5q-29 -11 -61.5 -20t-65.5 -16
t-64 -10.5t-58 -3.5q-16 0 -31.5 2.5t-28 9.5t-20 19t-7.5 31q0 26 16 54t33 43q5 2 5 -4q-23 -25 -23 -53q0 -24 11.5 -38t29 -21.5t38 -10t38.5 -2.5q64 0 117 10.5t80 20.5l15 12t20.5 16t20 14t14.5 6q1 -4 1 -8v-7q-2 -6 -12 -11.5t-39 -19.5q-71 -50 -127.5 -102.5
t-96.5 -103.5t-61.5 -98.5t-21.5 -89.5q0 -52 28.5 -72t74.5 -20q43 0 90 16.5t92 43.5t84 62.5t68 74.5q20 36 47 82.5t56 92.5t57 87t50 67q27 31 49 51t40 30.5t33 13.5t29 2q12 -2 22.5 -6.5t10.5 -7.5zM765 687q-3 -23 -20 -42.5t-40 -19.5q-14 0 -26 8.5t-22.5 19
t-20.5 19t-21 8.5q-8 0 -16.5 -5t-16.5 -12.5t-14.5 -15t-10.5 -13.5q-5 -7 -9 -5t3 11q8 11 23 25t29 25q13 10 26 10q11 0 21.5 -9t21 -19.5t21.5 -19.5t25 -9q17 0 27.5 14t10.5 30q0 5 4.5 7.5t4.5 -7.5z" />
    <glyph glyph-name="Udieresis" unicode="&#xdc;" horiz-adv-x="717" 
d="M944 635q0 -3 -4 -8t-10 -9.5t-12.5 -8t-10.5 -3.5q-10 5 -22 8.5t-23 3.5q-20 0 -35.5 -11t-26.5 -22q-28 -30 -57 -71.5t-56 -88.5t-50.5 -98t-41.5 -100.5t-28 -94.5t-10 -80q0 -30 10 -50t35 -20q51 0 107 41.5t114 113.5q2 5 5.5 3t2.5 -7q-30 -37 -63 -68.5
t-66.5 -55t-66.5 -36.5t-64 -13q-41 0 -54.5 20.5t-13.5 51.5q0 18 4 44t13 60q5 17 -4 19t-25 -11q-35 -30 -73.5 -56.5t-79.5 -46t-85 -30.5t-90 -11q-56 0 -77.5 24t-21.5 71q0 32 17.5 70t45.5 77t63.5 78t72 73t70 61.5t58.5 44.5q-29 -11 -61.5 -20t-65.5 -16
t-64 -10.5t-58 -3.5q-16 0 -31.5 2.5t-28 9.5t-20 19t-7.5 31q0 26 16 54t33 43q5 2 5 -4q-23 -25 -23 -53q0 -24 11.5 -38t29 -21.5t38 -10t38.5 -2.5q64 0 117 10.5t80 20.5l15 12t20.5 16t20 14t14.5 6q1 -4 1 -8v-7q-2 -6 -12 -11.5t-39 -19.5q-71 -50 -127.5 -102.5
t-96.5 -103.5t-61.5 -98.5t-21.5 -89.5q0 -52 28.5 -72t74.5 -20q43 0 90 16.5t92 43.5t84 62.5t68 74.5q20 36 47 82.5t56 92.5t57 87t50 67q27 31 49 51t40 30.5t33 13.5t29 2q12 -2 22.5 -6.5t10.5 -7.5zM706 668q0 -12 -10.5 -24t-23.5 -12q-12 0 -12 12q0 13 9.5 25
t23.5 12q13 0 13 -13zM634 674q0 -12 -10.5 -24t-23.5 -12q-12 0 -12 12q0 13 9.5 25t23.5 12q13 0 13 -13z" />
    <glyph glyph-name="Umacron" unicode="&#x16a;" horiz-adv-x="717" 
d="M944 635q0 -3 -4 -8t-10 -9.5t-12.5 -8t-10.5 -3.5q-10 5 -22 8.5t-23 3.5q-20 0 -35.5 -11t-26.5 -22q-28 -30 -57 -71.5t-56 -88.5t-50.5 -98t-41.5 -100.5t-28 -94.5t-10 -80q0 -30 10 -50t35 -20q51 0 107 41.5t114 113.5q2 5 5.5 3t2.5 -7q-30 -37 -63 -68.5
t-66.5 -55t-66.5 -36.5t-64 -13q-41 0 -54.5 20.5t-13.5 51.5q0 18 4 44t13 60q5 17 -4 19t-25 -11q-35 -30 -73.5 -56.5t-79.5 -46t-85 -30.5t-90 -11q-56 0 -77.5 24t-21.5 71q0 32 17.5 70t45.5 77t63.5 78t72 73t70 61.5t58.5 44.5q-29 -11 -61.5 -20t-65.5 -16
t-64 -10.5t-58 -3.5q-16 0 -31.5 2.5t-28 9.5t-20 19t-7.5 31q0 26 16 54t33 43q5 2 5 -4q-23 -25 -23 -53q0 -24 11.5 -38t29 -21.5t38 -10t38.5 -2.5q64 0 117 10.5t80 20.5l15 12t20.5 16t20 14t14.5 6q1 -4 1 -8v-7q-2 -6 -12 -11.5t-39 -19.5q-71 -50 -127.5 -102.5
t-96.5 -103.5t-61.5 -98.5t-21.5 -89.5q0 -52 28.5 -72t74.5 -20q43 0 90 16.5t92 43.5t84 62.5t68 74.5q20 36 47 82.5t56 92.5t57 87t50 67q27 31 49 51t40 30.5t33 13.5t29 2q12 -2 22.5 -6.5t10.5 -7.5zM686 630l-88 -2l5 15l86 2z" />
    <glyph glyph-name="Ubreve" unicode="&#x16c;" horiz-adv-x="717" 
d="M944 635q0 -3 -4 -8t-10 -9.5t-12.5 -8t-10.5 -3.5q-10 5 -22 8.5t-23 3.5q-20 0 -35.5 -11t-26.5 -22q-28 -30 -57 -71.5t-56 -88.5t-50.5 -98t-41.5 -100.5t-28 -94.5t-10 -80q0 -30 10 -50t35 -20q51 0 107 41.5t114 113.5q2 5 5.5 3t2.5 -7q-30 -37 -63 -68.5
t-66.5 -55t-66.5 -36.5t-64 -13q-41 0 -54.5 20.5t-13.5 51.5q0 18 4 44t13 60q5 17 -4 19t-25 -11q-35 -30 -73.5 -56.5t-79.5 -46t-85 -30.5t-90 -11q-56 0 -77.5 24t-21.5 71q0 32 17.5 70t45.5 77t63.5 78t72 73t70 61.5t58.5 44.5q-29 -11 -61.5 -20t-65.5 -16
t-64 -10.5t-58 -3.5q-16 0 -31.5 2.5t-28 9.5t-20 19t-7.5 31q0 26 16 54t33 43q5 2 5 -4q-23 -25 -23 -53q0 -24 11.5 -38t29 -21.5t38 -10t38.5 -2.5q64 0 117 10.5t80 20.5l15 12t20.5 16t20 14t14.5 6q1 -4 1 -8v-7q-2 -6 -12 -11.5t-39 -19.5q-71 -50 -127.5 -102.5
t-96.5 -103.5t-61.5 -98.5t-21.5 -89.5q0 -52 28.5 -72t74.5 -20q43 0 90 16.5t92 43.5t84 62.5t68 74.5q20 36 47 82.5t56 92.5t57 87t50 67q27 31 49 51t40 30.5t33 13.5t29 2q12 -2 22.5 -6.5t10.5 -7.5zM713 675q0 -3 -2.5 -5.5t-5.5 -7.5q-17 -22 -37 -32t-38 -10
q-21 0 -35 13t-14 37q0 7 6 10.5t12 3.5q4 0 4 -6q0 -19 9.5 -31.5t29.5 -12.5q14 0 29 9t26 26q7 12 11 12q5 0 5 -6z" />
    <glyph glyph-name="Uring" unicode="&#x16e;" horiz-adv-x="717" 
d="M944 635q0 -3 -4 -8t-10 -9.5t-12.5 -8t-10.5 -3.5q-10 5 -22 8.5t-23 3.5q-20 0 -35.5 -11t-26.5 -22q-28 -30 -57 -71.5t-56 -88.5t-50.5 -98t-41.5 -100.5t-28 -94.5t-10 -80q0 -30 10 -50t35 -20q51 0 107 41.5t114 113.5q2 5 5.5 3t2.5 -7q-30 -37 -63 -68.5
t-66.5 -55t-66.5 -36.5t-64 -13q-41 0 -54.5 20.5t-13.5 51.5q0 18 4 44t13 60q5 17 -4 19t-25 -11q-35 -30 -73.5 -56.5t-79.5 -46t-85 -30.5t-90 -11q-56 0 -77.5 24t-21.5 71q0 32 17.5 70t45.5 77t63.5 78t72 73t70 61.5t58.5 44.5q-29 -11 -61.5 -20t-65.5 -16
t-64 -10.5t-58 -3.5q-16 0 -31.5 2.5t-28 9.5t-20 19t-7.5 31q0 26 16 54t33 43q5 2 5 -4q-23 -25 -23 -53q0 -24 11.5 -38t29 -21.5t38 -10t38.5 -2.5q64 0 117 10.5t80 20.5l15 12t20.5 16t20 14t14.5 6q1 -4 1 -8v-7q-2 -6 -12 -11.5t-39 -19.5q-71 -50 -127.5 -102.5
t-96.5 -103.5t-61.5 -98.5t-21.5 -89.5q0 -52 28.5 -72t74.5 -20q43 0 90 16.5t92 43.5t84 62.5t68 74.5q20 36 47 82.5t56 92.5t57 87t50 67q27 31 49 51t40 30.5t33 13.5t29 2q12 -2 22.5 -6.5t10.5 -7.5zM697 672q0 -25 -18.5 -46.5t-53.5 -21.5q-21 0 -34.5 11t-13.5 32
q0 10 4 21.5t12.5 22t22 17.5t32.5 7q49 0 49 -43zM683 670q0 17 -8 28t-28 11q-29 0 -42.5 -18.5t-13.5 -41.5q0 -18 11 -28.5t27 -10.5q27 0 40.5 20t13.5 40z" />
    <glyph glyph-name="Uhungarumlaut" unicode="&#x170;" horiz-adv-x="717" 
d="M944 635q0 -3 -4 -8t-10 -9.5t-12.5 -8t-10.5 -3.5q-10 5 -22 8.5t-23 3.5q-20 0 -35.5 -11t-26.5 -22q-28 -30 -57 -71.5t-56 -88.5t-50.5 -98t-41.5 -100.5t-28 -94.5t-10 -80q0 -30 10 -50t35 -20q51 0 107 41.5t114 113.5q2 5 5.5 3t2.5 -7q-30 -37 -63 -68.5
t-66.5 -55t-66.5 -36.5t-64 -13q-41 0 -54.5 20.5t-13.5 51.5q0 18 4 44t13 60q5 17 -4 19t-25 -11q-35 -30 -73.5 -56.5t-79.5 -46t-85 -30.5t-90 -11q-56 0 -77.5 24t-21.5 71q0 32 17.5 70t45.5 77t63.5 78t72 73t70 61.5t58.5 44.5q-29 -11 -61.5 -20t-65.5 -16
t-64 -10.5t-58 -3.5q-16 0 -31.5 2.5t-28 9.5t-20 19t-7.5 31q0 26 16 54t33 43q5 2 5 -4q-23 -25 -23 -53q0 -24 11.5 -38t29 -21.5t38 -10t38.5 -2.5q64 0 117 10.5t80 20.5l15 12t20.5 16t20 14t14.5 6q1 -4 1 -8v-7q-2 -6 -12 -11.5t-39 -19.5q-71 -50 -127.5 -102.5
t-96.5 -103.5t-61.5 -98.5t-21.5 -89.5q0 -52 28.5 -72t74.5 -20q43 0 90 16.5t92 43.5t84 62.5t68 74.5q20 36 47 82.5t56 92.5t57 87t50 67q27 31 49 51t40 30.5t33 13.5t29 2q12 -2 22.5 -6.5t10.5 -7.5zM725 696q0 -4 -6 -11q-15 -16 -34.5 -36t-39.5 -37q-5 -4 -4.5 -1
t1.5 4q4 7 12 18t18 24l20 26t18 24q3 3 6 3q5 0 7 -4.5t2 -9.5zM664 698q0 -6 -7 -13q-15 -16 -35 -36l-39 -39q-2 -2 -3.5 -0.5t0.5 3.5q16 26 35 49t37 47q1 3 5 3q5 0 6 -5.5t1 -8.5z" />
    <glyph glyph-name="Uogonek" unicode="&#x172;" horiz-adv-x="717" 
d="M944 635q0 -3 -4 -8t-10 -9.5t-12.5 -8t-10.5 -3.5q-10 5 -22 8.5t-23 3.5q-20 0 -35.5 -11t-26.5 -22q-28 -30 -57 -71.5t-56 -88.5t-50.5 -98t-41.5 -100.5t-28 -94.5t-10 -80q0 -30 10 -50t35 -20q51 0 107 41.5t114 113.5q2 5 5.5 3t2.5 -7q-30 -37 -63 -68.5
t-66.5 -55t-66.5 -36.5t-64 -13q-41 0 -54.5 20.5t-13.5 51.5q0 18 4 44t13 60q5 17 -4 19t-25 -11q-35 -30 -73.5 -56.5t-79.5 -46t-85 -30.5t-90 -11q-56 0 -77.5 24t-21.5 71q0 32 17.5 70t45.5 77t63.5 78t72 73t70 61.5t58.5 44.5q-29 -11 -61.5 -20t-65.5 -16
t-64 -10.5t-58 -3.5q-16 0 -31.5 2.5t-28 9.5t-20 19t-7.5 31q0 26 16 54t33 43q5 2 5 -4q-23 -25 -23 -53q0 -24 11.5 -38t29 -21.5t38 -10t38.5 -2.5q64 0 117 10.5t80 20.5l15 12t20.5 16t20 14t14.5 6q1 -4 1 -8v-7q-2 -6 -12 -11.5t-39 -19.5q-71 -50 -127.5 -102.5
t-96.5 -103.5t-61.5 -98.5t-21.5 -89.5q0 -52 28.5 -72t74.5 -20q43 0 90 16.5t92 43.5t84 62.5t68 74.5q20 36 47 82.5t56 92.5t57 87t50 67q27 31 49 51t40 30.5t33 13.5t29 2q12 -2 22.5 -6.5t10.5 -7.5zM636 -25q0 -2 -4 -3q-31 -11 -50.5 -30.5t-19.5 -37.5
q0 -14 10 -22t24 -8q3 0 6 1t6 1t2 -2.5t-4 -3.5q-8 -2 -15 -3.5t-18 -1.5q-20 0 -31.5 8t-11.5 21q0 15 20 35q8 7 20.5 15.5t25 15.5t23 12t14.5 5q3 0 3 -2z" />
    <glyph glyph-name="Wcircumflex" unicode="&#x174;" horiz-adv-x="984" 
d="M1274 487q0 -42 -22.5 -91t-59 -96t-82 -87t-90.5 -63q-5 -2 -7.5 0.5t4.5 6.5q49 28 93 70t76 89.5t51 94.5t19 86q0 40 -18.5 65.5t-56 39.5t-93.5 19t-132 5q-38 0 -65 -1.5t-36 -1.5q-3 0 -3 -1t4 -2q7 -2 18.5 -5.5t23.5 -7.5t23.5 -8.5t17.5 -8.5q7 -4 17 -16.5
t19.5 -31.5t16 -44.5t6.5 -56.5q0 -53 -16 -111.5t-43.5 -116t-64 -109t-79 -91t-87.5 -63t-89 -23.5q-58 0 -83 33.5t-27 100.5q-3 92 -7.5 135t-28.5 43q-21 0 -56 -37t-101 -107q-31 -33 -53 -54t-38 -32t-28 -15t-22 -4q-43 0 -43 43q0 30 18.5 71t47.5 86.5t64 93
t67.5 90.5t58 78.5t35.5 56.5q4 5 -17 5q-29 -1 -76.5 -8t-99.5 -21.5t-99.5 -37.5t-74.5 -56q-15 -19 -24 -45.5t-9 -49.5q0 -18 3.5 -32t8 -23.5t8 -16.5t3.5 -11q0 -6 -5.5 -9t-10.5 -3q-8 0 -13 8.5t-8 20.5t-4 24.5t-1 20.5q0 37 12.5 64.5t34.5 55.5q35 44 81 74.5
t97.5 49.5t107 28t110.5 11q9 0 10.5 1.5t4.5 1.5q4 0 4.5 -4t-1.5 -6q-93 -130 -150 -222t-88.5 -154t-42 -98.5t-10.5 -54.5q0 -19 12 -19q9 0 18 3t23 14t34.5 31t52.5 55q11 12 31.5 34t45 47t49.5 49t45 39q16 13 33 13q14 0 20 -22.5t6 -88.5q1 -66 8 -110.5
t20.5 -71.5t34 -38t47.5 -11q36 0 72 22t69 60t61.5 88t49.5 105.5t33 113.5t12 111q0 22 -3 45t-9.5 44t-17 37.5t-26.5 25.5q-33 17 -75 17q-23 0 -45 -2.5t-27 -2.5q-8 0 -8 8q0 1 3 5t6.5 8.5t8 8.5t7.5 5q17 2 42 2.5t42 0.5q101 0 180 -6t133.5 -23.5t83 -49
t28.5 -82.5zM760 715q0 -12 -4 -15q-3 -2 -8 -7t-8 -5t-3 7q0 20 -1 45t-2 45q0 6 -4 6q-2 0 -5 -3q-19 -17 -39.5 -38t-37.5 -40q-9 -11 -13 -11t-4 5t9 13q17 15 37 34t37 36q8 8 16 15.5t16 12.5q6 2 5 2q4 0 4 -5q1 -28 3 -54t2 -43z" />
    <glyph glyph-name="Yacute" unicode="&#xdd;" horiz-adv-x="356" 
d="M587 693q0 -2 -3 -5q-35 -27 -76.5 -57t-83.5 -58q-5 -3 -6.5 -1.5t0.5 3.5q37 30 77.5 63t78.5 63q6 2 5 2q2 0 5 -3.5t3 -6.5zM364 214q-9 -6 -24.5 -16.5t-23.5 -18.5q-3 -3 -1.5 -11t-3.5 -12q-9 -2 -25.5 -5t-24.5 -7q-63 -47 -100 -88.5t-56 -77.5t-24.5 -68.5
t-5.5 -61.5q0 -6 1 -12.5t3 -11.5q0 -3 -7 -1q-1 2 -2 7t-2 11q-2 11 -6.5 16.5t-18.5 10.5q-4 1 -4 6q5 58 58 128t167 156q15 45 22 96.5t7 96.5q0 42 -5.5 77t-19.5 60.5t-38.5 39.5t-62.5 14q-34 0 -61.5 -12.5t-46 -33.5t-28 -49t-7.5 -59q0 -3 -4 -3q-9 0 -18.5 5.5
t-9.5 16.5q1 28 24.5 57.5t57 53.5t72.5 39t71 15q37 0 61 -15.5t37.5 -41t18.5 -59.5t5 -71q0 -21 -2 -46t-5 -50.5t-7 -50.5t-8 -46q134 83 203.5 147.5t69.5 124.5q0 18 -9.5 33t-32.5 13q-3 0 -3.5 3.5t2.5 5.5q10 11 23 20t24 14q23 0 33.5 -13.5t10.5 -33.5
q0 -52 -67.5 -128t-206.5 -164z" />
    <glyph glyph-name="Ycircumflex" unicode="&#x176;" horiz-adv-x="356" 
d="M503 605q0 -12 -4 -15q-3 -2 -8 -7t-8 -5t-3 7q0 20 -1 45t-2 45q0 6 -4 6q-2 0 -5 -3q-19 -17 -39.5 -38t-37.5 -40q-9 -11 -13 -11t-4 5t9 13q17 15 37 34t37 36q8 8 16 15.5t16 12.5q6 2 5 2q4 0 4 -5q1 -28 3 -54t2 -43zM364 214q-9 -6 -24.5 -16.5t-23.5 -18.5
q-3 -3 -1.5 -11t-3.5 -12q-9 -2 -25.5 -5t-24.5 -7q-63 -47 -100 -88.5t-56 -77.5t-24.5 -68.5t-5.5 -61.5q0 -6 1 -12.5t3 -11.5q0 -3 -7 -1q-1 2 -2 7t-2 11q-2 11 -6.5 16.5t-18.5 10.5q-4 1 -4 6q5 58 58 128t167 156q15 45 22 96.5t7 96.5q0 42 -5.5 77t-19.5 60.5
t-38.5 39.5t-62.5 14q-34 0 -61.5 -12.5t-46 -33.5t-28 -49t-7.5 -59q0 -3 -4 -3q-9 0 -18.5 5.5t-9.5 16.5q1 28 24.5 57.5t57 53.5t72.5 39t71 15q37 0 61 -15.5t37.5 -41t18.5 -59.5t5 -71q0 -21 -2 -46t-5 -50.5t-7 -50.5t-8 -46q134 83 203.5 147.5t69.5 124.5
q0 18 -9.5 33t-32.5 13q-3 0 -3.5 3.5t2.5 5.5q10 11 23 20t24 14q23 0 33.5 -13.5t10.5 -33.5q0 -52 -67.5 -128t-206.5 -164z" />
    <glyph glyph-name="Ydieresis" unicode="&#x178;" horiz-adv-x="356" 
d="M517 648q0 -12 -10.5 -24t-23.5 -12q-12 0 -12 12q0 13 9.5 25t23.5 12q13 0 13 -13zM445 654q0 -12 -10.5 -24t-23.5 -12q-12 0 -12 12q0 13 9.5 25t23.5 12q13 0 13 -13zM364 214q-9 -6 -24.5 -16.5t-23.5 -18.5q-3 -3 -1.5 -11t-3.5 -12q-9 -2 -25.5 -5t-24.5 -7
q-63 -47 -100 -88.5t-56 -77.5t-24.5 -68.5t-5.5 -61.5q0 -6 1 -12.5t3 -11.5q0 -3 -7 -1q-1 2 -2 7t-2 11q-2 11 -6.5 16.5t-18.5 10.5q-4 1 -4 6q5 58 58 128t167 156q15 45 22 96.5t7 96.5q0 42 -5.5 77t-19.5 60.5t-38.5 39.5t-62.5 14q-34 0 -61.5 -12.5t-46 -33.5
t-28 -49t-7.5 -59q0 -3 -4 -3q-9 0 -18.5 5.5t-9.5 16.5q1 28 24.5 57.5t57 53.5t72.5 39t71 15q37 0 61 -15.5t37.5 -41t18.5 -59.5t5 -71q0 -21 -2 -46t-5 -50.5t-7 -50.5t-8 -46q134 83 203.5 147.5t69.5 124.5q0 18 -9.5 33t-32.5 13q-3 0 -3.5 3.5t2.5 5.5q10 11 23 20
t24 14q23 0 33.5 -13.5t10.5 -33.5q0 -52 -67.5 -128t-206.5 -164z" />
    <glyph glyph-name="Zacute" unicode="&#x179;" horiz-adv-x="551" 
d="M246 117q35 27 88.5 68.5t106.5 89.5h-115q-2 2 4 6t17 8q20 2 51.5 2.5t60.5 -1.5q29 25 60.5 53.5t62 57.5t58.5 57.5t52 54.5q-16 -6 -34.5 -10.5t-38.5 -4.5q-24 0 -52 2l-70 5q-43 3 -78.5 5t-67.5 2q-9 0 -33.5 -26t-56.5 -97q-5 -4 -8.5 -4t-0.5 6q37 75 67 118.5
t44 50.5q32 0 72.5 -5t88.5 -12q35 -5 73 -9t80 -4q37 0 55.5 14t18.5 37q0 6 -1 13t-4 14q9 7 21 9.5t20 2.5q6 0 6 -11q0 -5 -2.5 -11.5t-9 -15t-19 -21t-31.5 -29.5q-67 -64 -128.5 -124t-127.5 -118q88 -2 140 -3t81 -3q-2 -6 -12 -6q-11 0 -35 -0.5t-55 -1t-67 -1
t-71 -0.5q-33 -30 -58.5 -51.5t-48 -39.5t-45 -35.5t-48.5 -38.5q78 -53 152.5 -90t140 -60.5t119 -34.5t89.5 -11q66 2 108.5 26t62.5 66q2 0 2 -7q-1 -5 -1.5 -8.5t-0.5 -5.5q-18 -31 -68.5 -56t-134.5 -25q-65 0 -131.5 13t-132 36t-127.5 54.5t-119 69.5
q-29 -22 -51.5 -37l-31.5 -21l-5 4q3 4 8 9t13.5 12t22 16.5t33.5 23.5q-5 2 -9 5.5t-4 5.5q2 15 5.5 31t8.5 23q10 -8 20 -15.5t21 -16.5zM707 723q0 -2 -3 -5q-35 -27 -76.5 -57t-83.5 -58q-5 -3 -6.5 -1.5t0.5 3.5q37 30 77.5 63t78.5 63q6 2 5 2q2 0 5 -3.5t3 -6.5z" />
    <glyph glyph-name="Zcaron" unicode="&#x17d;" horiz-adv-x="551" 
d="M246 117q35 27 88.5 68.5t106.5 89.5h-115q-2 2 4 6t17 8q20 2 51.5 2.5t60.5 -1.5q29 25 60.5 53.5t62 57.5t58.5 57.5t52 54.5q-16 -6 -34.5 -10.5t-38.5 -4.5q-24 0 -52 2l-70 5q-43 3 -78.5 5t-67.5 2q-9 0 -33.5 -26t-56.5 -97q-5 -4 -8.5 -4t-0.5 6q37 75 67 118.5
t44 50.5q32 0 72.5 -5t88.5 -12q35 -5 73 -9t80 -4q37 0 55.5 14t18.5 37q0 6 -1 13t-4 14q9 7 21 9.5t20 2.5q6 0 6 -11q0 -5 -2.5 -11.5t-9 -15t-19 -21t-31.5 -29.5q-67 -64 -128.5 -124t-127.5 -118q88 -2 140 -3t81 -3q-2 -6 -12 -6q-11 0 -35 -0.5t-55 -1t-67 -1
t-71 -0.5q-33 -30 -58.5 -51.5t-48 -39.5t-45 -35.5t-48.5 -38.5q78 -53 152.5 -90t140 -60.5t119 -34.5t89.5 -11q66 2 108.5 26t62.5 66q2 0 2 -7q-1 -5 -1.5 -8.5t-0.5 -5.5q-18 -31 -68.5 -56t-134.5 -25q-65 0 -131.5 13t-132 36t-127.5 54.5t-119 69.5
q-29 -22 -51.5 -37l-31.5 -21l-5 4q3 4 8 9t13.5 12t22 16.5t33.5 23.5q-5 2 -9 5.5t-4 5.5q2 15 5.5 31t8.5 23q10 -8 20 -15.5t21 -16.5zM688 706q0 -6 -8 -12q-19 -16 -38.5 -34.5t-36.5 -35.5q-10 -10 -21.5 -19.5t-14.5 -9.5q-5 0 -5 5q0 6 -1 19.5t-2.5 28.5t-2.5 29
t-1 22q0 7 5 12q2 2 9 7t9 5q3 0 3 -7q0 -12 0.5 -26t0.5 -27t0.5 -23t0.5 -14q0 -6 4 -6q2 0 5 3q19 16 40.5 38.5t35.5 39.5q9 12 13 12q5 0 5 -7z" />
    <glyph glyph-name="Zdotaccent" unicode="&#x17b;" horiz-adv-x="551" 
d="M246 117q35 27 88.5 68.5t106.5 89.5h-115q-2 2 4 6t17 8q20 2 51.5 2.5t60.5 -1.5q29 25 60.5 53.5t62 57.5t58.5 57.5t52 54.5q-16 -6 -34.5 -10.5t-38.5 -4.5q-24 0 -52 2l-70 5q-43 3 -78.5 5t-67.5 2q-9 0 -33.5 -26t-56.5 -97q-5 -4 -8.5 -4t-0.5 6q37 75 67 118.5
t44 50.5q32 0 72.5 -5t88.5 -12q35 -5 73 -9t80 -4q37 0 55.5 14t18.5 37q0 6 -1 13t-4 14q9 7 21 9.5t20 2.5q6 0 6 -11q0 -5 -2.5 -11.5t-9 -15t-19 -21t-31.5 -29.5q-67 -64 -128.5 -124t-127.5 -118q88 -2 140 -3t81 -3q-2 -6 -12 -6q-11 0 -35 -0.5t-55 -1t-67 -1
t-71 -0.5q-33 -30 -58.5 -51.5t-48 -39.5t-45 -35.5t-48.5 -38.5q78 -53 152.5 -90t140 -60.5t119 -34.5t89.5 -11q66 2 108.5 26t62.5 66q2 0 2 -7q-1 -5 -1.5 -8.5t-0.5 -5.5q-18 -31 -68.5 -56t-134.5 -25q-65 0 -131.5 13t-132 36t-127.5 54.5t-119 69.5
q-29 -22 -51.5 -37l-31.5 -21l-5 4q3 4 8 9t13.5 12t22 16.5t33.5 23.5q-5 2 -9 5.5t-4 5.5q2 15 5.5 31t8.5 23q10 -8 20 -15.5t21 -16.5zM606 654q0 -11 -10 -20.5t-21 -9.5q-16 0 -16 18q0 11 7.5 19.5t20.5 8.5q8 0 13.5 -3t5.5 -13z" />
    <glyph glyph-name="agrave" unicode="&#xe0;" horiz-adv-x="262" 
d="M214 279q0 -6 -5 -1q-13 23 -26 48t-23 45q-3 6 -3 11q0 4 4 9.5t6 5.5q3 0 4 -4q4 -11 10 -25.5t12.5 -30t12 -31t8.5 -27.5zM342 115q-51 -61 -90.5 -90t-70.5 -29q-14 0 -24.5 7.5t-10.5 33.5q0 6 2.5 23.5t9.5 33.5q-13 -19 -28.5 -37t-31 -32t-29.5 -22.5t-23 -8.5
q-19 0 -19 22q0 19 20 57q14 28 38.5 59.5t52.5 55.5q17 14 32.5 23t29.5 9q17 0 31 -11q5 4 11 8.5l10 7.5q2 0 2 -2t-4 -9q-29 -48 -50.5 -89t-21.5 -83q0 -31 22 -31q21 0 57.5 26.5t79.5 83.5q1 2 4.5 2t0.5 -8zM208 186q-6 7 -14 10t-15 3q-17 0 -37 -19t-37 -46.5
t-28 -57t-11 -50.5q0 -8 7 -8q8 0 33 24t54 64q14 20 26 39t22 41z" />
    <glyph glyph-name="aacute" unicode="&#xe1;" horiz-adv-x="262" 
d="M342 115q-51 -61 -90.5 -90t-70.5 -29q-14 0 -24.5 7.5t-10.5 33.5q0 6 2.5 23.5t9.5 33.5q-13 -19 -28.5 -37t-31 -32t-29.5 -22.5t-23 -8.5q-19 0 -19 22q0 19 20 57q14 28 38.5 59.5t52.5 55.5q17 14 32.5 23t29.5 9q17 0 31 -11q5 4 11 8.5l10 7.5q2 0 2 -2t-4 -9
q-29 -48 -50.5 -89t-21.5 -83q0 -31 22 -31q21 0 57.5 26.5t79.5 83.5q1 2 4.5 2t0.5 -8zM208 186q-6 7 -14 10t-15 3q-17 0 -37 -19t-37 -46.5t-28 -57t-11 -50.5q0 -8 7 -8q8 0 33 24t54 64q14 20 26 39t22 41zM355 393q0 -2 -3 -5q-35 -27 -76.5 -57t-83.5 -58
q-5 -3 -6.5 -1.5t0.5 3.5q37 30 77.5 63t78.5 63q6 2 5 2q2 0 5 -3.5t3 -6.5z" />
    <glyph glyph-name="acircumflex" unicode="&#xe2;" horiz-adv-x="262" 
d="M342 115q-51 -61 -90.5 -90t-70.5 -29q-14 0 -24.5 7.5t-10.5 33.5q0 6 2.5 23.5t9.5 33.5q-13 -19 -28.5 -37t-31 -32t-29.5 -22.5t-23 -8.5q-19 0 -19 22q0 19 20 57q14 28 38.5 59.5t52.5 55.5q17 14 32.5 23t29.5 9q17 0 31 -11q5 4 11 8.5l10 7.5q2 0 2 -2t-4 -9
q-29 -48 -50.5 -89t-21.5 -83q0 -31 22 -31q21 0 57.5 26.5t79.5 83.5q1 2 4.5 2t0.5 -8zM208 186q-6 7 -14 10t-15 3q-17 0 -37 -19t-37 -46.5t-28 -57t-11 -50.5q0 -8 7 -8q8 0 33 24t54 64q14 20 26 39t22 41zM288 295q0 -12 -4 -15q-3 -2 -8 -7t-8 -5t-3 7q0 20 -1 45
t-2 45q0 6 -4 6q-2 0 -5 -3q-19 -17 -39.5 -38t-37.5 -40q-9 -11 -13 -11t-4 5t9 13q17 15 37 34t37 36q8 8 16 15.5t16 12.5q6 2 5 2q4 0 4 -5q1 -28 3 -54t2 -43z" />
    <glyph glyph-name="atilde" unicode="&#xe3;" horiz-adv-x="262" 
d="M342 115q-51 -61 -90.5 -90t-70.5 -29q-14 0 -24.5 7.5t-10.5 33.5q0 6 2.5 23.5t9.5 33.5q-13 -19 -28.5 -37t-31 -32t-29.5 -22.5t-23 -8.5q-19 0 -19 22q0 19 20 57q14 28 38.5 59.5t52.5 55.5q17 14 32.5 23t29.5 9q17 0 31 -11q5 4 11 8.5l10 7.5q2 0 2 -2t-4 -9
q-29 -48 -50.5 -89t-21.5 -83q0 -31 22 -31q21 0 57.5 26.5t79.5 83.5q1 2 4.5 2t0.5 -8zM208 186q-6 7 -14 10t-15 3q-17 0 -37 -19t-37 -46.5t-28 -57t-11 -50.5q0 -8 7 -8q8 0 33 24t54 64q14 20 26 39t22 41zM327 357q-3 -23 -20 -42.5t-40 -19.5q-14 0 -26 8.5
t-22.5 19t-20.5 19t-21 8.5q-8 0 -16.5 -5t-16.5 -12.5t-14.5 -15t-10.5 -13.5q-5 -7 -9 -5t3 11q8 11 23 25t29 25q13 10 26 10q11 0 21.5 -9t21 -19.5t21.5 -19.5t25 -9q17 0 27.5 14t10.5 30q0 5 4.5 7.5t4.5 -7.5z" />
    <glyph glyph-name="adieresis" unicode="&#xe4;" horiz-adv-x="262" 
d="M342 115q-51 -61 -90.5 -90t-70.5 -29q-14 0 -24.5 7.5t-10.5 33.5q0 6 2.5 23.5t9.5 33.5q-13 -19 -28.5 -37t-31 -32t-29.5 -22.5t-23 -8.5q-19 0 -19 22q0 19 20 57q14 28 38.5 59.5t52.5 55.5q17 14 32.5 23t29.5 9q17 0 31 -11q5 4 11 8.5l10 7.5q2 0 2 -2t-4 -9
q-29 -48 -50.5 -89t-21.5 -83q0 -31 22 -31q21 0 57.5 26.5t79.5 83.5q1 2 4.5 2t0.5 -8zM208 186q-6 7 -14 10t-15 3q-17 0 -37 -19t-37 -46.5t-28 -57t-11 -50.5q0 -8 7 -8q8 0 33 24t54 64q14 20 26 39t22 41zM288 348q0 -12 -10.5 -24t-23.5 -12q-12 0 -12 12
q0 13 9.5 25t23.5 12q13 0 13 -13zM216 354q0 -12 -10.5 -24t-23.5 -12q-12 0 -12 12q0 13 9.5 25t23.5 12q13 0 13 -13z" />
    <glyph glyph-name="amacron" unicode="&#x101;" horiz-adv-x="262" 
d="M342 115q-51 -61 -90.5 -90t-70.5 -29q-14 0 -24.5 7.5t-10.5 33.5q0 6 2.5 23.5t9.5 33.5q-13 -19 -28.5 -37t-31 -32t-29.5 -22.5t-23 -8.5q-19 0 -19 22q0 19 20 57q14 28 38.5 59.5t52.5 55.5q17 14 32.5 23t29.5 9q17 0 31 -11q5 4 11 8.5l10 7.5q2 0 2 -2t-4 -9
q-29 -48 -50.5 -89t-21.5 -83q0 -31 22 -31q21 0 57.5 26.5t79.5 83.5q1 2 4.5 2t0.5 -8zM208 186q-6 7 -14 10t-15 3q-17 0 -37 -19t-37 -46.5t-28 -57t-11 -50.5q0 -8 7 -8q8 0 33 24t54 64q14 20 26 39t22 41zM264 320l-88 -2l5 15l86 2z" />
    <glyph glyph-name="abreve" unicode="&#x103;" horiz-adv-x="262" 
d="M303 345q0 -3 -2.5 -5.5t-5.5 -7.5q-17 -22 -37 -32t-38 -10q-21 0 -35 13t-14 37q0 7 6 10.5t12 3.5q4 0 4 -6q0 -19 9.5 -31.5t29.5 -12.5q14 0 29 9t26 26q7 12 11 12q5 0 5 -6zM342 115q-51 -61 -90.5 -90t-70.5 -29q-14 0 -24.5 7.5t-10.5 33.5q0 6 2.5 23.5
t9.5 33.5q-13 -19 -28.5 -37t-31 -32t-29.5 -22.5t-23 -8.5q-19 0 -19 22q0 19 20 57q14 28 38.5 59.5t52.5 55.5q17 14 32.5 23t29.5 9q17 0 31 -11q5 4 11 8.5l10 7.5q2 0 2 -2t-4 -9q-29 -48 -50.5 -89t-21.5 -83q0 -31 22 -31q21 0 57.5 26.5t79.5 83.5q1 2 4.5 2
t0.5 -8zM208 186q-6 7 -14 10t-15 3q-17 0 -37 -19t-37 -46.5t-28 -57t-11 -50.5q0 -8 7 -8q8 0 33 24t54 64q14 20 26 39t22 41z" />
    <glyph glyph-name="aring" unicode="&#xe5;" horiz-adv-x="262" 
d="M342 115q-51 -61 -90.5 -90t-70.5 -29q-14 0 -24.5 7.5t-10.5 33.5q0 6 2.5 23.5t9.5 33.5q-13 -19 -28.5 -37t-31 -32t-29.5 -22.5t-23 -8.5q-19 0 -19 22q0 19 20 57q14 28 38.5 59.5t52.5 55.5q17 14 32.5 23t29.5 9q17 0 31 -11q5 4 11 8.5l10 7.5q2 0 2 -2t-4 -9
q-29 -48 -50.5 -89t-21.5 -83q0 -31 22 -31q21 0 57.5 26.5t79.5 83.5q1 2 4.5 2t0.5 -8zM208 186q-6 7 -14 10t-15 3q-17 0 -37 -19t-37 -46.5t-28 -57t-11 -50.5q0 -8 7 -8q8 0 33 24t54 64q14 20 26 39t22 41zM291 362q0 -25 -18.5 -46.5t-53.5 -21.5q-21 0 -34.5 11
t-13.5 32q0 10 4 21.5t12.5 22t22 17.5t32.5 7q49 0 49 -43zM277 360q0 17 -8 28t-28 11q-29 0 -42.5 -18.5t-13.5 -41.5q0 -18 11 -28.5t27 -10.5q27 0 40.5 20t13.5 40z" />
    <glyph glyph-name="aogonek" unicode="&#x105;" horiz-adv-x="262" 
d="M342 115q-51 -61 -90.5 -90t-70.5 -29q-14 0 -24.5 7.5t-10.5 33.5q0 6 2.5 23.5t9.5 33.5q-13 -19 -28.5 -37t-31 -32t-29.5 -22.5t-23 -8.5q-19 0 -19 22q0 19 20 57q14 28 38.5 59.5t52.5 55.5q17 14 32.5 23t29.5 9q17 0 31 -11q5 4 11 8.5l10 7.5q2 0 2 -2t-4 -9
q-29 -48 -50.5 -89t-21.5 -83q0 -31 22 -31q21 0 57.5 26.5t79.5 83.5q1 2 4.5 2t0.5 -8zM208 186q-6 7 -14 10t-15 3q-17 0 -37 -19t-37 -46.5t-28 -57t-11 -50.5q0 -8 7 -8q8 0 33 24t54 64q14 20 26 39t22 41zM150 -52q0 -2 -4 -3q-31 -11 -50.5 -30.5t-19.5 -37.5
q0 -14 10 -22t24 -8q3 0 6 1t6 1t2 -2.5t-4 -3.5q-8 -2 -15 -3.5t-18 -1.5q-20 0 -31.5 8t-11.5 21q0 15 20 35q8 7 20.5 15.5t25 15.5t23 12t14.5 5q3 0 3 -2z" />
    <glyph glyph-name="ae" unicode="&#xe6;" horiz-adv-x="314" 
d="M156 94q-13 -20 -28.5 -37.5t-30.5 -31t-28.5 -21.5t-22.5 -8q-21 0 -21 20q0 11 7.5 31t22 44t35 49.5t46.5 47.5q17 14 32.5 23t29.5 9q17 0 31 -11q5 4 11 10.5t13 14.5q2 0 2 -2t-4 -9t-11 -19t-12 -22q17 17 36 27.5t37 10.5q12 0 21.5 -3.5t9.5 -17.5
q0 -15 -14.5 -30.5t-36.5 -30t-48 -27t-48 -22.5q-10 -21 -10 -42q0 -18 16 -26.5t36 -8.5t45 10t50 25.5t48 34t40 35.5q4 2 6 1t-2 -5q-28 -28 -58 -50t-58 -37.5t-52.5 -23.5t-42.5 -8q-30 -1 -48 9.5t-18 33.5q0 20 19 57zM206 186q-6 7 -14 10t-15 3q-19 0 -39 -19
t-36.5 -46.5t-27 -57t-10.5 -50.5q0 -8 7 -8q8 0 33 24t54 64q14 20 26 39t22 41zM300 190q0 7 -4 12.5t-12 5.5q-11 0 -24.5 -9t-26.5 -23.5t-23.5 -32.5t-16.5 -35q-2 -9 9 -4q13 5 28 13t28 17q19 14 30.5 26.5t11.5 29.5z" />
    <glyph glyph-name="cacute" unicode="&#x107;" horiz-adv-x="222" 
d="M291 110q-8 -7 -22.5 -19t-32.5 -26t-36.5 -27.5t-34.5 -22.5q-19 -11 -35.5 -16t-30.5 -5q-49 0 -49 48q0 11 5.5 28.5t13.5 32.5q15 29 30 47.5t32.5 31t38.5 21t47 16.5q6 2 9 2q6 0 13.5 -10.5t7.5 -16.5t-6.5 -16t-11.5 -13q-6 16 -14.5 26t-22.5 10t-32 -15.5
t-34 -38.5t-27 -50.5t-11 -52.5q0 -16 6.5 -25.5t20.5 -9.5t27.5 5t32.5 16q10 6 25 17t31.5 23.5t32 25t24.5 20.5q5 5 6 1.5t-3 -7.5zM348 393q0 -2 -3 -5q-35 -27 -76.5 -57t-83.5 -58q-5 -3 -6.5 -1.5t0.5 3.5q37 30 77.5 63t78.5 63q6 2 5 2q2 0 5 -3.5t3 -6.5z" />
    <glyph glyph-name="ccircumflex" unicode="&#x109;" horiz-adv-x="212" 
d="M294 107q2 2 4 -0.5t0 -4.5q-27 -26 -55.5 -46t-55 -34t-50 -21t-39.5 -7q-30 -1 -48 9.5t-18 33.5q0 6 2 16t5 18q9 24 27 50.5t39.5 48.5t45.5 36t45 14q12 0 21.5 -3.5t9.5 -17.5q0 -15 -14.5 -30.5t-36.5 -30t-48 -27t-48 -22.5q-10 -21 -10 -42q0 -18 16 -26.5
t36 -8.5q19 0 42 9t45.5 23t44.5 30.5t40 32.5zM195 190q0 7 -4 12.5t-12 5.5q-11 0 -25 -10.5t-27.5 -26.5t-25 -35.5t-17.5 -36.5q17 7 36 15.5t33 19.5q19 14 30.5 26.5t11.5 29.5zM268 295q0 -12 -4 -15q-3 -2 -8 -7t-8 -5t-3 7q0 20 -1 45t-2 45q0 6 -4 6q-2 0 -5 -3
q-19 -17 -39.5 -38t-37.5 -40q-9 -11 -13 -11t-4 5t9 13q17 15 37 34t37 36q8 8 16 15.5t16 12.5q6 2 5 2q4 0 4 -5q1 -28 3 -54t2 -43z" />
    <glyph glyph-name="ccaron" unicode="&#x10d;" horiz-adv-x="222" 
d="M291 110q-8 -7 -22.5 -19t-32.5 -26t-36.5 -27.5t-34.5 -22.5q-19 -11 -35.5 -16t-30.5 -5q-49 0 -49 48q0 11 5.5 28.5t13.5 32.5q15 29 30 47.5t32.5 31t38.5 21t47 16.5q6 2 9 2q6 0 13.5 -10.5t7.5 -16.5t-6.5 -16t-11.5 -13q-6 16 -14.5 26t-22.5 10t-32 -15.5
t-34 -38.5t-27 -50.5t-11 -52.5q0 -16 6.5 -25.5t20.5 -9.5t27.5 5t32.5 16q10 6 25 17t31.5 23.5t32 25t24.5 20.5q5 5 6 1.5t-3 -7.5zM324 386q0 -6 -8 -12q-19 -16 -38.5 -34.5t-36.5 -35.5q-10 -10 -21.5 -19.5t-14.5 -9.5q-5 0 -5 5q0 6 -1 19.5t-2.5 28.5t-2.5 29
t-1 22q0 7 5 12q2 2 9 7t9 5q3 0 3 -7q0 -12 0.5 -26t0.5 -27t0.5 -23t0.5 -14q0 -6 4 -6q2 0 5 3q19 16 40.5 38.5t35.5 39.5q9 12 13 12q5 0 5 -7z" />
    <glyph glyph-name="cdotaccent" unicode="&#x10b;" horiz-adv-x="222" 
d="M291 110q-8 -7 -22.5 -19t-32.5 -26t-36.5 -27.5t-34.5 -22.5q-19 -11 -35.5 -16t-30.5 -5q-49 0 -49 48q0 11 5.5 28.5t13.5 32.5q15 29 30 47.5t32.5 31t38.5 21t47 16.5q6 2 9 2q6 0 13.5 -10.5t7.5 -16.5t-6.5 -16t-11.5 -13q-6 16 -14.5 26t-22.5 10t-32 -15.5
t-34 -38.5t-27 -50.5t-11 -52.5q0 -16 6.5 -25.5t20.5 -9.5t27.5 5t32.5 16q10 6 25 17t31.5 23.5t32 25t24.5 20.5q5 5 6 1.5t-3 -7.5zM239 334q0 -11 -10 -20.5t-21 -9.5q-16 0 -16 18q0 11 7.5 19.5t20.5 8.5q8 0 13.5 -3t5.5 -13z" />
    <glyph glyph-name="ccedilla" unicode="&#xe7;" horiz-adv-x="222" 
d="M291 110q-8 -7 -22.5 -19t-32.5 -26t-36.5 -27.5t-34.5 -22.5q-19 -11 -35.5 -16t-30.5 -5q-49 0 -49 48q0 11 5.5 28.5t13.5 32.5q15 29 30 47.5t32.5 31t38.5 21t47 16.5q6 2 9 2q6 0 13.5 -10.5t7.5 -16.5t-6.5 -16t-11.5 -13q-6 16 -14.5 26t-22.5 10t-32 -15.5
t-34 -38.5t-27 -50.5t-11 -52.5q0 -16 6.5 -25.5t20.5 -9.5t27.5 5t32.5 16q10 6 25 17t31.5 23.5t32 25t24.5 20.5q5 5 6 1.5t-3 -7.5zM118 -4q-4 -1 -10 -3.5t-12 -6.5t-10.5 -9t-4.5 -9q0 -5 5 -8t11 -6t11 -7.5t5 -11.5q0 -11 -13 -21q-15 -13 -36 -27.5t-38 -22.5
q-6 -2 -7 -2q-2 0 -5 2t-3 4t5 4q5 1 16 5.5t22.5 10.5t20 13.5t8.5 14.5q0 6 -5 10t-11 7.5t-11 7.5t-5 10q0 7 8 15t18.5 15t21.5 12.5t16 7.5q3 0 5.5 -1t-2.5 -4z" />
    <glyph glyph-name="dcaron" unicode="&#x10f;" horiz-adv-x="221" 
d="M169 457q21 14 39.5 37t18.5 47q0 20 -9 29.5t-9 15.5q0 2 0.5 3.5t7.5 4.5q13 6 18 6q6 0 11.5 -11t5.5 -28t-8 -33t-20 -30t-26 -26t-27 -20q23 -63 37.5 -127.5t14.5 -124.5q0 -29 -6 -56.5t-16.5 -51.5t-26 -44t-34.5 -33q-17 -11 -30.5 -15.5t-30.5 -4.5
q-39 0 -39 37q0 18 9.5 41t19.5 37q23 33 58.5 63t78.5 45q5 2 5 9q0 8 -7 41.5t-24.5 86t-47 121.5t-74.5 148q-6 10 -6 23q0 5 2.5 15t6.5 15q1 0 3 -2q24 -39 52.5 -95.5t52.5 -122.5zM208 212q-23 -7 -46.5 -29.5t-43 -50.5t-32 -56t-12.5 -46q0 -24 19 -24
q21 0 42.5 19t38.5 47.5t28 62.5t11 64q0 13 -5 13z" />
    <glyph glyph-name="dcroat" unicode="&#x111;" horiz-adv-x="221" 
d="M223 200q0 -29 -6 -56.5t-16.5 -51.5t-26 -44t-34.5 -33q-17 -11 -30.5 -15.5t-30.5 -4.5q-39 0 -39 37q0 22 13 49.5t35.5 53.5t52.5 48.5t65 34.5q5 2 5 9t-5 32t-18 67q-42 -3 -68 -6t-32 -4q-8 -2 -8 3.5t5 7.5q3 2 17 4q20 2 41.5 3t41.5 2q-17 54 -47.5 127
t-79.5 161q-6 10 -6 23q0 5 2.5 15t6.5 15q1 0 3 -2q18 -28 37.5 -65.5t38.5 -82t36 -92.5t29 -97q27 0 49 1.5t33 1.5q7 0 5 -6t-7 -6q-2 0 -12.5 -0.5t-24 -0.5t-25.5 -0.5t-16 -0.5q8 -33 12 -65t4 -62zM208 212q-23 -7 -46.5 -29.5t-43 -50.5t-32 -56t-12.5 -46
q0 -24 19 -24q21 0 42.5 19t38.5 47.5t28 62.5t11 64q0 13 -5 13z" />
    <glyph glyph-name="eth" unicode="&#xf0;" horiz-adv-x="238" 
d="M222 184q0 25 -6 25q-5 0 -6 -1q-31 -16 -58 -60q-15 -25 -26 -47.5t-18 -43.5q-8 -27 -8 -40q0 -29 20 -29q17 0 43 24q25 25 42 76q17 54 17 96zM263 431q0 -5 -3 -5q-2 0 -3 1h-2q-9 0 -21 -4q-13 -3 -28 -7.5t-32 -9.5q60 -146 60 -238q0 -82 -38 -138
q-17 -24 -44 -40.5t-50 -16.5h-2q-34 0 -34 44q0 49 41 108q42 59 106 93q4 1 4 7q0 30 -69 173q-18 -6 -34.5 -12t-31.5 -11l-8 -2q-7 0 -11 6l-3 4q-1 1 -1 4q0 2 3 2t17 3q15 4 31 8.5t33 9.5q-21 43 -51 97t-68 121q-6 10 -9 28q0 2 0.5 6t1.5 9q1 6 5 6q1 0 3 -2
q32 -40 64.5 -95.5t64.5 -127.5l15 -33q26 8 46 14t36 9h3q7 0 9 -8v-3z" />
    <glyph glyph-name="egrave" unicode="&#xe8;" horiz-adv-x="212" 
d="M294 107q2 2 4 -0.5t0 -4.5q-27 -26 -55.5 -46t-55 -34t-50 -21t-39.5 -7q-30 -1 -48 9.5t-18 33.5q0 6 2 16t5 18q9 24 27 50.5t39.5 48.5t45.5 36t45 14q12 0 21.5 -3.5t9.5 -17.5q0 -15 -14.5 -30.5t-36.5 -30t-48 -27t-48 -22.5q-10 -21 -10 -42q0 -18 16 -26.5
t36 -8.5q19 0 42 9t45.5 23t44.5 30.5t40 32.5zM195 190q0 7 -4 12.5t-12 5.5q-11 0 -25 -10.5t-27.5 -26.5t-25 -35.5t-17.5 -36.5q17 7 36 15.5t33 19.5q19 14 30.5 26.5t11.5 29.5zM200 279q0 -6 -5 -1q-13 23 -26 48t-23 45q-3 6 -3 11q0 4 4 9.5t6 5.5q3 0 4 -4
q4 -11 10 -25.5t12.5 -30t12 -31t8.5 -27.5z" />
    <glyph glyph-name="eacute" unicode="&#xe9;" horiz-adv-x="212" 
d="M294 107q2 2 4 -0.5t0 -4.5q-27 -26 -55.5 -46t-55 -34t-50 -21t-39.5 -7q-30 -1 -48 9.5t-18 33.5q0 6 2 16t5 18q9 24 27 50.5t39.5 48.5t45.5 36t45 14q12 0 21.5 -3.5t9.5 -17.5q0 -15 -14.5 -30.5t-36.5 -30t-48 -27t-48 -22.5q-10 -21 -10 -42q0 -18 16 -26.5
t36 -8.5q19 0 42 9t45.5 23t44.5 30.5t40 32.5zM195 190q0 7 -4 12.5t-12 5.5q-11 0 -25 -10.5t-27.5 -26.5t-25 -35.5t-17.5 -36.5q17 7 36 15.5t33 19.5q19 14 30.5 26.5t11.5 29.5zM307 393q0 -2 -3 -5q-35 -27 -76.5 -57t-83.5 -58q-5 -3 -6.5 -1.5t0.5 3.5
q37 30 77.5 63t78.5 63q6 2 5 2q2 0 5 -3.5t3 -6.5z" />
    <glyph glyph-name="ecircumflex" unicode="&#xea;" horiz-adv-x="212" 
d="M294 107q2 2 4 -0.5t0 -4.5q-27 -26 -55.5 -46t-55 -34t-50 -21t-39.5 -7q-30 -1 -48 9.5t-18 33.5q0 6 2 16t5 18q9 24 27 50.5t39.5 48.5t45.5 36t45 14q12 0 21.5 -3.5t9.5 -17.5q0 -15 -14.5 -30.5t-36.5 -30t-48 -27t-48 -22.5q-10 -21 -10 -42q0 -18 16 -26.5
t36 -8.5q19 0 42 9t45.5 23t44.5 30.5t40 32.5zM195 190q0 7 -4 12.5t-12 5.5q-11 0 -25 -10.5t-27.5 -26.5t-25 -35.5t-17.5 -36.5q17 7 36 15.5t33 19.5q19 14 30.5 26.5t11.5 29.5zM268 295q0 -12 -4 -15q-3 -2 -8 -7t-8 -5t-3 7q0 20 -1 45t-2 45q0 6 -4 6q-2 0 -5 -3
q-19 -17 -39.5 -38t-37.5 -40q-9 -11 -13 -11t-4 5t9 13q17 15 37 34t37 36q8 8 16 15.5t16 12.5q6 2 5 2q4 0 4 -5q1 -28 3 -54t2 -43z" />
    <glyph glyph-name="ecaron" unicode="&#x11b;" horiz-adv-x="212" 
d="M294 107q2 2 4 -0.5t0 -4.5q-27 -26 -55.5 -46t-55 -34t-50 -21t-39.5 -7q-30 -1 -48 9.5t-18 33.5q0 6 2 16t5 18q9 24 27 50.5t39.5 48.5t45.5 36t45 14q12 0 21.5 -3.5t9.5 -17.5q0 -15 -14.5 -30.5t-36.5 -30t-48 -27t-48 -22.5q-10 -21 -10 -42q0 -18 16 -26.5
t36 -8.5q19 0 42 9t45.5 23t44.5 30.5t40 32.5zM195 190q0 7 -4 12.5t-12 5.5q-11 0 -25 -10.5t-27.5 -26.5t-25 -35.5t-17.5 -36.5q17 7 36 15.5t33 19.5q19 14 30.5 26.5t11.5 29.5zM308 386q0 -6 -8 -12q-19 -16 -38.5 -34.5t-36.5 -35.5q-10 -10 -21.5 -19.5t-14.5 -9.5
q-5 0 -5 5q0 6 -1 19.5t-2.5 28.5t-2.5 29t-1 22q0 7 5 12q2 2 9 7t9 5q3 0 3 -7q0 -12 0.5 -26t0.5 -27t0.5 -23t0.5 -14q0 -6 4 -6q2 0 5 3q19 16 40.5 38.5t35.5 39.5q9 12 13 12q5 0 5 -7z" />
    <glyph glyph-name="edieresis" unicode="&#xeb;" horiz-adv-x="212" 
d="M294 107q2 2 4 -0.5t0 -4.5q-27 -26 -55.5 -46t-55 -34t-50 -21t-39.5 -7q-30 -1 -48 9.5t-18 33.5q0 6 2 16t5 18q9 24 27 50.5t39.5 48.5t45.5 36t45 14q12 0 21.5 -3.5t9.5 -17.5q0 -15 -14.5 -30.5t-36.5 -30t-48 -27t-48 -22.5q-10 -21 -10 -42q0 -18 16 -26.5
t36 -8.5q19 0 42 9t45.5 23t44.5 30.5t40 32.5zM195 190q0 7 -4 12.5t-12 5.5q-11 0 -25 -10.5t-27.5 -26.5t-25 -35.5t-17.5 -36.5q17 7 36 15.5t33 19.5q19 14 30.5 26.5t11.5 29.5zM269 348q0 -12 -10.5 -24t-23.5 -12q-12 0 -12 12q0 13 9.5 25t23.5 12q13 0 13 -13z
M197 354q0 -12 -10.5 -24t-23.5 -12q-12 0 -12 12q0 13 9.5 25t23.5 12q13 0 13 -13z" />
    <glyph glyph-name="emacron" unicode="&#x113;" horiz-adv-x="212" 
d="M294 107q2 2 4 -0.5t0 -4.5q-27 -26 -55.5 -46t-55 -34t-50 -21t-39.5 -7q-30 -1 -48 9.5t-18 33.5q0 6 2 16t5 18q9 24 27 50.5t39.5 48.5t45.5 36t45 14q12 0 21.5 -3.5t9.5 -17.5q0 -15 -14.5 -30.5t-36.5 -30t-48 -27t-48 -22.5q-10 -21 -10 -42q0 -18 16 -26.5
t36 -8.5q19 0 42 9t45.5 23t44.5 30.5t40 32.5zM195 190q0 7 -4 12.5t-12 5.5q-11 0 -25 -10.5t-27.5 -26.5t-25 -35.5t-17.5 -36.5q17 7 36 15.5t33 19.5q19 14 30.5 26.5t11.5 29.5zM249 320l-88 -2l5 15l86 2z" />
    <glyph glyph-name="ebreve" unicode="&#x115;" horiz-adv-x="212" 
d="M294 107q2 2 4 -0.5t0 -4.5q-27 -26 -55.5 -46t-55 -34t-50 -21t-39.5 -7q-30 -1 -48 9.5t-18 33.5q0 6 2 16t5 18q9 24 27 50.5t39.5 48.5t45.5 36t45 14q12 0 21.5 -3.5t9.5 -17.5q0 -15 -14.5 -30.5t-36.5 -30t-48 -27t-48 -22.5q-10 -21 -10 -42q0 -18 16 -26.5
t36 -8.5q19 0 42 9t45.5 23t44.5 30.5t40 32.5zM195 190q0 7 -4 12.5t-12 5.5q-11 0 -25 -10.5t-27.5 -26.5t-25 -35.5t-17.5 -36.5q17 7 36 15.5t33 19.5q19 14 30.5 26.5t11.5 29.5zM268 345q0 -3 -2.5 -5.5t-5.5 -7.5q-17 -22 -37 -32t-38 -10q-21 0 -35 13t-14 37
q0 7 6 10.5t12 3.5q4 0 4 -6q0 -19 9.5 -31.5t29.5 -12.5q14 0 29 9t26 26q7 12 11 12q5 0 5 -6z" />
    <glyph glyph-name="edotaccent" unicode="&#x117;" horiz-adv-x="212" 
d="M294 107q2 2 4 -0.5t0 -4.5q-27 -26 -55.5 -46t-55 -34t-50 -21t-39.5 -7q-30 -1 -48 9.5t-18 33.5q0 6 2 16t5 18q9 24 27 50.5t39.5 48.5t45.5 36t45 14q12 0 21.5 -3.5t9.5 -17.5q0 -15 -14.5 -30.5t-36.5 -30t-48 -27t-48 -22.5q-10 -21 -10 -42q0 -18 16 -26.5
t36 -8.5q19 0 42 9t45.5 23t44.5 30.5t40 32.5zM195 190q0 7 -4 12.5t-12 5.5q-11 0 -25 -10.5t-27.5 -26.5t-25 -35.5t-17.5 -36.5q17 7 36 15.5t33 19.5q19 14 30.5 26.5t11.5 29.5zM241 334q0 -11 -10 -20.5t-21 -9.5q-16 0 -16 18q0 11 7.5 19.5t20.5 8.5q8 0 13.5 -3
t5.5 -13z" />
    <glyph glyph-name="eogonek" unicode="&#x119;" horiz-adv-x="212" 
d="M294 107q2 2 4 -0.5t0 -4.5q-27 -26 -55.5 -46t-55 -34t-50 -21t-39.5 -7q-30 -1 -48 9.5t-18 33.5q0 6 2 16t5 18q9 24 27 50.5t39.5 48.5t45.5 36t45 14q12 0 21.5 -3.5t9.5 -17.5q0 -15 -14.5 -30.5t-36.5 -30t-48 -27t-48 -22.5q-10 -21 -10 -42q0 -18 16 -26.5
t36 -8.5q19 0 42 9t45.5 23t44.5 30.5t40 32.5zM195 190q0 7 -4 12.5t-12 5.5q-11 0 -25 -10.5t-27.5 -26.5t-25 -35.5t-17.5 -36.5q17 7 36 15.5t33 19.5q19 14 30.5 26.5t11.5 29.5zM149 7q0 -2 -4 -3q-31 -11 -50.5 -30.5t-19.5 -37.5q0 -14 10 -22t24 -8q3 0 6 1t6 1
t2 -2.5t-4 -3.5q-8 -2 -15 -3.5t-18 -1.5q-20 0 -31.5 8t-11.5 21q0 15 20 35q8 7 20.5 15.5t25 15.5t23 12t14.5 5q3 0 3 -2z" />
    <glyph glyph-name="gcircumflex" unicode="&#x11d;" horiz-adv-x="275" 
d="M357 101q-21 -30 -72.5 -62.5t-136.5 -61.5q-66 -118 -122.5 -191t-106.5 -113.5t-94 -55t-86 -14.5q-24 0 -49.5 7.5t-46 22.5t-33.5 37.5t-13 52.5q0 40 24 69.5t67.5 52.5t103 41.5t130.5 36.5q52 14 107 28.5t103 29.5q15 28 30 56.5t28 57.5q-14 -17 -30.5 -34.5
t-35.5 -32.5t-38 -24.5t-37 -9.5q-14 0 -19.5 6.5t-5.5 17.5q0 22 17 51t41.5 56t51 49.5t45.5 32.5q14 8 27.5 10t24.5 2q16 0 23 -4q11 23 18 34t14 11q5 0 10 -3t5 -8t-8 -20l-16 -30q-23 -40 -56 -96.5t-68 -114.5q81 26 129 58t67 59q3 4 5.5 2.5t2.5 -6.5zM247 202
q-11 4 -27 4q-25 0 -41 -12q-23 -17 -43.5 -40.5t-36.5 -48t-25 -46.5t-9 -35q0 -9 9 -9q19 0 42 17t46.5 44t45.5 60t39 66zM126 -28q-49 -16 -107 -31t-118 -32q-103 -28 -165.5 -56.5t-91.5 -70.5q-14 -20 -20 -39.5t-6 -33.5q0 -27 9.5 -45t25 -29t34.5 -15.5t37 -4.5
q55 0 109 31t105 81t98.5 114.5t89.5 130.5zM307 315q0 -12 -4 -15q-3 -2 -8 -7t-8 -5t-3 7q0 20 -1 45t-2 45q0 6 -4 6q-2 0 -5 -3q-19 -17 -39.5 -38t-37.5 -40q-9 -11 -13 -11t-4 5t9 13q17 15 37 34t37 36q8 8 16 15.5t16 12.5q6 2 5 2q4 0 4 -5q1 -28 3 -54t2 -43z" />
    <glyph glyph-name="gbreve" unicode="&#x11f;" horiz-adv-x="275" 
d="M357 101q-21 -30 -72.5 -62.5t-136.5 -61.5q-66 -118 -122.5 -191t-106.5 -113.5t-94 -55t-86 -14.5q-24 0 -49.5 7.5t-46 22.5t-33.5 37.5t-13 52.5q0 40 24 69.5t67.5 52.5t103 41.5t130.5 36.5q52 14 107 28.5t103 29.5q15 28 30 56.5t28 57.5q-14 -17 -30.5 -34.5
t-35.5 -32.5t-38 -24.5t-37 -9.5q-14 0 -19.5 6.5t-5.5 17.5q0 22 17 51t41.5 56t51 49.5t45.5 32.5q14 8 27.5 10t24.5 2q16 0 23 -4q11 23 18 34t14 11q5 0 10 -3t5 -8t-8 -20l-16 -30q-23 -40 -56 -96.5t-68 -114.5q81 26 129 58t67 59q3 4 5.5 2.5t2.5 -6.5zM247 202
q-11 4 -27 4q-25 0 -41 -12q-23 -17 -43.5 -40.5t-36.5 -48t-25 -46.5t-9 -35q0 -9 9 -9q19 0 42 17t46.5 44t45.5 60t39 66zM126 -28q-49 -16 -107 -31t-118 -32q-103 -28 -165.5 -56.5t-91.5 -70.5q-14 -20 -20 -39.5t-6 -33.5q0 -27 9.5 -45t25 -29t34.5 -15.5t37 -4.5
q55 0 109 31t105 81t98.5 114.5t89.5 130.5zM325 345q0 -3 -2.5 -5.5t-5.5 -7.5q-17 -22 -37 -32t-38 -10q-21 0 -35 13t-14 37q0 7 6 10.5t12 3.5q4 0 4 -6q0 -19 9.5 -31.5t29.5 -12.5q14 0 29 9t26 26q7 12 11 12q5 0 5 -6z" />
    <glyph glyph-name="gdotaccent" unicode="&#x121;" horiz-adv-x="275" 
d="M357 101q-21 -30 -72.5 -62.5t-136.5 -61.5q-66 -118 -122.5 -191t-106.5 -113.5t-94 -55t-86 -14.5q-24 0 -49.5 7.5t-46 22.5t-33.5 37.5t-13 52.5q0 40 24 69.5t67.5 52.5t103 41.5t130.5 36.5q52 14 107 28.5t103 29.5q15 28 30 56.5t28 57.5q-14 -17 -30.5 -34.5
t-35.5 -32.5t-38 -24.5t-37 -9.5q-14 0 -19.5 6.5t-5.5 17.5q0 22 17 51t41.5 56t51 49.5t45.5 32.5q14 8 27.5 10t24.5 2q16 0 23 -4q11 23 18 34t14 11q5 0 10 -3t5 -8t-8 -20l-16 -30q-23 -40 -56 -96.5t-68 -114.5q81 26 129 58t67 59q3 4 5.5 2.5t2.5 -6.5zM247 202
q-11 4 -27 4q-25 0 -41 -12q-23 -17 -43.5 -40.5t-36.5 -48t-25 -46.5t-9 -35q0 -9 9 -9q19 0 42 17t46.5 44t45.5 60t39 66zM126 -28q-49 -16 -107 -31t-118 -32q-103 -28 -165.5 -56.5t-91.5 -70.5q-14 -20 -20 -39.5t-6 -33.5q0 -27 9.5 -45t25 -29t34.5 -15.5t37 -4.5
q55 0 109 31t105 81t98.5 114.5t89.5 130.5zM281 334q0 -11 -10 -20.5t-21 -9.5q-16 0 -16 18q0 11 7.5 19.5t20.5 8.5q8 0 13.5 -3t5.5 -13z" />
    <glyph glyph-name="gcommaaccent" unicode="&#x123;" horiz-adv-x="275" 
d="M357 101q0 5 -2.5 6.5t-5.5 -2.5q-19 -27 -67 -59t-129 -58q35 58 68 114.5t56 96.5l16 30t8 20t-5 8t-10 3q-7 0 -14 -11t-18 -34q-7 4 -23 4q-11 0 -24.5 -2t-27.5 -10q-19 -10 -45.5 -32.5t-51 -49.5t-41.5 -56t-17 -51q0 -11 5.5 -17.5t19.5 -6.5q18 0 37 9.5
t38 24.5t35.5 32.5t30.5 34.5q-13 -29 -28 -57.5t-30 -56.5q-48 -15 -103 -29.5t-107 -28.5q-71 -18 -130.5 -36.5t-103 -41.5t-67.5 -52.5t-24 -69.5q0 -30 13 -52.5t33.5 -37.5t46 -22.5t49.5 -7.5q42 0 86 14.5t94 55t106.5 113.5t122.5 191q85 29 136.5 61.5t72.5 62.5z
M247 202q-17 -33 -39 -66t-45.5 -60t-46.5 -44t-42 -17q-9 0 -9 9q0 13 9 35t25 46.5t36.5 48t43.5 40.5q16 12 41 12q16 0 27 -4zM126 -28q-42 -66 -89.5 -130.5t-98.5 -114.5t-105 -81t-109 -31q-18 0 -37 4.5t-34.5 15.5t-25 29t-9.5 45q0 14 6 33.5t20 39.5
q29 42 91.5 70.5t165.5 56.5q60 17 118 32t107 31zM216 317q0 17 8.5 34t21.5 31.5t28 26.5t28 20q5 2 7 -1t-2 -6q-23 -14 -41.5 -36t-18.5 -48q0 -17 6 -23.5t6 -12.5q0 -3 -10 -12q-5 -4 -9.5 -8t-6.5 -4q-6 0 -11.5 11t-5.5 28z" />
    <glyph glyph-name="hcircumflex" unicode="&#x125;" horiz-adv-x="270" 
d="M496 608q0 -12 -4 -15q-3 -2 -8 -7t-8 -5t-3 7v22q-24 -17 -45 -37.5t-41 -41.5t-44 -53t-49.5 -69t-50 -76t-46 -74.5t-38.5 -64.5t-27 -45q23 18 46 35.5t42 29.5q7 5 14 5q8 0 10 -6t2 -12q0 -14 -9.5 -40t-22 -54.5t-25 -54t-18.5 -37.5q22 10 47.5 23t51 28.5t50 33
t44.5 36.5q3 3 5 0t-2 -7q-34 -32 -88.5 -65.5t-112.5 -59.5q-27 -51 -61.5 -108t-75 -112t-85.5 -106t-93 -89t-98 -61t-100 -23q-55 0 -83 30.5t-28 79.5q0 45 26.5 84.5t67 73t89.5 60t94 46.5q26 12 65 26.5t82.5 30.5t88 33t81.5 33q14 27 26.5 56.5t22.5 54.5t15.5 43
t5.5 22q0 7 -6 7q-4 0 -12 -5q-24 -15 -41.5 -31t-31.5 -35t-27.5 -41.5t-29.5 -52.5q-2 -4 -8.5 -9t-13.5 -9.5t-13.5 -7.5t-7.5 -3q-2 0 -2 3q0 4 1 5q30 57 71 128.5t89 145t101 143.5t107 124q20 20 43 41.5t47 40.5q0 14 -1 28.5t-1 27.5q0 6 -4 6q-2 0 -5 -3
q-19 -17 -39.5 -38t-37.5 -40q-9 -11 -13 -11t-4 5t9 13q17 15 37 34t37 36q8 8 16 15.5t16 12.5q6 2 5 2q4 0 4 -5q0 -18 1 -35t3 -32q25 17 49.5 28t47.5 11q27 0 49.5 -13t23.5 -42q0 -4 1 -8.5t2 -8.5q0 -9 -6 -1q-11 23 -31.5 34t-46.5 11q-25 0 -47 -6.5t-42 -17.5
q1 -5 1 -9v-8zM131 -8q-42 -17 -85.5 -33.5t-84 -32t-76.5 -29.5t-62 -26q-39 -18 -84 -41.5t-83.5 -53.5t-64 -66.5t-25.5 -81.5q0 -26 9 -45t24 -32t34.5 -19.5t40.5 -6.5q46 0 101 26t114 82t120.5 144.5t121.5 214.5z" />
    <glyph glyph-name="hbar" unicode="&#x127;" horiz-adv-x="270" 
d="M668 605q0 -9 -6 -1q-11 23 -33 31.5t-45 8.5q-32 0 -59 -9.5t-51 -25.5t-45.5 -36.5t-41.5 -41.5q-30 -32 -67.5 -85.5t-74.5 -110.5q10 1 25 2t30.5 1.5t29 1t19.5 0.5q8 0 6 -6.5t-8 -5.5q-13 0 -28 -0.5l-30 -1t-28.5 -1t-22.5 -0.5q-34 -56 -63 -104t-43 -72
q23 18 46 35.5t42 29.5q7 5 14 5q8 0 10 -6t2 -12q0 -14 -9.5 -40t-22 -54.5t-25 -54t-18.5 -37.5q22 10 47.5 23t51 28.5t50 33t44.5 36.5q3 3 5 0t-2 -7q-34 -32 -88.5 -65.5t-112.5 -59.5q-27 -51 -61.5 -108t-75 -112t-85.5 -106t-93 -89t-98 -61t-100 -23
q-55 0 -83 30.5t-28 79.5q0 45 26.5 84.5t67 73t89.5 60t94 46.5q26 12 65 26.5t82.5 30.5t88 33t81.5 33q14 27 26.5 56.5t22.5 54.5t15.5 43t5.5 22q0 7 -6 7q-4 0 -12 -5q-24 -15 -41.5 -31t-31.5 -35t-27.5 -41.5t-29.5 -52.5q-2 -4 -8.5 -9t-13.5 -9.5t-13.5 -7.5
t-7.5 -3q-2 0 -2 3q0 4 1 5q35 66 84.5 151.5t108.5 171.5q-17 -1 -33.5 -3t-19.5 -2q-6 0 -6 4t4 6q2 1 5.5 2t10.5 2q18 2 47 3q40 57 82 110t85 96q23 23 49.5 47.5t54 44.5t54.5 32.5t52 12.5q27 0 49.5 -13t23.5 -42q0 -4 1 -8.5t2 -8.5zM131 -8q-42 -17 -85.5 -33.5
t-84 -32t-76.5 -29.5t-62 -26q-39 -18 -84 -41.5t-83.5 -53.5t-64 -66.5t-25.5 -81.5q0 -26 9 -45t24 -32t34.5 -19.5t40.5 -6.5q46 0 101 26t114 82t120.5 144.5t121.5 214.5z" />
    <glyph glyph-name="dotlessi" unicode="&#x131;" horiz-adv-x="183" 
d="M271 139q-35 -42 -68 -70t-61 -45t-49 -24t-33 -7q-26 0 -26 24q0 8 5 22.5t13 29.5q6 13 14.5 28.5t18 31t18 28.5t14.5 21q2 3 5.5 9t8 12.5t9 11.5t7.5 5q6 0 8.5 -8.5t2.5 -13.5q0 -4 -4 -8q-16 -20 -30.5 -42.5t-26 -44t-18.5 -39t-7 -26.5q0 -20 18 -20
q13 0 33.5 9.5t44 26.5t49 41.5t48.5 53.5q2 1 5 1.5t1 -7.5z" />
    <glyph glyph-name="igrave" unicode="&#xec;" horiz-adv-x="183" 
d="M275 139q-35 -42 -68 -70t-61 -45t-49 -24t-33 -7q-26 0 -26 24q0 13 10 35.5t23.5 46.5t27.5 45.5t22 33.5q2 3 5.5 9t8 12.5t9 11.5t7.5 5q6 0 8.5 -8.5t2.5 -13.5q0 -4 -4 -8q-16 -20 -30.5 -42.5t-26 -44t-18.5 -39t-7 -26.5q0 -20 18 -20q13 0 33.5 9.5t44 26.5
t49 41.5t48.5 53.5q2 1 5 1.5t1 -7.5zM201 279q0 -6 -5 -1q-13 23 -26 48t-23 45q-3 6 -3 11q0 4 4 9.5t6 5.5q3 0 4 -4q4 -11 10 -25.5t12.5 -30t12 -31t8.5 -27.5z" />
    <glyph glyph-name="iacute" unicode="&#xed;" horiz-adv-x="187" 
d="M275 139q-35 -42 -68 -70t-61 -45t-49 -24t-33 -7q-26 0 -26 24q0 13 10 35.5t23.5 46.5t27.5 45.5t22 33.5q2 3 5.5 9t8 12.5t9 11.5t7.5 5q6 0 8.5 -8.5t2.5 -13.5q0 -4 -4 -8q-16 -20 -30.5 -42.5t-26 -44t-18.5 -39t-7 -26.5q0 -20 18 -20q13 0 33.5 9.5t44 26.5
t49 41.5t48.5 53.5q2 1 5 1.5t1 -7.5zM307 393q0 -2 -3 -5q-35 -27 -76.5 -57t-83.5 -58q-5 -3 -6.5 -1.5t0.5 3.5q37 30 77.5 63t78.5 63q6 2 5 2q2 0 5 -3.5t3 -6.5z" />
    <glyph glyph-name="icircumflex" unicode="&#xee;" horiz-adv-x="187" 
d="M275 139q-35 -42 -68 -70t-61 -45t-49 -24t-33 -7q-26 0 -26 24q0 13 10 35.5t23.5 46.5t27.5 45.5t22 33.5q2 3 5.5 9t8 12.5t9 11.5t7.5 5q6 0 8.5 -8.5t2.5 -13.5q0 -4 -4 -8q-16 -20 -30.5 -42.5t-26 -44t-18.5 -39t-7 -26.5q0 -20 18 -20q13 0 33.5 9.5t44 26.5
t49 41.5t48.5 53.5q2 1 5 1.5t1 -7.5zM250 295q0 -12 -4 -15q-3 -2 -8 -7t-8 -5t-3 7q0 20 -1 45t-2 45q0 6 -4 6q-2 0 -5 -3q-19 -17 -39.5 -38t-37.5 -40q-9 -11 -13 -11t-4 5t9 13q17 15 37 34t37 36q8 8 16 15.5t16 12.5q6 2 5 2q4 0 4 -5q1 -28 3 -54t2 -43z" />
    <glyph glyph-name="itilde" unicode="&#x129;" horiz-adv-x="187" 
d="M275 139q-35 -42 -68 -70t-61 -45t-49 -24t-33 -7q-26 0 -26 24q0 13 10 35.5t23.5 46.5t27.5 45.5t22 33.5q2 3 5.5 9t8 12.5t9 11.5t7.5 5q6 0 8.5 -8.5t2.5 -13.5q0 -4 -4 -8q-16 -20 -30.5 -42.5t-26 -44t-18.5 -39t-7 -26.5q0 -20 18 -20q13 0 33.5 9.5t44 26.5
t49 41.5t48.5 53.5q2 1 5 1.5t1 -7.5zM288 357q-3 -23 -20 -42.5t-40 -19.5q-14 0 -26 8.5t-22.5 19t-20.5 19t-21 8.5q-8 0 -16.5 -5t-16.5 -12.5t-14.5 -15t-10.5 -13.5q-5 -7 -9 -5t3 11q8 11 23 25t29 25q13 10 26 10q11 0 21.5 -9t21 -19.5t21.5 -19.5t25 -9
q17 0 27.5 14t10.5 30q0 5 4.5 7.5t4.5 -7.5z" />
    <glyph glyph-name="idieresis" unicode="&#xef;" horiz-adv-x="187" 
d="M275 139q-35 -42 -68 -70t-61 -45t-49 -24t-33 -7q-26 0 -26 24q0 13 10 35.5t23.5 46.5t27.5 45.5t22 33.5q2 3 5.5 9t8 12.5t9 11.5t7.5 5q6 0 8.5 -8.5t2.5 -13.5q0 -4 -4 -8q-16 -20 -30.5 -42.5t-26 -44t-18.5 -39t-7 -26.5q0 -20 18 -20q13 0 33.5 9.5t44 26.5
t49 41.5t48.5 53.5q2 1 5 1.5t1 -7.5zM245 348q0 -12 -10.5 -24t-23.5 -12q-12 0 -12 12q0 13 9.5 25t23.5 12q13 0 13 -13zM173 354q0 -12 -10.5 -24t-23.5 -12q-12 0 -12 12q0 13 9.5 25t23.5 12q13 0 13 -13z" />
    <glyph glyph-name="imacron" unicode="&#x12b;" horiz-adv-x="187" 
d="M275 139q-35 -42 -68 -70t-61 -45t-49 -24t-33 -7q-26 0 -26 24q0 13 10 35.5t23.5 46.5t27.5 45.5t22 33.5q2 3 5.5 9t8 12.5t9 11.5t7.5 5q6 0 8.5 -8.5t2.5 -13.5q0 -4 -4 -8q-16 -20 -30.5 -42.5t-26 -44t-18.5 -39t-7 -26.5q0 -20 18 -20q13 0 33.5 9.5t44 26.5
t49 41.5t48.5 53.5q2 1 5 1.5t1 -7.5zM234 320l-88 -2l5 15l86 2z" />
    <glyph glyph-name="iogonek" unicode="&#x12f;" horiz-adv-x="187" 
d="M247 341q0 -11 -9.5 -22t-20.5 -11t-11 11q0 12 8.5 23t21.5 11q11 0 11 -12zM275 139q-35 -42 -68 -70t-61 -45t-49 -24t-33 -7q-26 0 -26 24q0 13 10 35.5t23.5 46.5t27.5 45.5t22 33.5q2 3 5.5 9t8 12.5t9 11.5t7.5 5q6 0 8.5 -8.5t2.5 -13.5q0 -4 -4 -8
q-16 -20 -30.5 -42.5t-26 -44t-18.5 -39t-7 -26.5q0 -20 18 -20q13 0 33.5 9.5t44 26.5t49 41.5t48.5 53.5q2 1 5 1.5t1 -7.5zM106 5q0 -2 -4 -3q-31 -11 -50.5 -30.5t-19.5 -37.5q0 -14 10 -22t24 -8q3 0 6 1t6 1t2 -2.5t-4 -3.5q-8 -2 -15 -3.5t-18 -1.5q-20 0 -31.5 8
t-11.5 21q0 15 20 35q8 7 20.5 15.5t25 15.5t23 12t14.5 5q3 0 3 -2z" />
    <glyph glyph-name="dotlessj" horiz-adv-x="203" 
d="M320 166q-21 -14 -55.5 -36t-71.5 -46t-72 -49t-57 -45q-105 -189 -190.5 -278.5t-157.5 -89.5q-34 0 -53 15.5t-19 31.5q0 7 0.5 17.5t0.5 21.5t0.5 20t0.5 12q2 7 5.5 4.5t1.5 -7.5q0 -35 15 -59t59 -24q48 0 89 25t79 68.5t74.5 101.5t75.5 125q-4 0 -8 6
q-4 5 -7.5 10.5t-3.5 7.5q0 4 5 7l40 21q7 17 13.5 35.5t11.5 35.5t8.5 31.5t3.5 23.5q0 15 -4.5 25t-18.5 10q-13 0 -22.5 -2.5t-18 -7t-17 -11t-19.5 -14.5q-7 -3 -8 -0.5t3 6.5q11 8 26 18t31.5 19t33.5 15t31 6q19 0 19 -21q0 -8 -4.5 -25.5t-12 -40t-17.5 -47
t-22 -46.5q23 12 53 29t61.5 35.5t61.5 37t53 33.5q8 4 8 1t-5 -6z" />
    <glyph glyph-name="jcircumflex" unicode="&#x135;" horiz-adv-x="203" 
d="M202 295q0 -12 -4 -15q-3 -2 -8 -7t-8 -5t-3 7q0 20 -1 45t-2 45q0 6 -4 6q-2 0 -5 -3q-19 -17 -39.5 -38t-37.5 -40q-9 -11 -13 -11t-4 5t9 13q17 15 37 34t37 36q8 8 16 15.5t16 12.5q6 2 5 2q4 0 4 -5q1 -28 3 -54t2 -43zM320 166q-21 -14 -55.5 -36t-71.5 -46
t-72 -49t-57 -45q-105 -189 -190.5 -278.5t-157.5 -89.5q-34 0 -53 15.5t-19 31.5q0 7 0.5 17.5t0.5 21.5t0.5 20t0.5 12q2 7 5.5 4.5t1.5 -7.5q0 -35 15 -59t59 -24q48 0 89 25t79 68.5t74.5 101.5t75.5 125q-4 0 -8 6q-4 5 -7.5 10.5t-3.5 7.5q0 4 5 7l40 21
q7 17 13.5 35.5t11.5 35.5t8.5 31.5t3.5 23.5q0 15 -4.5 25t-18.5 10q-13 0 -22.5 -2.5t-18 -7t-17 -11t-19.5 -14.5q-7 -3 -8 -0.5t3 6.5q11 8 26 18t31.5 19t33.5 15t31 6q19 0 19 -21q0 -8 -4.5 -25.5t-12 -40t-17.5 -47t-22 -46.5q23 12 53 29t61.5 35.5t61.5 37
t53 33.5q8 4 8 1t-5 -6z" />
    <glyph glyph-name="kcommaaccent" unicode="&#x137;" horiz-adv-x="219" 
d="M102 78q-4 4 -5.5 8.5t-6.5 -3.5q-12 -19 -22 -35.5t-19 -30.5q-5 -8 -15.5 -14.5t-20.5 -10.5q-6 0 -6 4t3 9q22 36 54 88.5t65 107.5t63.5 103t49.5 75q27 38 56.5 76.5t60.5 74t64 67t67 54.5q22 15 48.5 24.5t49.5 9.5q21 0 35 -7t22.5 -16.5t12 -19t3.5 -13.5
q0 -6 -4 -7t-4 3q0 5 -0.5 7t-6.5 7q-27 17 -73 17q-49 0 -93 -27.5t-83 -69t-72.5 -91t-60.5 -92.5q-16 -26 -36.5 -61t-39 -67t-31 -55t-13.5 -26q-7 -14 4 -3q9 9 21 18.5t24 17t24 12.5t22 5q17 0 17 -14q0 -10 -7 -22.5t-14 -21.5q-19 -24 -44.5 -38.5t-54.5 -23.5
q-5 -2 -4 -3.5t3 -5.5q36 -60 78.5 -124.5t92.5 -117.5t108 -87.5t126 -34.5q36 0 76.5 12t71.5 40q4 4 6.5 1.5t-1.5 -6.5q-37 -32 -83 -43.5t-88 -11.5q-58 0 -111 24.5t-102.5 68.5t-96.5 105t-92 133zM221 184q0 5 -3.5 8.5t-7.5 3.5q-9 0 -26.5 -12.5t-35 -28.5
t-30.5 -31.5t-13 -22.5q0 -3 3 -3q13 0 32.5 8.5t37.5 21t30.5 27.5t12.5 29zM113 -78q0 -17 -8.5 -34t-21.5 -31.5t-28 -26.5t-28 -20q-5 -2 -7 1t2 6q23 14 41.5 36t18.5 48q0 17 -6 23.5t-6 12.5q0 3 10 12q5 4 9.5 8t6.5 4q6 0 11.5 -11t5.5 -28z" />
    <glyph glyph-name="lacute" unicode="&#x13a;" horiz-adv-x="214" 
d="M514 520q0 -37 -12 -72.5t-38 -62.5q-63 -69 -139.5 -118t-170.5 -82q-12 -22 -25 -45t-24 -45.5t-18 -44t-7 -39.5q0 -35 33 -35q21 0 48 14t53.5 34t50 42.5t37.5 39.5q2 3 6.5 2t-1.5 -8q-20 -21 -47 -46t-56.5 -46t-60.5 -35.5t-59 -14.5q-20 0 -32.5 9t-12.5 36
q0 20 9 44.5t20 46.5t20 37.5t9 18.5q0 1 -3 4l-7 7l-7 7t-3 4l11 5q18 5 25 8t9 5q60 102 122.5 187.5t128.5 154.5q12 13 28 26.5t32.5 24.5t30 18.5t19.5 7.5q7 0 12.5 -8t9.5 -21t6.5 -28.5t2.5 -31.5zM490 492q0 9 -2.5 23.5t-7 29t-11.5 25t-16 10.5
q-12 0 -31.5 -15.5t-41 -39.5t-43 -51.5t-37.5 -51.5q-33 -48 -68.5 -104.5t-70.5 -120.5q78 27 153.5 73.5t132.5 109.5q25 28 34 55t9 57zM531 710q0 -2 -3 -5q-35 -27 -76.5 -57t-83.5 -58q-5 -3 -6.5 -1.5t0.5 3.5q37 30 77.5 63t78.5 63q6 2 5 2q2 0 5 -3.5t3 -6.5z
" />
    <glyph glyph-name="lcaron" unicode="&#x13e;" horiz-adv-x="234" 
d="M513 600q0 -4 -9 -12.5t-15 -8.5q-7 0 -13 5t-13 5q-9 0 -15.5 -3.5t-9.5 -6.5q-28 -22 -63 -63t-72.5 -94t-76 -114t-72.5 -123q-12 -22 -25 -45t-24 -45.5t-18 -44t-7 -39.5q0 -35 33 -35q21 0 48 14t53.5 34t50 42.5t37.5 39.5q2 3 6.5 2t-1.5 -8q-20 -21 -47 -46
t-56.5 -46t-60.5 -35.5t-59 -14.5q-20 0 -32.5 9t-12.5 36q0 18 10 45t23.5 54.5t27.5 51.5t22 36q60 102 122.5 187.5t128.5 154.5q12 13 28 27t32 26t30.5 20t22.5 8q10 0 18.5 -3.5t8.5 -9.5zM478 525q0 -17 -8.5 -34t-21.5 -31.5t-28 -26.5t-28 -20q-5 -2 -5.5 0t3.5 5
q23 14 43 37.5t20 49.5q0 20 -9 29.5t-9 15.5q0 2 0.5 3.5t7.5 4.5q13 6 18 6q6 0 11.5 -11t5.5 -28z" />
    <glyph glyph-name="lcommaaccent" unicode="&#x13c;" horiz-adv-x="214" 
d="M514 520q0 -37 -12 -72.5t-38 -62.5q-63 -69 -139.5 -118t-170.5 -82q-12 -22 -25 -45t-24 -45.5t-18 -44t-7 -39.5q0 -35 33 -35q21 0 48 14t53.5 34t50 42.5t37.5 39.5q2 3 6.5 2t-1.5 -8q-20 -21 -47 -46t-56.5 -46t-60.5 -35.5t-59 -14.5q-20 0 -32.5 9t-12.5 36
q0 20 9 44.5t20 46.5t20 37.5t9 18.5q0 1 -3 4l-7 7l-7 7t-3 4l11 5q18 5 25 8t9 5q60 102 122.5 187.5t128.5 154.5q12 13 28 26.5t32.5 24.5t30 18.5t19.5 7.5q7 0 12.5 -8t9.5 -21t6.5 -28.5t2.5 -31.5zM490 492q0 9 -2.5 23.5t-7 29t-11.5 25t-16 10.5
q-12 0 -31.5 -15.5t-41 -39.5t-43 -51.5t-37.5 -51.5q-33 -48 -68.5 -104.5t-70.5 -120.5q78 27 153.5 73.5t132.5 109.5q25 28 34 55t9 57zM80 -108q0 -17 -8.5 -34t-21.5 -31.5t-28 -26.5t-28 -20q-5 -2 -7 1t2 6q23 14 41.5 36t18.5 48q0 17 -6 23.5t-6 12.5q0 3 10 12
q5 4 9.5 8t6.5 4q6 0 11.5 -11t5.5 -28z" />
    <glyph glyph-name="lslash" unicode="&#x142;" horiz-adv-x="214" 
d="M514 520q0 -37 -12 -72.5t-38 -62.5q-63 -69 -139.5 -118t-170.5 -82q-12 -22 -25 -45t-24 -45.5t-18 -44t-7 -39.5q0 -35 33 -35q21 0 48 14t53.5 34t50 42.5t37.5 39.5q2 3 6.5 2t-1.5 -8q-20 -21 -47 -46t-56.5 -46t-60.5 -35.5t-59 -14.5q-20 0 -32.5 9t-12.5 36
q0 20 9 44.5t20 46.5t20 37.5t9 18.5q0 1 -3 4l-7 7l-7 7t-3 4l11 5q18 5 25 8t9 5q10 17 19.5 33.5t20.5 33.5q-19 -7 -34 -12.5t-18 -5.5q-5 0 -10 4t-5 9q0 2 16.5 5t61.5 17q95 148 200 258q12 13 28 26.5t32.5 24.5t30 18.5t19.5 7.5q7 0 12.5 -8t9.5 -21t6.5 -28.5
t2.5 -31.5zM490 492q0 9 -2.5 23.5t-7 29t-11.5 25t-16 10.5q-12 0 -31.5 -15.5t-41 -39.5t-43 -51.5t-37.5 -51.5q-21 -31 -43 -64.5t-45 -71.5q69 22 79 22q9 0 9 -12q0 -8 -5 -3q-11 0 -33.5 -6t-58.5 -17q-11 -18 -21 -36t-21 -37q78 27 153.5 73.5t132.5 109.5
q25 28 34 55t9 57z" />
    <glyph glyph-name="ldot" unicode="&#x140;" horiz-adv-x="234" 
d="M513 600q0 -4 -9 -12.5t-15 -8.5q-7 0 -13 5t-13 5q-9 0 -15.5 -3.5t-9.5 -6.5q-28 -22 -63 -63t-72.5 -94t-76 -114t-72.5 -123q-12 -22 -25 -45t-24 -45.5t-18 -44t-7 -39.5q0 -35 33 -35q21 0 48 14t53.5 34t50 42.5t37.5 39.5q2 3 6.5 2t-1.5 -8q-20 -21 -47 -46
t-56.5 -46t-60.5 -35.5t-59 -14.5q-20 0 -32.5 9t-12.5 36q0 18 10 45t23.5 54.5t27.5 51.5t22 36q60 102 122.5 187.5t128.5 154.5q12 13 28 27t32 26t30.5 20t22.5 8q10 0 18.5 -3.5t8.5 -9.5zM372 334q0 -11 -10 -20.5t-21 -9.5q-16 0 -16 18q0 11 7.5 19.5t20.5 8.5
q8 0 13.5 -3t5.5 -13z" />
    <glyph glyph-name="nacute" unicode="&#x144;" horiz-adv-x="272" 
d="M335 28q-12 -14 -28.5 -25.5t-35 -20t-37 -13.5t-34.5 -5q-27 0 -40.5 8.5t-13.5 36.5q0 12 6 29.5t16 39.5t22 46.5t24 49.5q4 11 0.5 13.5t-10.5 -2.5q-18 -12 -38 -31t-39.5 -41.5t-37 -48t-32.5 -50.5q-5 -8 -15.5 -14t-17.5 -6q-5 0 -5 5q5 10 16.5 31.5t23.5 44.5
q7 13 15 29t16 32.5t14.5 31t9.5 23.5q3 8 10.5 13t22.5 13q6 3 9 3t3 -4q0 -3 -3.5 -10l-10.5 -21l-18.5 -37t-27.5 -58q18 22 39.5 45t42.5 42t38.5 31t27.5 12q3 0 9 -6t6 -11q0 -6 -12 -25t-26.5 -45t-26.5 -56t-12 -58q0 -21 8 -32t31 -11q13 0 28 5t29 13.5t27 18.5
t22 20q4 5 5.5 1t-0.5 -6zM370 393q0 -2 -3 -5q-35 -27 -76.5 -57t-83.5 -58q-5 -3 -6.5 -1.5t0.5 3.5q37 30 77.5 63t78.5 63q6 2 5 2q2 0 5 -3.5t3 -6.5z" />
    <glyph glyph-name="ncaron" unicode="&#x148;" horiz-adv-x="272" 
d="M335 28q-12 -14 -28.5 -25.5t-35 -20t-37 -13.5t-34.5 -5q-27 0 -40.5 8.5t-13.5 36.5q0 12 6 29.5t16 39.5t22 46.5t24 49.5q4 11 0.5 13.5t-10.5 -2.5q-18 -12 -38 -31t-39.5 -41.5t-37 -48t-32.5 -50.5q-5 -8 -15.5 -14t-17.5 -6q-5 0 -5 5q5 10 16.5 31.5t23.5 44.5
q7 13 15 29t16 32.5t14.5 31t9.5 23.5q3 8 10.5 13t22.5 13q6 3 9 3t3 -4q0 -3 -3.5 -10l-10.5 -21l-18.5 -37t-27.5 -58q18 22 39.5 45t42.5 42t38.5 31t27.5 12q3 0 9 -6t6 -11q0 -6 -12 -25t-26.5 -45t-26.5 -56t-12 -58q0 -21 8 -32t31 -11q13 0 28 5t29 13.5t27 18.5
t22 20q4 5 5.5 1t-0.5 -6zM334 386q0 -6 -8 -12q-19 -16 -38.5 -34.5t-36.5 -35.5q-10 -10 -21.5 -19.5t-14.5 -9.5q-5 0 -5 5q0 6 -1 19.5t-2.5 28.5t-2.5 29t-1 22q0 7 5 12q2 2 9 7t9 5q3 0 3 -7q0 -12 0.5 -26t0.5 -27t0.5 -23t0.5 -14q0 -6 4 -6q2 0 5 3
q19 16 40.5 38.5t35.5 39.5q9 12 13 12q5 0 5 -7z" />
    <glyph glyph-name="ntilde" unicode="&#xf1;" horiz-adv-x="272" 
d="M335 28q-12 -14 -28.5 -25.5t-35 -20t-37 -13.5t-34.5 -5q-27 0 -40.5 8.5t-13.5 36.5q0 12 6 29.5t16 39.5t22 46.5t24 49.5q4 11 0.5 13.5t-10.5 -2.5q-18 -12 -38 -31t-39.5 -41.5t-37 -48t-32.5 -50.5q-5 -8 -15.5 -14t-17.5 -6q-5 0 -5 5q5 10 16.5 31.5t23.5 44.5
q7 13 15 29t16 32.5t14.5 31t9.5 23.5q3 8 10.5 13t22.5 13q6 3 9 3t3 -4q0 -3 -3.5 -10l-10.5 -21l-18.5 -37t-27.5 -58q18 22 39.5 45t42.5 42t38.5 31t27.5 12q3 0 9 -6t6 -11q0 -6 -12 -25t-26.5 -45t-26.5 -56t-12 -58q0 -21 8 -32t31 -11q13 0 28 5t29 13.5t27 18.5
t22 20q4 5 5.5 1t-0.5 -6zM339 357q-3 -23 -20 -42.5t-40 -19.5q-14 0 -26 8.5t-22.5 19t-20.5 19t-21 8.5q-8 0 -16.5 -5t-16.5 -12.5t-14.5 -15t-10.5 -13.5q-5 -7 -9 -5t3 11q8 11 23 25t29 25q13 10 26 10q11 0 21.5 -9t21 -19.5t21.5 -19.5t25 -9q17 0 27.5 14t10.5 30
q0 5 4.5 7.5t4.5 -7.5z" />
    <glyph glyph-name="ncommaaccent" unicode="&#x146;" horiz-adv-x="272" 
d="M335 28q-12 -14 -28.5 -25.5t-35 -20t-37 -13.5t-34.5 -5q-27 0 -40.5 8.5t-13.5 36.5q0 12 6 29.5t16 39.5t22 46.5t24 49.5q4 11 0.5 13.5t-10.5 -2.5q-18 -12 -38 -31t-39.5 -41.5t-37 -48t-32.5 -50.5q-5 -8 -15.5 -14t-17.5 -6q-5 0 -5 5q5 10 16.5 31.5t23.5 44.5
q7 13 15 29t16 32.5t14.5 31t9.5 23.5q3 8 10.5 13t22.5 13q6 3 9 3t3 -4q0 -3 -3.5 -10l-10.5 -21l-18.5 -37t-27.5 -58q18 22 39.5 45t42.5 42t38.5 31t27.5 12q3 0 9 -6t6 -11q0 -6 -12 -25t-26.5 -45t-26.5 -56t-12 -58q0 -21 8 -32t31 -11q13 0 28 5t29 13.5t27 18.5
t22 20q4 5 5.5 1t-0.5 -6zM106 -78q0 -17 -8.5 -34t-21.5 -31.5t-28 -26.5t-28 -20q-5 -2 -7 1t2 6q23 14 41.5 36t18.5 48q0 17 -6 23.5t-6 12.5q0 3 10 12q5 4 9.5 8t6.5 4q6 0 11.5 -11t5.5 -28z" />
    <glyph glyph-name="ograve" unicode="&#xf2;" horiz-adv-x="235" 
d="M358 176q-16 -5 -35 -8.5t-34 -3.5q-16 0 -35 1.5t-37 5.5q-6 -42 -24.5 -75.5t-50.5 -65.5q-40 -37 -72 -37q-20 0 -28 12.5t-8 30.5q0 14 5 33.5t13 32.5q11 20 36 42t70 51q14 9 22 14t12 8t5.5 3.5t2.5 0.5q2 0 4 -2.5t4 -4.5q3 -13 13 -21t23 -12.5t26.5 -6
t24.5 -1.5q14 0 31.5 2t31.5 6q4 0 4.5 -1.5t-4.5 -3.5zM185 160q0 9 -1.5 20t-11.5 11q-8 0 -17 -6q-40 -23 -61 -62.5t-21 -84.5q0 -13 4.5 -21.5t12.5 -8.5q19 0 36 16.5t30 40.5t21 50t8 45zM184 279q0 -6 -5 -1q-13 23 -26 48t-23 45q-3 6 -3 11q0 4 4 9.5t6 5.5
q3 0 4 -4q4 -11 10 -25.5t12.5 -30t12 -31t8.5 -27.5z" />
    <glyph glyph-name="oacute" unicode="&#xf3;" horiz-adv-x="235" 
d="M358 176q-16 -5 -35 -8.5t-34 -3.5q-16 0 -35 1.5t-37 5.5q-6 -42 -24.5 -75.5t-50.5 -65.5q-40 -37 -72 -37q-20 0 -28 12.5t-8 30.5q0 14 5 33.5t13 32.5q11 20 36 42t70 51q14 9 22 14t12 8t5.5 3.5t2.5 0.5q2 0 4 -2.5t4 -4.5q3 -13 13 -21t23 -12.5t26.5 -6
t24.5 -1.5q14 0 31.5 2t31.5 6q4 0 4.5 -1.5t-4.5 -3.5zM185 160q0 9 -1.5 20t-11.5 11q-8 0 -17 -6q-40 -23 -61 -62.5t-21 -84.5q0 -13 4.5 -21.5t12.5 -8.5q19 0 36 16.5t30 40.5t21 50t8 45zM332 393q0 -2 -3 -5q-35 -27 -76.5 -57t-83.5 -58q-5 -3 -6.5 -1.5t0.5 3.5
q37 30 77.5 63t78.5 63q6 2 5 2q2 0 5 -3.5t3 -6.5z" />
    <glyph glyph-name="ocircumflex" unicode="&#xf4;" horiz-adv-x="235" 
d="M358 176q-16 -5 -35 -8.5t-34 -3.5q-16 0 -35 1.5t-37 5.5q-6 -42 -24.5 -75.5t-50.5 -65.5q-40 -37 -72 -37q-20 0 -28 12.5t-8 30.5q0 14 5 33.5t13 32.5q11 20 36 42t70 51q14 9 22 14t12 8t5.5 3.5t2.5 0.5q2 0 4 -2.5t4 -4.5q3 -13 13 -21t23 -12.5t26.5 -6
t24.5 -1.5q14 0 31.5 2t31.5 6q4 0 4.5 -1.5t-4.5 -3.5zM185 160q0 9 -1.5 20t-11.5 11q-8 0 -17 -6q-40 -23 -61 -62.5t-21 -84.5q0 -13 4.5 -21.5t12.5 -8.5q19 0 36 16.5t30 40.5t21 50t8 45zM270 295q0 -12 -4 -15q-3 -2 -8 -7t-8 -5t-3 7q0 20 -1 45t-2 45q0 6 -4 6
q-2 0 -5 -3q-19 -17 -39.5 -38t-37.5 -40q-9 -11 -13 -11t-4 5t9 13q17 15 37 34t37 36q8 8 16 15.5t16 12.5q6 2 5 2q4 0 4 -5q1 -28 3 -54t2 -43z" />
    <glyph glyph-name="otilde" unicode="&#xf5;" horiz-adv-x="235" 
d="M358 176q-16 -5 -35 -8.5t-34 -3.5q-16 0 -35 1.5t-37 5.5q-6 -42 -24.5 -75.5t-50.5 -65.5q-40 -37 -72 -37q-20 0 -28 12.5t-8 30.5q0 14 5 33.5t13 32.5q11 20 36 42t70 51q14 9 22 14t12 8t5.5 3.5t2.5 0.5q2 0 4 -2.5t4 -4.5q3 -13 13 -21t23 -12.5t26.5 -6
t24.5 -1.5q14 0 31.5 2t31.5 6q4 0 4.5 -1.5t-4.5 -3.5zM185 160q0 9 -1.5 20t-11.5 11q-8 0 -17 -6q-40 -23 -61 -62.5t-21 -84.5q0 -13 4.5 -21.5t12.5 -8.5q19 0 36 16.5t30 40.5t21 50t8 45zM323 357q-3 -23 -20 -42.5t-40 -19.5q-14 0 -26 8.5t-22.5 19t-20.5 19
t-21 8.5q-8 0 -16.5 -5t-16.5 -12.5t-14.5 -15t-10.5 -13.5q-5 -7 -9 -5t3 11q8 11 23 25t29 25q13 10 26 10q11 0 21.5 -9t21 -19.5t21.5 -19.5t25 -9q17 0 27.5 14t10.5 30q0 5 4.5 7.5t4.5 -7.5z" />
    <glyph glyph-name="odieresis" unicode="&#xf6;" horiz-adv-x="235" 
d="M358 176q-16 -5 -35 -8.5t-34 -3.5q-16 0 -35 1.5t-37 5.5q-6 -42 -24.5 -75.5t-50.5 -65.5q-40 -37 -72 -37q-20 0 -28 12.5t-8 30.5q0 14 5 33.5t13 32.5q11 20 36 42t70 51q14 9 22 14t12 8t5.5 3.5t2.5 0.5q2 0 4 -2.5t4 -4.5q3 -13 13 -21t23 -12.5t26.5 -6
t24.5 -1.5q14 0 31.5 2t31.5 6q4 0 4.5 -1.5t-4.5 -3.5zM185 160q0 9 -1.5 20t-11.5 11q-8 0 -17 -6q-40 -23 -61 -62.5t-21 -84.5q0 -13 4.5 -21.5t12.5 -8.5q19 0 36 16.5t30 40.5t21 50t8 45zM281 348q0 -12 -10.5 -24t-23.5 -12q-12 0 -12 12q0 13 9.5 25t23.5 12
q13 0 13 -13zM209 354q0 -12 -10.5 -24t-23.5 -12q-12 0 -12 12q0 13 9.5 25t23.5 12q13 0 13 -13z" />
    <glyph glyph-name="omacron" unicode="&#x14d;" horiz-adv-x="235" 
d="M358 176q-16 -5 -35 -8.5t-34 -3.5q-16 0 -35 1.5t-37 5.5q-6 -42 -24.5 -75.5t-50.5 -65.5q-40 -37 -72 -37q-20 0 -28 12.5t-8 30.5q0 14 5 33.5t13 32.5q11 20 36 42t70 51q14 9 22 14t12 8t5.5 3.5t2.5 0.5q2 0 4 -2.5t4 -4.5q3 -13 13 -21t23 -12.5t26.5 -6
t24.5 -1.5q14 0 31.5 2t31.5 6q4 0 4.5 -1.5t-4.5 -3.5zM185 160q0 9 -1.5 20t-11.5 11q-8 0 -17 -6q-40 -23 -61 -62.5t-21 -84.5q0 -13 4.5 -21.5t12.5 -8.5q19 0 36 16.5t30 40.5t21 50t8 45zM258 320l-88 -2l5 15l86 2z" />
    <glyph glyph-name="obreve" unicode="&#x14f;" horiz-adv-x="235" 
d="M358 176q-16 -5 -35 -8.5t-34 -3.5q-16 0 -35 1.5t-37 5.5q-6 -42 -24.5 -75.5t-50.5 -65.5q-40 -37 -72 -37q-20 0 -28 12.5t-8 30.5q0 14 5 33.5t13 32.5q11 20 36 42t70 51q14 9 22 14t12 8t5.5 3.5t2.5 0.5q2 0 4 -2.5t4 -4.5q3 -13 13 -21t23 -12.5t26.5 -6
t24.5 -1.5q14 0 31.5 2t31.5 6q4 0 4.5 -1.5t-4.5 -3.5zM185 160q0 9 -1.5 20t-11.5 11q-8 0 -17 -6q-40 -23 -61 -62.5t-21 -84.5q0 -13 4.5 -21.5t12.5 -8.5q19 0 36 16.5t30 40.5t21 50t8 45zM286 345q0 -3 -2.5 -5.5t-5.5 -7.5q-17 -22 -37 -32t-38 -10q-21 0 -35 13
t-14 37q0 7 6 10.5t12 3.5q4 0 4 -6q0 -19 9.5 -31.5t29.5 -12.5q14 0 29 9t26 26q7 12 11 12q5 0 5 -6z" />
    <glyph glyph-name="ohungarumlaut" unicode="&#x151;" horiz-adv-x="235" 
d="M358 176q-16 -5 -35 -8.5t-34 -3.5q-16 0 -35 1.5t-37 5.5q-6 -42 -24.5 -75.5t-50.5 -65.5q-40 -37 -72 -37q-20 0 -28 12.5t-8 30.5q0 14 5 33.5t13 32.5q11 20 36 42t70 51q14 9 22 14t12 8t5.5 3.5t2.5 0.5q2 0 4 -2.5t4 -4.5q3 -13 13 -21t23 -12.5t26.5 -6
t24.5 -1.5q14 0 31.5 2t31.5 6q4 0 4.5 -1.5t-4.5 -3.5zM185 160q0 9 -1.5 20t-11.5 11q-8 0 -17 -6q-40 -23 -61 -62.5t-21 -84.5q0 -13 4.5 -21.5t12.5 -8.5q19 0 36 16.5t30 40.5t21 50t8 45zM320 366q0 -4 -6 -11q-15 -16 -34.5 -36t-39.5 -37q-5 -4 -4.5 -1t1.5 4
q4 7 12 18t18 24l20 26t18 24q3 3 6 3q5 0 7 -4.5t2 -9.5zM259 368q0 -6 -7 -13q-15 -16 -35 -36l-39 -39q-2 -2 -3.5 -0.5t0.5 3.5q16 26 35 49t37 47q1 3 5 3q5 0 6 -5.5t1 -8.5z" />
    <glyph glyph-name="oslash" unicode="&#xf8;" horiz-adv-x="235" 
d="M61 2q-10 -10 -17.5 -19.5t-13.5 -16.5q-5 -5 -7.5 -3t2.5 10l31 37q-6 10 -6 26q0 12 5 31.5t15 37.5q11 20 33 42t68 52q28 18 35.5 21.5t9.5 3.5t5 -3q4 -9 9 -14q8 10 18.5 22t15.5 18t7.5 4t-2.5 -9q-6 -7 -16 -18t-18 -21q11 -9 28 -12t47 -3q14 0 32.5 2.5
t32.5 6.5q4 0 4.5 -1.5t-4.5 -3.5q-16 -5 -39.5 -7.5t-37.5 -2.5t-32 0.5t-32 2.5q-4 -46 -24 -84t-52 -70q-20 -19 -37 -27.5t-35 -8.5q-15 0 -25 7zM75 30l31.5 36t35.5 41t35.5 41t32.5 37q-3 15 -15 15q-11 0 -31.5 -12t-41 -34.5t-35 -53.5t-12.5 -70zM78 22
q4 -8 10.5 -11.5t11.5 -3.5q21 0 41 18t35.5 44t25 54.5t9.5 49.5v4q-15 -17 -32.5 -37.5l-35 -41t-34.5 -40.5t-31 -36z" />
    <glyph glyph-name="oe" unicode="&#x153;" horiz-adv-x="342" 
d="M177 201q-19 0 -37.5 -17.5t-33 -43t-23.5 -53.5t-9 -49q0 -13 3.5 -22.5t13.5 -9.5q17 0 36 14t34.5 37t26 52.5t10.5 61.5q0 14 -3.5 22t-17.5 8zM204 220q12 0 17.5 -11t5.5 -25q0 -13 -2 -22.5t-4 -16.5q30 42 60.5 58.5t47.5 16.5q20 0 20 -21q0 -17 -15 -32.5
t-36.5 -29.5t-46 -25.5t-43.5 -19.5q-2 -11 -3.5 -20t-1.5 -17q0 -16 7.5 -31t31.5 -15q29 0 66.5 24t73.5 79q3 5 4 1t-1 -7q-38 -54 -80.5 -83t-87.5 -29q-19 0 -29.5 6t-15 15t-4.5 20t2 20q-22 -30 -48 -46t-51 -16q-20 0 -29.5 12.5t-9.5 30.5t15.5 54t46.5 72
q18 18 50 34t60 24zM210 100q51 21 81 46t30 42q0 16 -14 16q-10 0 -24 -8.5t-28.5 -23t-26.5 -33t-18 -39.5z" />
    </font>
</defs>
</svg>
